<svg width="28" height="28" viewBox="0 0 28 28" xmlns="http://www.w3.org/2000/svg">
<g clip-path="url(#clip0_262_416)">
<path d="M14 0C6.244 0 0 6.244 0 14C0 21.756 6.244 28 14 28C21.756 28 28 21.756 28 14C28 6.244 21.756 0 14 0ZM17.2667 5.05517C17.4183 5.0505 17.556 5.21383 17.4662 5.3795L13.9148 11.8895C13.8969 11.9227 13.8878 11.96 13.8886 11.9977C13.8893 12.0354 13.8999 12.0723 13.9192 12.1048C13.9384 12.1372 13.9658 12.1641 13.9986 12.1828C14.0314 12.2015 14.0684 12.2114 14.1062 12.2115H20.2428C20.4412 12.2115 20.5368 12.453 20.3922 12.5883L9.6355 22.6275C9.443 22.8072 9.15717 22.554 9.31117 22.3405L14.4025 15.316C14.4258 15.2835 14.4398 15.2452 14.4428 15.2052C14.4458 15.1653 14.4378 15.1253 14.4196 15.0897C14.4014 15.054 14.3737 15.0241 14.3396 15.0031C14.3056 14.9821 14.2664 14.9709 14.2263 14.9707H7.7315C7.68829 14.9706 7.64608 14.9576 7.61023 14.9335C7.57438 14.9094 7.5465 14.8751 7.53012 14.8352C7.51375 14.7952 7.50963 14.7512 7.51827 14.7089C7.52691 14.6665 7.54793 14.6277 7.57867 14.5973L17.122 5.1205C17.1602 5.08056 17.2114 5.05712 17.2667 5.05517Z" fill="#60C9CA"/>
</g>
<defs>
<clipPath id="clip0_262_416">
<rect width="28" height="28" fill="white"/>
</clipPath>
</defs>
</svg>
