<svg width="32" height="32" viewBox="0 0 32 32" fill="none" xmlns="http://www.w3.org/2000/svg">
<g clip-path="url(#clip0_111_249)">
<path d="M17.7064 27.9929L17.1645 29.3087C17.0569 29.5692 16.8107 29.7455 16.5337 29.7574C16.3507 29.7644 16.1662 29.7695 15.9799 29.7695C9.60187 29.7662 3.95875 25.2554 2.5605 19.04L0.389374 19.5317C1.174 23.0179 3.14337 26.1822 5.935 28.4435C8.759 30.7305 12.3165 31.9932 15.9559 32H15.9884C16.2021 32 16.4141 31.9949 16.626 31.9863C17.768 31.9384 18.7885 31.2205 19.2245 30.1567L19.9321 28.4367L17.7064 27.9929Z" fill="url(#paint0_linear_111_249)"/>
<path d="M0.567501 20.2392C0.190275 18.858 -0.000582404 17.4326 1.33496e-06 16.0008C1.33496e-06 9.43947 4.10788 3.43997 10.2228 1.0741L11.0245 3.1556C5.761 5.19247 2.22575 10.3543 2.22575 16.0008C2.22502 17.2329 2.38888 18.4595 2.713 19.6481L0.567501 20.2392Z" fill="url(#paint1_linear_111_249)"/>
<path d="M28.2116 9.66225C25.832 5.0795 21.148 2.23225 15.9905 2.23225C14.163 2.23225 12.387 2.58512 10.715 3.279L9.86213 1.218C11.8058 0.41125 13.8674 0 15.9905 0C21.9823 0 27.4218 3.30637 30.186 8.63087L28.2116 9.66225Z" fill="url(#paint2_linear_111_249)"/>
<path d="M11.2159 12.6997C12.5066 12.6997 13.558 13.39 14.0981 14.5944L14.1409 14.6887L16.3084 13.9503L16.2623 13.8389C15.4229 11.7883 13.4895 10.5137 11.216 10.5137C9.61762 10.5137 8.31837 11.0277 7.24475 12.0829C6.17812 13.1314 5.63787 14.4504 5.63787 16.0043C5.63787 17.5444 6.17812 18.8568 7.24475 19.9052C8.31837 20.9605 9.61762 21.4744 11.216 21.4744C13.4895 21.4744 15.4229 20.1998 16.2623 18.1509L16.3085 18.0397L14.1375 17.2994L14.0964 17.3972C13.6126 18.5809 12.5356 19.2884 11.2159 19.2884C10.3167 19.2884 9.55775 18.9733 8.95587 18.353C8.3475 17.7243 8.03975 16.9345 8.03975 16.006C8.03975 15.0707 8.34062 14.2963 8.956 13.6385C9.556 13.0148 10.3166 12.6997 11.2159 12.6997Z" fill="#F2F2F2"/>
<path d="M24.7926 10.7157L21.7036 18.5568L18.594 10.7157H16.0502L20.4112 21.4178L17.3085 28.9659L19.5325 29.4097L27.1961 10.7157H24.7926Z" fill="#F2F2F2"/>
<path d="M30.186 8.63086C31.3114 10.8231 32 13.3981 32 16.0337C32 22.1837 28.5411 27.5232 23.4684 30.2016L22.3724 28.2581C26.7711 25.9641 29.7757 21.3509 29.7757 16.0337C29.7757 13.7262 29.2116 11.5724 28.2116 9.66211L30.186 8.63086Z" fill="url(#paint3_linear_111_249)"/>
</g>
<defs>
<linearGradient id="paint0_linear_111_249" x1="123.9" y1="589.643" x2="1651.61" y2="997.553" gradientUnits="userSpaceOnUse">
<stop stop-color="#315C55"/>
<stop offset="1" stop-color="#09293F"/>
</linearGradient>
<linearGradient id="paint1_linear_111_249" x1="598.608" y1="523.554" x2="456.413" y2="1907.85" gradientUnits="userSpaceOnUse">
<stop stop-color="#4FB38D"/>
<stop offset="1" stop-color="#315C55"/>
</linearGradient>
<linearGradient id="paint2_linear_111_249" x1="292.547" y1="483.112" x2="1420.07" y2="689.816" gradientUnits="userSpaceOnUse">
<stop stop-color="#4FB38D"/>
<stop offset="1" stop-color="#97DEC0"/>
</linearGradient>
<linearGradient id="paint3_linear_111_249" x1="540.916" y1="674.995" x2="-73.9288" y2="1826.14" gradientUnits="userSpaceOnUse">
<stop stop-color="#97DEC0"/>
<stop offset="1" stop-color="#FFFFF0" stop-opacity="0"/>
</linearGradient>
<clipPath id="clip0_111_249">
<rect width="32" height="32" fill="white"/>
</clipPath>
</defs>
</svg>
