<svg width="28" height="28" viewBox="0 0 28 28" fill="none" xmlns="http://www.w3.org/2000/svg">
<g clip-path="url(#clip0_261_154)">
<path d="M15.4931 24.4937L15.0189 25.645C14.9248 25.8729 14.7094 26.0272 14.467 26.0376C14.3069 26.0437 14.1455 26.0482 13.9824 26.0482C8.40164 26.0453 3.4639 22.0984 2.24043 16.6599L0.340698 17.0901C1.02725 20.1406 2.75045 22.9093 5.19312 24.888C7.66412 26.8891 10.7769 27.9939 13.9614 27.9999H13.9898C14.1769 27.9999 14.3624 27.9954 14.5477 27.9879C15.547 27.946 16.4399 27.3178 16.8214 26.387L17.4406 24.882L15.4931 24.4937Z" fill="url(#paint0_linear_261_154)"/>
<path d="M0.496564 17.7094C0.166491 16.5009 -0.000509604 15.2536 1.16809e-06 14.0008C1.16809e-06 8.25964 3.59439 3.01008 8.94491 0.939941L9.64644 2.76125C5.04088 4.54352 1.94753 9.06016 1.94753 14.0008C1.94689 15.0789 2.09027 16.1521 2.37388 17.1922L0.496564 17.7094Z" fill="url(#paint1_linear_261_154)"/>
<path d="M24.6851 8.45447C22.603 4.44456 18.5045 1.95322 13.9917 1.95322C12.3926 1.95322 10.8386 2.26198 9.3756 2.86913L8.62933 1.06575C10.33 0.359844 12.1339 0 13.9917 0C19.2344 0 23.994 2.89308 26.4127 7.55202L24.6851 8.45447Z" fill="url(#paint2_linear_261_154)"/>
<path d="M9.81392 11.1122C10.9433 11.1122 11.8633 11.7163 12.3359 12.7701L12.3733 12.8526L14.2699 12.2065L14.2295 12.1091C13.495 10.3148 11.8033 9.19946 9.81403 9.19946C8.41545 9.19946 7.2786 9.64921 6.33918 10.5726C5.40589 11.49 4.93317 12.6441 4.93317 14.0038C4.93317 15.3514 5.40589 16.4997 6.33918 17.417C7.2786 18.3405 8.41545 18.7901 9.81403 18.7901C11.8033 18.7901 13.495 17.6748 14.2295 15.8821L14.27 15.7847L12.3703 15.137L12.3344 15.2225C11.9111 16.2583 10.9687 16.8774 9.81392 16.8774C9.02718 16.8774 8.36306 16.6016 7.83642 16.0589C7.30409 15.5088 7.03481 14.8177 7.03481 14.0053C7.03481 13.1868 7.29807 12.5093 7.83653 11.9337C8.36153 11.3879 9.02707 11.1122 9.81392 11.1122Z" fill="#F2F2F2"/>
<path d="M21.6935 9.37622L18.9906 16.2372L16.2697 9.37622H14.0439L17.8598 18.7406L15.1449 25.3452L17.0909 25.7335L23.7966 9.37622H21.6935Z" fill="#F2F2F2"/>
<path d="M26.4127 7.552C27.3974 9.47022 28 11.7233 28 14.0295C28 19.4108 24.9735 24.0828 20.5348 26.4264L19.5758 24.7258C23.4247 22.7186 26.0538 18.682 26.0538 14.0295C26.0538 12.0105 25.5601 10.1258 24.6851 8.45435L26.4127 7.552Z" fill="url(#paint3_linear_261_154)"/>
</g>
<defs>
<linearGradient id="paint0_linear_261_154" x1="108.412" y1="515.937" x2="1445.16" y2="872.858" gradientUnits="userSpaceOnUse">
<stop stop-color="#315C55"/>
<stop offset="1" stop-color="#09293F"/>
</linearGradient>
<linearGradient id="paint1_linear_261_154" x1="523.782" y1="458.11" x2="399.361" y2="1669.37" gradientUnits="userSpaceOnUse">
<stop stop-color="#4FB38D"/>
<stop offset="1" stop-color="#315C55"/>
</linearGradient>
<linearGradient id="paint2_linear_261_154" x1="255.979" y1="422.723" x2="1242.56" y2="603.589" gradientUnits="userSpaceOnUse">
<stop stop-color="#4FB38D"/>
<stop offset="1" stop-color="#97DEC0"/>
</linearGradient>
<linearGradient id="paint3_linear_261_154" x1="473.302" y1="590.62" x2="-64.6877" y2="1597.87" gradientUnits="userSpaceOnUse">
<stop stop-color="#97DEC0"/>
<stop offset="1" stop-color="#FFFFF0" stop-opacity="0"/>
</linearGradient>
<clipPath id="clip0_261_154">
<rect width="28" height="28" fill="white"/>
</clipPath>
</defs>
</svg>
