<svg width="26" height="30" viewBox="0 0 26 30" fill="none" xmlns="http://www.w3.org/2000/svg">
<g clip-path="url(#clip0_140_355)">
<path d="M20.7493 14.5818C22.6784 14.7142 24.2242 13.4687 24.623 11.7514C23.9238 10.7606 22.4574 10.2901 21.164 11.111C20.0011 11.9344 19.6838 13.3739 20.7493 14.5818ZM15.5268 1.16775L8.54524 5.02374L10.1597 5.87082L17.1353 2.02655L15.5268 1.16775ZM8.9024 11.7736L15.7231 27.3379L17.5441 28.4564L9.91771 6.36666L8.10112 5.39269L0.839226 19.0946L2.16437 19.8383L8.42427 11.7161C8.5612 11.5627 8.79028 11.5578 8.9024 11.7736M21.0834 15.4744C19.0998 14.3825 19.0998 11.6378 21.0834 10.5459C23.067 9.45403 25.5599 10.8263 25.5599 13.0102C25.5599 15.1941 23.067 16.5664 21.0834 15.4744ZM23.3367 17.5279L25.878 24.9367L18.1178 29.4375L15.262 27.665L10.148 16.0059L2.23442 20.4641L0.113403 19.2714L7.78767 4.83696L15.516 0.5625L17.9243 1.85607L20.363 8.98582C15.6505 11.584 18.0188 18.1713 23.3367 17.5279" fill="#F2F2F2"/>
</g>
<defs>
<clipPath id="clip0_140_355">
<rect width="25.78" height="28.875" fill="white" transform="translate(0.109985 0.5625)"/>
</clipPath>
</defs>
</svg>
