<svg width="30" height="32" viewBox="0 0 30 32" fill="none" xmlns="http://www.w3.org/2000/svg">
<g clip-path="url(#clip0_111_463)">
<path d="M23.588 15.5366C25.7258 15.6833 27.4389 14.303 27.8809 12.3998C27.1061 11.3018 25.4809 10.7804 24.0475 11.6901C22.7588 12.6026 22.4071 14.1979 23.588 15.5366ZM17.8003 0.67075L10.0631 4.94406L11.8523 5.88281L19.5829 1.6225L17.8003 0.67075ZM10.4589 12.4244L18.0178 29.6731L20.0359 30.9128L11.5841 6.43231L9.57094 5.35294L1.52312 20.5378L2.99169 21.3619L9.92906 12.3607C10.0808 12.1908 10.3347 12.1853 10.4589 12.4244M23.9583 16.5257C21.76 15.3157 21.76 12.2739 23.9583 11.0639C26.1565 9.85381 28.9193 11.3746 28.9193 13.7948C28.9193 16.2151 26.1565 17.7359 23.9583 16.5257ZM26.4554 18.8015L29.2717 27.0121L20.6717 32L17.5068 30.0356L11.8393 17.1147L3.06931 22.0555L0.71875 20.7336L9.22356 4.73706L17.7882 0L20.4573 1.43356L23.1598 9.33494C17.9373 12.2143 20.5619 19.5145 26.4554 18.8014" fill="#F2F2F2"/>
</g>
<defs>
<clipPath id="clip0_111_463">
<rect width="28.57" height="32" fill="white" transform="translate(0.715)"/>
</clipPath>
</defs>
</svg>
