<svg width="32" height="32" viewBox="0 0 32 32" fill="none" xmlns="http://www.w3.org/2000/svg">
<g clip-path="url(#clip0_111_394)">
<path d="M32 24.7841C31.5343 24.9603 31.0202 24.9599 30.5547 24.783C30.0892 24.6062 29.7046 24.2651 29.4733 23.8241L24.8733 17.4628L24.2067 16.5734L18.8693 23.8321C18.652 24.2546 18.2882 24.5834 17.846 24.7572C17.4038 24.9309 16.9135 24.9376 16.4667 24.7761L23.344 15.5494L16.9467 7.21478C17.4067 7.04901 17.9097 7.04681 18.3711 7.20856C18.8326 7.3703 19.2242 7.6861 19.48 8.10278L24.248 14.5428L29.0427 8.12945C29.2617 7.7145 29.6256 7.3945 30.0651 7.23028C30.5047 7.06607 30.9892 7.06909 31.4267 7.23878L28.944 10.5334L25.5813 14.9108C25.4879 14.9941 25.4132 15.0962 25.3621 15.2104C25.3109 15.3246 25.2844 15.4483 25.2844 15.5734C25.2844 15.6986 25.3109 15.8223 25.3621 15.9365C25.4132 16.0507 25.4879 16.1528 25.5813 16.2361L31.9867 24.7854L32 24.7841ZM0.00266359 15.4348L0.562664 12.6681C2.10133 7.19745 8.37333 4.92145 12.688 8.30811C15.2147 10.2934 15.8453 13.1041 15.7213 16.2721H1.488C1.25733 21.9294 5.34 25.3454 10.56 23.6001C11.4062 23.2955 12.1637 22.7858 12.7645 22.1165C13.3653 21.4473 13.7907 20.6395 14.0027 19.7654C14.2787 18.8774 14.7333 18.7254 15.568 18.9814C15.4289 20.0646 15.046 21.1022 14.4481 22.016C13.8502 22.9298 13.0528 23.6962 12.116 24.2574C10.5686 25.1039 8.7931 25.4394 7.0435 25.2159C5.29389 24.9925 3.65973 24.2216 2.37466 23.0134C1.10404 21.5833 0.336099 19.7768 0.187997 17.8694C0.187997 17.5561 0.0813303 17.2628 0.00933026 16.9814C0.00283963 16.4664 -0.00027155 15.9512 -3.07845e-06 15.4361L0.00266359 15.4348ZM1.50533 15.0534H14.3773C14.2973 10.9521 11.7093 8.04278 8.25733 8.01611C4.41466 7.96278 1.66533 10.8081 1.496 15.0348L1.50533 15.0534Z" fill="#F2F2F2"/>
</g>
<defs>
<clipPath id="clip0_111_394">
<rect width="32" height="32" fill="white"/>
</clipPath>
</defs>
</svg>
