<svg width="28" height="28" viewBox="0 0 28 28" fill="none" xmlns="http://www.w3.org/2000/svg">
<g clip-path="url(#clip0_147_67)">
<path d="M28 21.6859C27.5925 21.8401 27.1427 21.8397 26.7354 21.685C26.3281 21.5302 25.9915 21.2318 25.7892 20.8459L21.7642 15.2798L21.1808 14.5016L16.5107 20.8529C16.3205 21.2226 16.0022 21.5103 15.6153 21.6624C15.2283 21.8144 14.7993 21.8203 14.4083 21.6789L20.426 13.6056L14.8283 6.31278C15.2308 6.16773 15.671 6.16581 16.0748 6.30733C16.4785 6.44886 16.8212 6.72518 17.045 7.08978L21.217 12.7248L25.4123 7.11311C25.604 6.75003 25.9224 6.47003 26.307 6.32635C26.6916 6.18266 27.1156 6.1853 27.4983 6.33378L25.326 9.21661L22.3837 13.0468C22.302 13.1197 22.2366 13.209 22.1918 13.3089C22.147 13.4089 22.1239 13.5171 22.1239 13.6266C22.1239 13.7361 22.147 13.8444 22.1918 13.9443C22.2366 14.0442 22.302 14.1336 22.3837 14.2064L27.9883 21.6871L28 21.6859ZM0.00234733 13.5053L0.492347 11.0844C1.83868 6.29761 7.32668 4.30611 11.102 7.26945C13.3128 9.00661 13.8647 11.4659 13.7562 14.2379H1.30201C1.10018 19.1881 4.67251 22.1771 9.24001 20.6499C9.98045 20.3834 10.6432 19.9374 11.1689 19.3518C11.6946 18.7662 12.0669 18.0594 12.2523 17.2946C12.4938 16.5176 12.8917 16.3846 13.622 16.6086C13.5003 17.5564 13.1653 18.4642 12.6421 19.2638C12.1189 20.0635 11.4212 20.734 10.6015 21.2251C9.2475 21.9657 7.69398 22.2593 6.16308 22.0638C4.63217 21.8683 3.20228 21.1937 2.07785 20.1366C0.966048 18.8852 0.294103 17.3045 0.164514 15.6356C0.164514 15.3614 0.0711807 15.1048 0.00818066 14.8586C0.00250136 14.4079 -0.000220917 13.9572 1.39957e-05 13.5064L0.00234733 13.5053ZM1.31718 13.1716H12.5802C12.5102 9.58295 10.2457 7.03728 7.22518 7.01395C3.86285 6.96728 1.45718 9.45695 1.30901 13.1553L1.31718 13.1716Z" fill="#F2F2F2"/>
</g>
<defs>
<clipPath id="clip0_147_67">
<rect width="28" height="28" fill="white"/>
</clipPath>
</defs>
</svg>
