<svg width="28" height="28" viewBox="0 0 28 28" fill="none" xmlns="http://www.w3.org/2000/svg">
<g clip-path="url(#clip0_140_373)">
<path d="M27.1192 7.5719L28 5.28873L27.9638 5.14757L19.2453 7.4424C20.1752 6.09723 19.8555 5.01807 19.8555 5.01807C19.8555 5.01807 17.0707 6.79607 14.9637 6.75057C12.859 6.7039 12.1788 6.1439 8.9495 7.1729C5.72017 8.2019 4.80667 11.3612 3.87333 12.0414C2.93533 12.7216 0 14.9312 0 14.9312L0.007 14.9709L2.65533 14.1262C2.65533 14.1262 1.92967 14.8087 0.386167 16.8912L0.313833 16.8247L0.316167 16.8376C0.316167 16.8376 1.5575 18.7346 2.77433 18.3822C2.91645 18.3375 3.05428 18.2801 3.18617 18.2107C3.675 18.4837 4.31433 18.7509 5.02017 18.8232C5.02017 18.8232 4.54183 18.2691 4.14283 17.6367L4.4205 17.4571L5.42967 17.8281L5.31767 16.8807C5.32117 16.8772 5.32467 16.8772 5.327 16.8737L6.3175 17.2366L6.195 16.3756C6.31824 16.3102 6.44352 16.2487 6.57067 16.1912L7.60317 12.2887L11.8755 9.37557L11.536 10.2307C10.6715 12.3611 9.04517 12.8627 9.04517 12.8627L8.36617 13.1194C7.861 13.7167 7.64983 13.8626 7.47483 15.8646C7.88083 15.7619 8.2705 15.7397 8.62283 15.8319C10.4475 16.3231 11.081 18.5234 10.5887 19.1301C10.4673 19.2817 10.1733 19.5431 9.8035 19.8499H9.065L9.05567 20.4496L8.97983 20.5091H8.22733L8.21683 21.0971L8.0185 21.2452C7.31033 21.2581 6.41667 20.6409 6.41667 20.6409C6.41667 21.2021 6.8845 22.0701 6.8845 22.0701L6.96617 22.0304L6.895 22.0829C6.895 22.0829 8.79083 23.3464 9.982 22.8774C11.0437 22.4621 13.7888 20.2956 16.1607 19.2689L23.3357 17.3789L24.2818 14.9289L18.8125 16.3697V14.1659L25.2292 12.4766L26.1753 10.0266L18.8137 11.9656V9.76173L27.1192 7.5719ZM14.0957 12.2386L15.7978 11.7906L15.8212 11.8769L15.2903 13.2524L13.5252 13.7167L14.0957 12.2386ZM14.6825 15.1856L12.9185 15.6499L13.489 14.1729L15.1912 13.7237L15.2145 13.8101L14.6825 15.1856ZM16.982 14.6909L15.2168 15.1552L15.7885 13.6782L17.4907 13.2291L17.514 13.3142L16.982 14.6909Z" fill="#F2F2F2"/>
</g>
<defs>
<clipPath id="clip0_140_373">
<rect width="28" height="28" fill="white"/>
</clipPath>
</defs>
</svg>
