<svg width="32" height="32" viewBox="0 0 32 32" fill="none" xmlns="http://www.w3.org/2000/svg">
<g clip-path="url(#clip0_141_401)">
<path d="M30.9933 8.65329L32 6.04395L31.9587 5.88262L21.9947 8.50529C23.0573 6.96795 22.692 5.73462 22.692 5.73462C22.692 5.73462 19.5093 7.76662 17.1013 7.71462C14.696 7.66129 13.9187 7.02129 10.228 8.19729C6.53733 9.37329 5.49333 12.984 4.42667 13.7613C3.35467 14.5386 0 17.064 0 17.064L0.008 17.1093L3.03467 16.144C3.03467 16.144 2.20533 16.924 0.441333 19.304L0.358667 19.228L0.361333 19.2426C0.361333 19.2426 1.78 21.4106 3.17067 21.008C3.33309 20.9568 3.49061 20.8912 3.64133 20.812C4.2 21.124 4.93067 21.4293 5.73733 21.512C5.73733 21.512 5.19067 20.8786 4.73467 20.156L5.052 19.9506L6.20533 20.3746L6.07733 19.292C6.08133 19.288 6.08533 19.288 6.088 19.284L7.22 19.6986L7.08 18.7146C7.22085 18.6399 7.36403 18.5696 7.50933 18.504L8.68933 14.044L13.572 10.7146L13.184 11.692C12.196 14.1266 10.3373 14.7 10.3373 14.7L9.56133 14.9933C8.984 15.676 8.74267 15.8426 8.54267 18.1306C9.00667 18.0133 9.452 17.988 9.85467 18.0933C11.94 18.6546 12.664 21.1693 12.1013 21.8626C11.9627 22.036 11.6267 22.3346 11.204 22.6853H10.36L10.3493 23.3706L10.2627 23.4386H9.40267L9.39067 24.1106L9.164 24.28C8.35467 24.2946 7.33333 23.5893 7.33333 23.5893C7.33333 24.2306 7.868 25.2226 7.868 25.2226L7.96133 25.1773L7.88 25.2373C7.88 25.2373 10.0467 26.6813 11.408 26.1453C12.6213 25.6706 15.7587 23.1946 18.4693 22.0213L26.6693 19.8613L27.7507 17.0613L21.5 18.708V16.1893L28.8333 14.2586L29.9147 11.4586L21.5013 13.6746V11.156L30.9933 8.65329ZM16.1093 13.9866L18.0547 13.4746L18.0813 13.5733L17.4747 15.1453L15.4573 15.676L16.1093 13.9866ZM16.78 17.3546L14.764 17.8853L15.416 16.1973L17.3613 15.684L17.388 15.7826L16.78 17.3546ZM19.408 16.7893L17.3907 17.32L18.044 15.632L19.9893 15.1186L20.016 15.216L19.408 16.7893Z" fill="#F2F2F2"/>
</g>
<defs>
<clipPath id="clip0_141_401">
<rect width="32" height="32" fill="white"/>
</clipPath>
</defs>
</svg>
