<svg width="22" height="34" viewBox="0 0 22 34" fill="none" xmlns="http://www.w3.org/2000/svg">
<g clip-path="url(#clip0_111_380)">
<path d="M5.5 33.5C8.536 33.5 11 31.036 11 28V22.5H5.5C2.464 22.5 0 24.964 0 28C0 31.036 2.464 33.5 5.5 33.5Z" fill="#0ACF83"/>
<path d="M0 17C0 13.964 2.464 11.5 5.5 11.5H11V22.5H5.5C2.464 22.5 0 20.036 0 17Z" fill="#A259FF"/>
<path d="M0 6C0 2.964 2.464 0.5 5.5 0.5H11V11.5H5.5C2.464 11.5 0 9.036 0 6Z" fill="#F24E1E"/>
<path d="M11 0.5H16.5C19.536 0.5 22 2.964 22 6C22 9.036 19.536 11.5 16.5 11.5H11V0.5Z" fill="#FF7262"/>
<path d="M22 17C22 20.036 19.536 22.5 16.5 22.5C13.464 22.5 11 20.036 11 17C11 13.964 13.464 11.5 16.5 11.5C19.536 11.5 22 13.964 22 17Z" fill="#1ABCFE"/>
</g>
<defs>
<clipPath id="clip0_111_380">
<rect width="22" height="33" fill="white" transform="translate(0 0.5)"/>
</clipPath>
</defs>
</svg>
