<svg width="22" height="32" viewBox="0 0 22 32" fill="none" xmlns="http://www.w3.org/2000/svg">
<g clip-path="url(#clip0_261_220)">
<path d="M5.91665 31.2499C8.72265 31.2499 11 28.9726 11 26.1666V21.0833H5.91665C3.11065 21.0833 0.833313 23.3606 0.833313 26.1666C0.833313 28.9726 3.11065 31.2499 5.91665 31.2499Z" fill="#0ACF83"/>
<path d="M0.833313 16.0001C0.833313 13.1941 3.11065 10.9167 5.91665 10.9167H11V21.0834H5.91665C3.11065 21.0834 0.833313 18.8061 0.833313 16.0001Z" fill="#A259FF"/>
<path d="M0.833313 5.83333C0.833313 3.02733 3.11065 0.75 5.91665 0.75H11V10.9167H5.91665C3.11065 10.9167 0.833313 8.63933 0.833313 5.83333Z" fill="#F24E1E"/>
<path d="M11 0.75H16.0833C18.8893 0.75 21.1667 3.02733 21.1667 5.83333C21.1667 8.63933 18.8893 10.9167 16.0833 10.9167H11V0.75Z" fill="#FF7262"/>
<path d="M21.1667 16.0001C21.1667 18.8061 18.8893 21.0834 16.0833 21.0834C13.2773 21.0834 11 18.8061 11 16.0001C11 13.1941 13.2773 10.9167 16.0833 10.9167C18.8893 10.9167 21.1667 13.1941 21.1667 16.0001Z" fill="#1ABCFE"/>
</g>
<defs>
<clipPath id="clip0_261_220">
<rect width="20.3333" height="30.5" fill="white" transform="translate(0.833313 0.75)"/>
</clipPath>
</defs>
</svg>
