<svg width="32" height="32" viewBox="0 0 32 32" fill="none" xmlns="http://www.w3.org/2000/svg">
<g clip-path="url(#clip0_111_387)">
<path d="M24.5 0H7.5C3.35786 0 0 3.35786 0 7.5V24.5C0 28.6421 3.35786 32 7.5 32H24.5C28.6421 32 32 28.6421 32 24.5V7.5C32 3.35786 28.6421 0 24.5 0Z" fill="#F03C2E"/>
<mask id="mask0_111_387" style="mask-type:luminance" maskUnits="userSpaceOnUse" x="3" y="3" width="26" height="26">
<path d="M3.5 3.5H28.5V28.5H3.5V3.5Z" fill="white"/>
</mask>
<g mask="url(#mask0_111_387)">
<path d="M28.028 14.8867L17.1131 3.97184C16.8881 3.74653 16.6013 3.59309 16.289 3.53094C15.9766 3.46879 15.6529 3.50073 15.3588 3.62271C15.1635 3.70365 14.9861 3.82228 14.8366 3.97184L12.571 6.23746L15.446 9.11246C16.1148 8.87809 16.8804 9.03821 17.4131 9.57109C17.6668 9.82518 17.8438 10.1455 17.9241 10.4954C18.0043 10.8453 17.9846 11.2107 17.867 11.55L20.6381 14.3211C21.3085 14.0898 22.0819 14.239 22.617 14.7757C22.8851 15.0437 23.0676 15.3851 23.1415 15.7568C23.2154 16.1286 23.1773 16.5139 23.0321 16.864C22.8375 17.3333 22.4644 17.7062 21.9949 17.9006C21.5255 18.095 20.998 18.095 20.5285 17.9006C20.296 17.8042 20.0848 17.6631 19.9069 17.4851C19.3444 16.9226 19.2054 16.0945 19.4898 15.4015L16.9054 12.8171V19.618C17.093 19.7108 17.2644 19.8332 17.4131 19.9805C17.7724 20.3397 17.9743 20.827 17.9743 21.3351C17.9743 21.8433 17.7724 22.3306 17.4131 22.6898C17.0539 23.0491 16.5666 23.251 16.0585 23.251C15.5504 23.251 15.0631 23.0491 14.7038 22.6898C14.4356 22.422 14.253 22.0806 14.1789 21.7089C14.1049 21.3372 14.1429 20.9519 14.288 20.6018C14.3844 20.3694 14.5256 20.1582 14.7038 19.9805C14.8889 19.7961 15.0944 19.6562 15.3311 19.5625V12.6983C15.0962 12.6023 14.8829 12.4602 14.7038 12.2805C14.4348 12.0118 14.2519 11.669 14.1784 11.296C14.105 10.9229 14.1442 10.5365 14.2913 10.1858L11.4554 7.35171L3.97102 14.8282C3.74571 15.0534 3.59225 15.3403 3.53005 15.6527C3.46786 15.9651 3.49974 16.2889 3.62164 16.5832C3.70266 16.7786 3.82138 16.9561 3.97102 17.1056L14.8866 28.0196C15.0361 28.1691 15.2135 28.2877 15.4088 28.3687C15.8033 28.532 16.2465 28.532 16.641 28.3687C16.8363 28.2877 17.0137 28.1691 17.1631 28.0196L28.028 17.172C28.1776 17.0225 28.2963 16.845 28.3773 16.6496C28.4583 16.4542 28.5 16.2448 28.5 16.0333C28.5 15.8218 28.4583 15.6124 28.3774 15.417C28.2964 15.2216 28.1777 15.0441 28.028 14.8946" fill="white"/>
</g>
</g>
<defs>
<clipPath id="clip0_111_387">
<rect width="32" height="32" fill="white"/>
</clipPath>
</defs>
</svg>
