<svg width="28" height="28" viewBox="0 0 28 28" fill="none" xmlns="http://www.w3.org/2000/svg">
<g clip-path="url(#clip0_261_202)">
<path d="M21.4375 0H6.5625C2.93813 0 0 2.93813 0 6.5625V21.4375C0 25.0619 2.93813 28 6.5625 28H21.4375C25.0619 28 28 25.0619 28 21.4375V6.5625C28 2.93813 25.0619 0 21.4375 0Z" fill="#F03C2E"/>
<mask id="mask0_261_202" style="mask-type:luminance" maskUnits="userSpaceOnUse" x="3" y="3" width="22" height="22">
<path d="M3.0625 3.0625H24.9375V24.9375H3.0625V3.0625Z" fill="white"/>
</mask>
<g mask="url(#mask0_261_202)">
<path d="M24.5244 13.0259L14.9739 3.47536C14.777 3.27822 14.526 3.14395 14.2527 3.08957C13.9795 3.03519 13.6962 3.06314 13.4388 3.16987C13.2679 3.24069 13.1127 3.3445 12.982 3.47536L10.9995 5.45778L13.5152 7.9734C14.1003 7.76833 14.7702 7.90843 15.2364 8.3747C15.4583 8.59703 15.6132 8.87729 15.6835 9.18347C15.7537 9.48964 15.7364 9.8094 15.6335 10.1062L18.0583 12.531C18.6449 12.3286 19.3216 12.4591 19.7898 12.9287C20.0243 13.1632 20.184 13.462 20.2487 13.7872C20.3134 14.1125 20.2801 14.4496 20.153 14.756C19.9827 15.1667 19.6563 15.4929 19.2455 15.663C18.8347 15.8331 18.3731 15.8331 17.9624 15.663C17.7589 15.5787 17.5741 15.4552 17.4184 15.2995C16.9262 14.8073 16.8046 14.0827 17.0534 13.4763L14.7921 11.215V17.1657C14.9563 17.2469 15.1063 17.354 15.2364 17.4829C15.5508 17.7973 15.7274 18.2237 15.7274 18.6683C15.7274 19.1128 15.5508 19.5392 15.2364 19.8536C14.922 20.168 14.4956 20.3446 14.051 20.3446C13.6065 20.3446 13.1801 20.168 12.8657 19.8536C12.6311 19.6193 12.4712 19.3206 12.4065 18.9953C12.3417 18.6701 12.3749 18.333 12.5019 18.0266C12.5862 17.8232 12.7098 17.6384 12.8657 17.4829C13.0277 17.3216 13.2075 17.1992 13.4146 17.1172V11.111C13.2091 11.027 13.0225 10.9027 12.8657 10.7454C12.6303 10.5103 12.4703 10.2104 12.406 9.88399C12.3417 9.55757 12.3761 9.21941 12.5048 8.91261L10.0234 6.43275L3.47454 12.9747C3.27739 13.1717 3.14311 13.4228 3.0887 13.6961C3.03428 13.9695 3.06217 14.2528 3.16884 14.5103C3.23972 14.6813 3.3436 14.8366 3.47454 14.9674L13.0257 24.5171C13.1565 24.648 13.3117 24.7518 13.4826 24.8226C13.8278 24.9655 14.2156 24.9655 14.5608 24.8226C14.7316 24.7518 14.8869 24.648 15.0176 24.5171L24.5244 15.0255C24.6553 14.8947 24.7592 14.7393 24.83 14.5684C24.9009 14.3975 24.9374 14.2142 24.9374 14.0292C24.9374 13.8441 24.901 13.6608 24.8301 13.4899C24.7592 13.3189 24.6554 13.1636 24.5244 13.0328" fill="white"/>
</g>
</g>
<defs>
<clipPath id="clip0_261_202">
<rect width="28" height="28" fill="white"/>
</clipPath>
</defs>
</svg>
