<svg width="32" height="32" viewBox="0 0 32 32" fill="none" xmlns="http://www.w3.org/2000/svg">
<g clip-path="url(#clip0_111_449)">
<path d="M6.6665 0C2.9925 0 0 2.9925 0 6.6665C0 9.884 2.29525 12.5793 5.3335 13.199V22.6665C5.3335 25.609 7.7535 28 10.6665 28H10.7153C11.0408 30.2558 12.9902 32 15.3335 32C17.903 32 20 29.903 20 27.3335C20 24.764 17.903 22.6665 15.3335 22.6665C12.9905 22.6665 11.041 24.4107 10.7153 26.6665H10.6665C8.48225 26.6665 6.6665 24.8785 6.6665 22.6665V15.9447C7.09795 16.385 7.61299 16.7346 8.18139 16.9731C8.74979 17.2115 9.3601 17.3341 9.9765 17.3335H10.7153C11.041 19.5893 12.9902 21.3335 15.3335 21.3335C17.6765 21.3335 19.6257 19.5893 19.951 17.3335H22.7153C23.041 19.5893 24.9902 21.3335 27.3335 21.3335C29.903 21.3335 32 19.236 32 16.6665C32 14.097 29.903 12 27.3335 12C24.9902 12 23.0408 13.7443 22.7153 16H19.9513C19.626 13.7443 17.6768 12 15.3335 12C12.9902 12 11.0408 13.7443 10.7153 16H9.9765C8.36825 16 7.02825 14.8527 6.7295 13.332C10.3745 13.298 13.3335 10.3195 13.3335 6.6665C13.3335 2.9925 10.3405 0 6.6665 0ZM6.6665 1.3335C7.36725 1.33212 8.06138 1.46911 8.70906 1.73662C9.35674 2.00413 9.94523 2.3969 10.4408 2.89238C10.9363 3.38787 11.3291 3.97632 11.5967 4.62398C11.8643 5.27163 12.0013 5.96575 12 6.6665C12.0013 7.36728 11.8643 8.06141 11.5967 8.7091C11.3291 9.35678 10.9363 9.94527 10.4408 10.4408C9.94527 10.9363 9.35678 11.3291 8.7091 11.5967C8.06141 11.8643 7.36728 12.0013 6.6665 12C5.96575 12.0013 5.27163 11.8643 4.62398 11.5967C3.97632 11.3291 3.38787 10.9363 2.89238 10.4408C2.3969 9.94523 2.00413 9.35674 1.73662 8.70906C1.46911 8.06138 1.33212 7.36725 1.3335 6.6665C1.33212 5.96577 1.46911 5.27167 1.73663 4.62401C2.00415 3.97636 2.39692 3.3879 2.89241 2.89241C3.3879 2.39692 3.97636 2.00415 4.62401 1.73663C5.27167 1.46911 5.96577 1.33212 6.6665 1.3335ZM5.36275 3.21875C4.6675 3.22225 4 3.78075 4 4.5415V8.80225C4 9.813 5.17725 10.468 6.03625 9.9355L9.44475 7.82175C10.259 7.31675 10.2633 6.07125 9.45275 5.5605L6.044 3.413C5.84026 3.28423 5.60377 3.21679 5.36275 3.21875ZM5.3335 4.5415L8.74225 6.6885L5.3335 8.80225V4.5415ZM15.3335 13.3335C15.7716 13.3321 16.2056 13.4174 16.6106 13.5844C17.0156 13.7514 17.3836 13.9968 17.6934 14.3066C18.0032 14.6164 18.2486 14.9844 18.4156 15.3894C18.5826 15.7944 18.6679 16.2284 18.6665 16.6665C18.6679 17.1046 18.5826 17.5386 18.4156 17.9437C18.2485 18.3487 18.0031 18.7167 17.6933 19.0265C17.3836 19.3363 17.0156 19.5818 16.6106 19.7489C16.2056 19.9159 15.7716 20.0013 15.3335 20C14.8954 20.0013 14.4613 19.916 14.0563 19.7489C13.6512 19.5819 13.2832 19.3364 12.9734 19.0266C12.6636 18.7168 12.4181 18.3488 12.2511 17.9437C12.084 17.5387 11.9987 17.1046 12 16.6665C11.9987 16.2284 12.0841 15.7944 12.2511 15.3894C12.4182 14.9844 12.6637 14.6164 12.9735 14.3067C13.2833 13.9969 13.6513 13.7515 14.0563 13.5844C14.4614 13.4174 14.8954 13.3321 15.3335 13.3335ZM27.3335 13.3335C27.7716 13.3321 28.2056 13.4174 28.6106 13.5844C29.0156 13.7514 29.3836 13.9968 29.6934 14.3066C30.0032 14.6164 30.2486 14.9844 30.4156 15.3894C30.5826 15.7944 30.6679 16.2284 30.6665 16.6665C30.6679 17.1046 30.5826 17.5386 30.4156 17.9437C30.2485 18.3487 30.0031 18.7167 29.6933 19.0265C29.3836 19.3363 29.0156 19.5818 28.6106 19.7489C28.2056 19.9159 27.7716 20.0013 27.3335 20C26.8954 20.0013 26.4613 19.916 26.0563 19.7489C25.6512 19.5819 25.2832 19.3364 24.9734 19.0266C24.6636 18.7168 24.4181 18.3488 24.2511 17.9437C24.084 17.5387 23.9987 17.1046 24 16.6665C23.9987 16.2284 24.0841 15.7944 24.2511 15.3894C24.4182 14.9844 24.6637 14.6164 24.9735 14.3067C25.2833 13.9969 25.6513 13.7515 26.0563 13.5844C26.4614 13.4174 26.8954 13.3321 27.3335 13.3335ZM16.6915 15.0712C16.6039 15.0712 16.5172 15.0884 16.4362 15.1218C16.3553 15.1553 16.2817 15.2044 16.2197 15.2662L14.6447 16.8398L14.1215 16.3188C13.9963 16.194 13.8266 16.124 13.6498 16.1243C13.473 16.1246 13.3036 16.1951 13.1788 16.3202C13.117 16.3823 13.068 16.4559 13.0346 16.5369C13.0013 16.6178 12.9842 16.7046 12.9844 16.7922C12.9846 16.8797 13.002 16.9664 13.0357 17.0472C13.0694 17.1281 13.1187 17.2015 13.1807 17.2633L14.1742 18.2533C14.2993 18.3778 14.4686 18.4477 14.6451 18.4477C14.8215 18.4477 14.9908 18.3776 15.1158 18.253L17.162 16.2095C17.224 16.1476 17.2731 16.0741 17.3067 15.9933C17.3402 15.9124 17.3575 15.8257 17.3576 15.7381C17.3576 15.6505 17.3404 15.5638 17.3069 15.4829C17.2735 15.402 17.2244 15.3284 17.1625 15.2665C17.0375 15.1417 16.8681 15.0713 16.6915 15.0712ZM28.6915 15.0712C28.6039 15.0712 28.5172 15.0884 28.4362 15.1218C28.3553 15.1553 28.2817 15.2044 28.2197 15.2662L26.6448 16.8398L26.1215 16.3188C25.9963 16.194 25.8266 16.124 25.6498 16.1243C25.473 16.1246 25.3036 16.1951 25.1787 16.3202C25.117 16.3823 25.068 16.4559 25.0346 16.5369C25.0013 16.6178 24.9842 16.7046 24.9844 16.7922C24.9846 16.8797 25.002 16.9664 25.0357 17.0472C25.0694 17.1281 25.1187 17.2015 25.1807 17.2633L26.1742 18.2533C26.2993 18.3778 26.4686 18.4477 26.6451 18.4477C26.8215 18.4477 26.9908 18.3776 27.1157 18.253L29.162 16.2095C29.224 16.1476 29.2731 16.0741 29.3067 15.9933C29.3402 15.9124 29.3575 15.8257 29.3576 15.7381C29.3576 15.6505 29.3404 15.5638 29.3069 15.4829C29.2735 15.402 29.2244 15.3284 29.1625 15.2665C29.0375 15.1417 28.8681 15.0713 28.6915 15.0712ZM15.3335 24C15.7716 23.9987 16.2056 24.0841 16.6106 24.2511C17.0156 24.4182 17.3836 24.6637 17.6933 24.9735C18.0031 25.2833 18.2485 25.6513 18.4156 26.0563C18.5826 26.4614 18.6679 26.8954 18.6665 27.3335C18.6679 27.7716 18.5826 28.2056 18.4156 28.6106C18.2486 29.0156 18.0032 29.3836 17.6934 29.6934C17.3836 30.0032 17.0156 30.2486 16.6106 30.4156C16.2056 30.5826 15.7716 30.6679 15.3335 30.6665C14.8954 30.6679 14.4614 30.5826 14.0563 30.4156C13.6513 30.2485 13.2833 30.0031 12.9735 29.6933C12.6637 29.3836 12.4182 29.0156 12.2511 28.6106C12.0841 28.2056 11.9987 27.7716 12 27.3335C11.9987 26.8954 12.084 26.4613 12.2511 26.0563C12.4181 25.6512 12.6636 25.2832 12.9734 24.9734C13.2832 24.6636 13.6512 24.4181 14.0563 24.2511C14.4613 24.084 14.8954 23.9987 15.3335 24ZM14 26.3335C13.4517 26.3335 13 26.7852 13 27.3335C13 27.8822 13.452 28.3335 14 28.3335C14.548 28.3335 15 27.8822 15 27.3335C15 26.7852 14.5483 26.3335 14 26.3335ZM16.6665 26.3335C16.1182 26.3335 15.6665 26.7852 15.6665 27.3335C15.6665 27.8822 16.1185 28.3335 16.6665 28.3335C17.2145 28.3335 17.6665 27.8822 17.6665 27.3335C17.6665 26.7852 17.2148 26.3335 16.6665 26.3335ZM14 27C14.1875 27 14.3335 27.1462 14.3335 27.3335C14.3335 27.5217 14.1877 27.6665 14 27.6665C13.8125 27.6665 13.6665 27.5215 13.6665 27.3335C13.6665 27.146 13.8127 27 14 27ZM16.6665 27C16.854 27 17 27.1462 17 27.3335C17 27.5217 16.8542 27.6665 16.6665 27.6665C16.479 27.6665 16.3335 27.5215 16.3335 27.3335C16.3335 27.146 16.4792 27 16.6665 27Z" fill="#2088FF"/>
<path d="M27.3335 22.6665C24.9877 22.6665 23.0365 24.4148 22.7142 26.6743C22.6922 26.6722 22.6701 26.6713 22.648 26.6715L21.973 26.694C21.7964 26.6998 21.6292 26.7755 21.5084 26.9045C21.3875 27.0334 21.3228 27.2051 21.3285 27.3818C21.3343 27.5584 21.41 27.7256 21.5391 27.8464C21.6681 27.9673 21.8398 28.032 22.0165 28.0263L22.6915 28.0045C22.6996 28.0042 22.7077 28.0037 22.7157 28.003C23.0425 30.2573 24.9912 32 27.3335 32C29.903 32 32 29.903 32 27.3335C32 24.764 29.903 22.6665 27.3335 22.6665ZM27.3335 24C27.7716 23.9987 28.2056 24.0841 28.6106 24.2511C29.0156 24.4182 29.3836 24.6637 29.6933 24.9735C30.0031 25.2833 30.2485 25.6513 30.4156 26.0563C30.5826 26.4614 30.6679 26.8954 30.6665 27.3335C30.6679 27.7716 30.5826 28.2056 30.4156 28.6106C30.2486 29.0156 30.0032 29.3836 29.6934 29.6934C29.3836 30.0032 29.0156 30.2486 28.6106 30.4156C28.2056 30.5826 27.7716 30.6679 27.3335 30.6665C26.8954 30.6679 26.4614 30.5826 26.0563 30.4156C25.6513 30.2485 25.2833 30.0031 24.9735 29.6933C24.6637 29.3836 24.4182 29.0156 24.2511 28.6106C24.0841 28.2056 23.9987 27.7716 24 27.3335C23.9987 26.8954 24.084 26.4613 24.2511 26.0563C24.4181 25.6512 24.6636 25.2832 24.9734 24.9734C25.2832 24.6636 25.6512 24.4181 26.0563 24.2511C26.4613 24.084 26.8954 23.9987 27.3335 24Z" fill="#79B8FF"/>
</g>
<defs>
<clipPath id="clip0_111_449">
<rect width="32" height="32" fill="white"/>
</clipPath>
</defs>
</svg>
