<svg width="28" height="28" viewBox="0 0 28 28" fill="none" xmlns="http://www.w3.org/2000/svg">
<g clip-path="url(#clip0_261_211)">
<path d="M5.83319 0C2.61844 0 0 2.61844 0 5.83319C0 8.6485 2.00834 11.0068 4.66681 11.5491V19.8332C4.66681 22.4079 6.78431 24.5 9.33319 24.5H9.37584C9.66066 26.4738 11.3665 28 13.4168 28C15.6651 28 17.5 26.1651 17.5 23.9168C17.5 21.6685 15.6651 19.8332 13.4168 19.8332C11.3667 19.8332 9.66088 21.3594 9.37584 23.3332H9.33319C7.42197 23.3332 5.83319 21.7687 5.83319 19.8332V13.9517C6.21071 14.3369 6.66137 14.6428 7.15872 14.8514C7.65607 15.0601 8.19009 15.1673 8.72944 15.1668H9.37584C9.66088 17.1406 11.3665 18.6668 13.4168 18.6668C15.4669 18.6668 17.1725 17.1406 17.4571 15.1668H19.8758C20.1609 17.1406 21.8665 18.6668 23.9168 18.6668C26.1651 18.6668 28 16.8315 28 14.5832C28 12.3349 26.1651 10.5 23.9168 10.5C21.8665 10.5 20.1607 12.0262 19.8758 14H17.4573C17.1728 12.0262 15.4672 10.5 13.4168 10.5C11.3665 10.5 9.66066 12.0262 9.37584 14H8.72944C7.32222 14 6.14972 12.9962 5.88831 11.6655C9.07769 11.6357 11.6668 9.02956 11.6668 5.83319C11.6668 2.61844 9.04794 0 5.83319 0ZM5.83319 1.16681C6.44635 1.1656 7.05371 1.28547 7.62043 1.51954C8.18715 1.75362 8.70208 2.09729 9.13567 2.53084C9.56926 2.96438 9.91297 3.47928 10.1471 4.04598C10.3812 4.61268 10.5012 5.22003 10.5 5.83319C10.5012 6.44637 10.3812 7.05374 10.1471 7.62046C9.91299 8.18719 9.56928 8.70211 9.13569 9.13569C8.70211 9.56928 8.18719 9.91299 7.62046 10.1471C7.05374 10.3812 6.44637 10.5012 5.83319 10.5C5.22003 10.5012 4.61268 10.3812 4.04598 10.1471C3.47928 9.91297 2.96438 9.56926 2.53084 9.13567C2.09729 8.70208 1.75362 8.18715 1.51954 7.62043C1.28547 7.05371 1.1656 6.44635 1.16681 5.83319C1.1656 5.22005 1.28547 4.61271 1.51955 4.04601C1.75363 3.47931 2.09731 2.96442 2.53086 2.53086C2.96442 2.09731 3.47931 1.75363 4.04601 1.51955C4.61271 1.28547 5.22005 1.1656 5.83319 1.16681ZM4.69241 2.81641C4.08406 2.81947 3.5 3.30816 3.5 3.97381V7.70197C3.5 8.58638 4.53009 9.1595 5.28172 8.69356L8.26416 6.84403C8.97662 6.40216 8.98034 5.31234 8.27116 4.86544L5.2885 2.98638C5.11023 2.8737 4.9033 2.81469 4.69241 2.81641ZM4.66681 3.97381L7.64947 5.85244L4.66681 7.70197V3.97381ZM13.4168 11.6668C13.8001 11.6656 14.1799 11.7402 14.5343 11.8863C14.8887 12.0325 15.2107 12.2472 15.4817 12.5183C15.7528 12.7893 15.9675 13.1113 16.1137 13.4657C16.2598 13.8201 16.3344 14.1999 16.3332 14.5832C16.3344 14.9665 16.2597 15.3463 16.1136 15.7007C15.9675 16.0551 15.7527 16.3771 15.4817 16.6482C15.2106 16.9193 14.8887 17.1341 14.5343 17.2803C14.1799 17.4264 13.8001 17.5011 13.4168 17.5C13.0334 17.5012 12.6536 17.4265 12.2992 17.2803C11.9448 17.1341 11.6228 16.9193 11.3517 16.6483C11.0807 16.3772 10.8659 16.0552 10.7197 15.7008C10.5735 15.3464 10.4988 14.9666 10.5 14.5832C10.4989 14.1999 10.5736 13.8201 10.7197 13.4657C10.8659 13.1113 11.0807 12.7894 11.3518 12.5183C11.6229 12.2473 11.9449 12.0325 12.2993 11.8864C12.6537 11.7403 13.0335 11.6656 13.4168 11.6668ZM23.9168 11.6668C24.3001 11.6656 24.6799 11.7402 25.0343 11.8863C25.3887 12.0325 25.7107 12.2472 25.9817 12.5183C26.2528 12.7893 26.4675 13.1113 26.6137 13.4657C26.7598 13.8201 26.8344 14.1999 26.8332 14.5832C26.8344 14.9665 26.7597 15.3463 26.6136 15.7007C26.4675 16.0551 26.2527 16.3771 25.9817 16.6482C25.7106 16.9193 25.3887 17.1341 25.0343 17.2803C24.6799 17.4264 24.3001 17.5011 23.9168 17.5C23.5334 17.5012 23.1536 17.4265 22.7992 17.2803C22.4448 17.1341 22.1228 16.9193 21.8517 16.6483C21.5807 16.3772 21.3659 16.0552 21.2197 15.7008C21.0735 15.3464 20.9988 14.9666 21 14.5832C20.9989 14.1999 21.0736 13.8201 21.2197 13.4657C21.3659 13.1113 21.5807 12.7894 21.8518 12.5183C22.1229 12.2473 22.4449 12.0325 22.7993 11.8864C23.1537 11.7403 23.5335 11.6656 23.9168 11.6668ZM14.6051 13.1873C14.5284 13.1873 14.4525 13.2023 14.3817 13.2316C14.3109 13.2609 14.2465 13.3038 14.1923 13.358L12.8142 14.7348L12.3563 14.2789C12.2467 14.1697 12.0983 14.1085 11.9436 14.1088C11.7889 14.109 11.6406 14.1707 11.5314 14.2802C11.4773 14.3345 11.4345 14.3989 11.4053 14.4698C11.3761 14.5406 11.3612 14.6165 11.3614 14.6931C11.3615 14.7698 11.3768 14.8456 11.4063 14.9163C11.4357 14.9871 11.4789 15.0513 11.5332 15.1053L12.4025 15.9716C12.5119 16.0806 12.66 16.1418 12.8144 16.1417C12.9688 16.1417 13.117 16.0804 13.2263 15.9714L15.0168 14.1833C15.071 14.1292 15.114 14.0649 15.1433 13.9941C15.1727 13.9233 15.1878 13.8475 15.1879 13.7708C15.1879 13.6942 15.1729 13.6183 15.1436 13.5475C15.1143 13.4767 15.0713 13.4124 15.0172 13.3582C14.9078 13.249 14.7596 13.1874 14.6051 13.1873ZM25.1051 13.1873C25.0284 13.1873 24.9525 13.2023 24.8817 13.2316C24.8109 13.2609 24.7465 13.3038 24.6923 13.358L23.3142 14.7348L22.8563 14.2789C22.7467 14.1697 22.5983 14.1085 22.4436 14.1088C22.2889 14.109 22.1406 14.1707 22.0314 14.2802C21.9773 14.3345 21.9345 14.3989 21.9053 14.4698C21.8761 14.5406 21.8612 14.6165 21.8614 14.6931C21.8615 14.7698 21.8768 14.8456 21.9063 14.9163C21.9357 14.9871 21.9789 15.0513 22.0332 15.1053L22.9025 15.9716C23.0119 16.0806 23.16 16.1418 23.3144 16.1417C23.4688 16.1417 23.617 16.0804 23.7263 15.9714L25.5168 14.1833C25.571 14.1292 25.614 14.0649 25.6433 13.9941C25.6727 13.9233 25.6878 13.8475 25.6879 13.7708C25.6879 13.6942 25.6729 13.6183 25.6436 13.5475C25.6143 13.4767 25.5713 13.4124 25.5172 13.3582C25.4078 13.249 25.2596 13.1874 25.1051 13.1873ZM13.4168 21C13.8001 20.9989 14.1799 21.0736 14.5343 21.2197C14.8887 21.3659 15.2106 21.5807 15.4817 21.8518C15.7527 22.1229 15.9675 22.4449 16.1136 22.7993C16.2597 23.1537 16.3344 23.5335 16.3332 23.9168C16.3344 24.3001 16.2598 24.6799 16.1137 25.0343C15.9675 25.3887 15.7528 25.7107 15.4817 25.9817C15.2107 26.2528 14.8887 26.4675 14.5343 26.6137C14.1799 26.7598 13.8001 26.8344 13.4168 26.8332C13.0335 26.8344 12.6537 26.7597 12.2993 26.6136C11.9449 26.4675 11.6229 26.2527 11.3518 25.9817C11.0807 25.7106 10.8659 25.3887 10.7197 25.0343C10.5736 24.6799 10.4989 24.3001 10.5 23.9168C10.4988 23.5334 10.5735 23.1536 10.7197 22.7992C10.8659 22.4448 11.0807 22.1228 11.3517 21.8517C11.6228 21.5807 11.9448 21.3659 12.2992 21.2197C12.6536 21.0735 13.0334 20.9988 13.4168 21ZM12.25 23.0418C11.7703 23.0418 11.375 23.4371 11.375 23.9168C11.375 24.397 11.7705 24.7918 12.25 24.7918C12.7295 24.7918 13.125 24.397 13.125 23.9168C13.125 23.4371 12.7297 23.0418 12.25 23.0418ZM14.5832 23.0418C14.1035 23.0418 13.7082 23.4371 13.7082 23.9168C13.7082 24.397 14.1037 24.7918 14.5832 24.7918C15.0627 24.7918 15.4582 24.397 15.4582 23.9168C15.4582 23.4371 15.0629 23.0418 14.5832 23.0418ZM12.25 23.625C12.4141 23.625 12.5418 23.753 12.5418 23.9168C12.5418 24.0815 12.4143 24.2082 12.25 24.2082C12.0859 24.2082 11.9582 24.0813 11.9582 23.9168C11.9582 23.7528 12.0862 23.625 12.25 23.625ZM14.5832 23.625C14.7472 23.625 14.875 23.753 14.875 23.9168C14.875 24.0815 14.7475 24.2082 14.5832 24.2082C14.4191 24.2082 14.2918 24.0813 14.2918 23.9168C14.2918 23.7528 14.4193 23.625 14.5832 23.625Z" fill="#2088FF"/>
<path d="M23.9168 19.8333C21.8643 19.8333 20.1569 21.363 19.8749 23.34C19.8557 23.3383 19.8363 23.3375 19.817 23.3376L19.2263 23.3573C19.0718 23.3624 18.9256 23.4286 18.8198 23.5415C18.7141 23.6543 18.6575 23.8045 18.6624 23.9591C18.6675 24.1137 18.7338 24.26 18.8466 24.3657C18.9595 24.4715 19.1098 24.528 19.2644 24.523L19.855 24.504C19.8621 24.5037 19.8692 24.5033 19.8763 24.5027C20.1622 26.4752 21.8673 28.0001 23.9168 28.0001C26.1651 28.0001 28 26.1652 28 23.9169C28 21.6686 26.1651 19.8333 23.9168 19.8333ZM23.9168 21.0001C24.3001 20.9989 24.6799 21.0736 25.0343 21.2198C25.3886 21.366 25.7106 21.5808 25.9816 21.8519C26.2527 22.123 26.4674 22.445 26.6136 22.7994C26.7597 23.1538 26.8343 23.5335 26.8332 23.9169C26.8344 24.3002 26.7598 24.68 26.6136 25.0344C26.4675 25.3887 26.2527 25.7107 25.9817 25.9818C25.7106 26.2528 25.3886 26.4676 25.0343 26.6137C24.6799 26.7599 24.3001 26.8345 23.9168 26.8333C23.5334 26.8344 23.1537 26.7598 22.7993 26.6137C22.4449 26.4675 22.1229 26.2528 21.8518 25.9817C21.5807 25.7107 21.3659 25.3887 21.2197 25.0344C21.0735 24.68 20.9988 24.3002 21 23.9169C20.9988 23.5335 21.0735 23.1537 21.2196 22.7993C21.3658 22.4449 21.5806 22.1229 21.8517 21.8518C22.1228 21.5807 22.4448 21.3659 22.7992 21.2197C23.1536 21.0736 23.5334 20.9989 23.9168 21.0001Z" fill="#79B8FF"/>
</g>
<defs>
<clipPath id="clip0_261_211">
<rect width="28" height="28" fill="white"/>
</clipPath>
</defs>
</svg>
