<svg width="32" height="32" viewBox="0 0 32 32" fill="none" xmlns="http://www.w3.org/2000/svg">
<g clip-path="url(#clip0_114_67)">
<path d="M19.9147 3.316V9.33867L26.6827 26.72C26.6827 26.72 28.7493 30.9653 22.84 32H9.36C9.36 32 3.85067 31.4253 5.172 27.064L12.284 9.33867V3.316H19.9147ZM22.7013 20.7933C16.7947 18.9613 11.828 19.944 9.40133 20.688L6.95333 26.58C5.90933 29.912 9.984 30.5013 10.416 30.5533L10.4533 30.5587H21.712C26.432 29.7613 25.06 26.596 24.932 26.3227L24.9227 26.304L22.7013 20.7933ZM12.2827 21.8293C13.336 21.8293 14.1893 22.344 14.1893 22.9827C14.1893 23.6173 13.336 24.1347 12.2827 24.1347C11.232 24.1347 10.38 23.6173 10.38 22.9827C10.38 22.344 11.232 21.8293 12.2827 21.8293ZM19.0613 21.8293C20.1107 21.8293 20.964 22.344 20.964 22.9827C20.964 23.6173 20.1107 24.1347 19.0613 24.1347C18.008 24.1347 17.156 23.6173 17.156 22.9827C17.156 22.344 18.0067 21.8293 19.0627 21.8293M13.0627 14.8787C12.3267 14.8787 11.7293 15.5987 11.7293 16.4853C11.7293 17.3733 12.3267 18.092 13.0627 18.092C13.7987 18.092 14.396 17.372 14.396 16.4853C14.396 15.5973 13.7987 14.8787 13.0627 14.8787ZM17.9173 13.1493C17.044 13.1493 16.336 14 16.336 15.056C16.336 16.104 17.044 16.9573 17.9173 16.9573C18.788 16.9573 19.5 16.104 19.5 15.0547C19.5 14.0013 18.7893 13.1493 17.9173 13.1493ZM25.9667 9.49867C25.9667 9.49867 23.1373 11.56 20.5187 8.93867V6.07467C20.5187 6.07467 24.1507 5.27467 25.9667 9.49867ZM6.17467 9.49867C7.988 5.27467 11.6213 6.07467 11.6213 6.07467V8.93867C9.00133 11.56 6.17467 9.49867 6.17467 9.49867ZM20.0587 0C20.7187 0 21.252 0.585333 21.252 1.308C21.252 2.03067 20.7187 2.61467 20.0587 2.61467H11.9387C11.2827 2.61467 10.7467 2.03067 10.7467 1.308C10.7467 0.585333 11.2827 0 11.94 0H20.0587Z" fill="#009989"/>
</g>
<defs>
<clipPath id="clip0_114_67">
<rect width="32" height="32" fill="white"/>
</clipPath>
</defs>
</svg>
