<svg width="28" height="28" viewBox="0 0 28 28" fill="none" xmlns="http://www.w3.org/2000/svg">
<g clip-path="url(#clip0_262_427)">
<path d="M17.4253 2.9015V8.17133L23.3473 23.38C23.3473 23.38 25.1557 27.0947 19.985 28H8.19001C8.19001 28 3.36934 27.4972 4.52551 23.681L10.7485 8.17133V2.9015H17.4253ZM19.8637 18.1942C14.6953 16.5912 10.3495 17.451 8.22617 18.102L6.08417 23.2575C5.17067 26.173 8.73601 26.6887 9.11401 26.7342L9.14667 26.7388H18.998C23.128 26.0412 21.9275 23.2715 21.8155 23.0323L21.8073 23.016L19.8637 18.1942ZM10.7473 19.1007C11.669 19.1007 12.4157 19.551 12.4157 20.1098C12.4157 20.6652 11.669 21.1178 10.7473 21.1178C9.82801 21.1178 9.08251 20.6652 9.08251 20.1098C9.08251 19.551 9.82801 19.1007 10.7473 19.1007ZM16.6787 19.1007C17.5968 19.1007 18.3435 19.551 18.3435 20.1098C18.3435 20.6652 17.5968 21.1178 16.6787 21.1178C15.757 21.1178 15.0115 20.6652 15.0115 20.1098C15.0115 19.551 15.7558 19.1007 16.6798 19.1007M11.4298 13.0188C10.7858 13.0188 10.2632 13.6488 10.2632 14.4247C10.2632 15.2017 10.7858 15.8305 11.4298 15.8305C12.0738 15.8305 12.5965 15.2005 12.5965 14.4247C12.5965 13.6477 12.0738 13.0188 11.4298 13.0188ZM15.6777 11.5057C14.9135 11.5057 14.294 12.25 14.294 13.174C14.294 14.091 14.9135 14.8377 15.6777 14.8377C16.4395 14.8377 17.0625 14.091 17.0625 13.1728C17.0625 12.2512 16.4407 11.5057 15.6777 11.5057ZM22.7208 8.31133C22.7208 8.31133 20.2452 10.115 17.9538 7.82133V5.31533C17.9538 5.31533 21.1318 4.61533 22.7208 8.31133ZM5.40284 8.31133C6.98951 4.61533 10.1687 5.31533 10.1687 5.31533V7.82133C7.87617 10.115 5.40284 8.31133 5.40284 8.31133ZM17.5513 0C18.1288 0 18.5955 0.512167 18.5955 1.1445C18.5955 1.77683 18.1288 2.28783 17.5513 2.28783H10.4463C9.87234 2.28783 9.40334 1.77683 9.40334 1.1445C9.40334 0.512167 9.87234 0 10.4475 0H17.5513Z" fill="#009989"/>
</g>
<defs>
<clipPath id="clip0_262_427">
<rect width="28" height="28" fill="white"/>
</clipPath>
</defs>
</svg>
