<svg width="28" height="28" viewBox="0 0 28 28" fill="none" xmlns="http://www.w3.org/2000/svg">
<g clip-path="url(#clip0_262_438)">
<path d="M21.4375 0H6.5625C2.93813 0 0 2.93813 0 6.5625V21.4375C0 25.0619 2.93813 28 6.5625 28H21.4375C25.0619 28 28 25.0619 28 21.4375V6.5625C28 2.93813 25.0619 0 21.4375 0Z" fill="#99424F"/>
<path d="M23.3355 13.8354C23.3355 12.518 22.4299 11.4097 21.214 11.093L23.9372 3.0625H10.4411L13.1707 11.1184C11.9927 11.4604 11.1251 12.5497 11.1251 13.8416C11.1251 14.7917 11.6 15.634 12.322 16.1533C12.0371 16.5586 11.7077 16.9323 11.334 17.2869C10.6311 17.9456 9.85209 18.4522 9.00979 18.7879C8.24975 18.2749 7.92042 17.3693 8.21814 16.5586C9.37708 16.204 10.2194 15.121 10.2194 13.848C10.2194 12.2837 8.94647 11.017 7.38842 11.017C5.82414 11.017 4.55123 12.29 4.55123 13.8543C4.55123 14.6269 4.86787 15.3363 5.3745 15.843C5.3302 15.9317 5.2859 16.0203 5.2415 16.1153C4.81712 16.9893 4.33587 17.9773 4.15212 19.0856C3.78484 21.3022 4.38651 23.0818 5.83683 24.0889C6.65386 24.6525 7.55314 24.9375 8.52209 24.9375C10.1878 24.9375 11.8787 24.1015 13.5127 23.2909C14.678 22.7146 15.8813 22.1129 17.0656 21.8215C17.5027 21.7139 17.9586 21.6506 18.44 21.5809C19.4153 21.4415 20.4223 21.2959 21.3279 20.7702C22.3856 20.156 23.1076 19.1299 23.3166 17.9519C23.4749 17.0463 23.3166 16.1343 22.9112 15.3363C23.1836 14.8993 23.3355 14.3863 23.3355 13.8354ZM22.1006 13.8354C22.1006 14.7156 21.3849 15.4313 20.5046 15.4313C19.6243 15.4313 18.9087 14.7156 18.9087 13.8354C18.9087 13.5504 18.9846 13.278 19.1176 13.0437C19.1694 12.9544 19.2288 12.8696 19.295 12.7903C19.3583 12.7144 19.4343 12.6447 19.5166 12.5814L19.5229 12.5751C19.5736 12.537 19.6307 12.499 19.6876 12.461C19.6876 12.461 19.694 12.461 19.694 12.4546C19.7192 12.4421 19.7446 12.423 19.7699 12.4103C19.7762 12.4103 19.7826 12.404 19.7889 12.404C19.8143 12.3913 19.8459 12.3787 19.8776 12.366C19.9092 12.3534 19.941 12.3407 19.9662 12.328C19.9726 12.328 19.9789 12.3216 19.9852 12.3216C20.0106 12.3154 20.0359 12.3027 20.0613 12.2964C20.0676 12.2964 20.0803 12.29 20.0866 12.29C20.1182 12.2837 20.1436 12.2773 20.1752 12.271H20.1816L20.2766 12.2521C20.283 12.2521 20.2955 12.2521 20.3019 12.2457C20.3273 12.2457 20.3526 12.2394 20.3779 12.2394H20.4096C20.4412 12.2394 20.473 12.233 20.5109 12.233H20.5933C20.6186 12.233 20.6376 12.233 20.6629 12.2394H20.6756C20.7263 12.2457 20.7769 12.2521 20.8275 12.2647C21.5495 12.4167 22.1006 13.0627 22.1006 13.8354ZM12.208 4.32917H22.1702L19.884 11.074C19.7889 11.093 19.694 11.1247 19.5989 11.1564L17.1924 6.24816L14.7793 11.1247C14.6844 11.093 14.583 11.074 14.4817 11.0551L12.208 4.32917ZM16.7363 13.2844C16.616 12.689 16.312 12.157 15.8813 11.7644L17.1924 9.11706L18.5159 11.8214C18.1232 12.214 17.8383 12.7144 17.7242 13.2844H16.7363ZM13.5634 12.2837C13.595 12.2773 13.6204 12.271 13.652 12.2647H13.671C13.6964 12.2583 13.7217 12.2583 13.747 12.2521H13.7723C13.7977 12.2521 13.8167 12.2457 13.842 12.2457H14.0891C14.1143 12.2457 14.1334 12.2521 14.1524 12.2521C14.1651 12.2521 14.1713 12.2521 14.184 12.2583C14.2094 12.2647 14.2284 12.2647 14.2537 12.271C14.26 12.271 14.2664 12.271 14.279 12.2773C14.3107 12.2837 14.3424 12.29 14.3676 12.2964H14.374C14.3994 12.3027 14.4247 12.3091 14.45 12.3216C14.4563 12.3216 14.4627 12.328 14.4754 12.328C14.4944 12.3343 14.5197 12.3407 14.5387 12.3534C14.545 12.3534 14.5514 12.3597 14.5577 12.3597C14.583 12.3724 14.6084 12.3787 14.6336 12.3913H14.64C14.6717 12.404 14.697 12.4167 14.7223 12.4357H14.7287C14.7541 12.4484 14.7793 12.4673 14.8047 12.48C14.811 12.48 14.811 12.4864 14.8174 12.4864C14.8427 12.499 14.8617 12.518 14.8871 12.5307L14.8933 12.537C14.9693 12.594 15.039 12.6573 15.1087 12.7206L15.115 12.727C15.1783 12.7967 15.2417 12.8727 15.2923 12.955C15.4622 13.2148 15.5525 13.5186 15.5519 13.829C15.5519 14.7093 14.8363 15.4249 13.9561 15.4249C13.0757 15.4249 12.3601 14.7093 12.3601 13.829C12.3537 13.088 12.8667 12.461 13.5634 12.2837ZM7.33143 12.2394C8.21179 12.2394 8.92743 12.955 8.92743 13.8354C8.92743 14.7156 8.21179 15.4313 7.33143 15.4313C6.45118 15.4313 5.73543 14.7156 5.73543 13.8354C5.73543 12.955 6.45118 12.2394 7.33143 12.2394ZM22.0626 17.7302C21.9233 18.5409 21.4229 19.2502 20.6882 19.6746C19.9979 20.0736 19.1493 20.2002 18.2562 20.3269C17.7687 20.3966 17.2557 20.4726 16.7616 20.5929C15.4443 20.9159 14.1777 21.5492 12.949 22.1572C11.3784 22.9362 9.89639 23.6708 8.52209 23.6708C7.80645 23.6708 7.16682 23.4682 6.55881 23.0439C5.16548 22.0812 5.23515 20.2763 5.39987 19.2883C5.5519 18.3636 5.97617 17.496 6.38151 16.6663C6.40678 16.6156 6.42581 16.5713 6.45118 16.5207C6.59304 16.5719 6.73931 16.6101 6.88814 16.6346C6.64751 17.9773 7.33143 19.3643 8.66143 20.0482L8.90206 20.1749L9.16172 20.0799C10.2701 19.6873 11.2961 19.0475 12.2017 18.1926C12.7148 17.7113 13.1517 17.192 13.519 16.6283C13.6647 16.6537 13.8104 16.66 13.9561 16.66C15.2734 16.66 16.3817 15.7543 16.6983 14.5383H17.7623C18.0789 15.7606 19.1872 16.66 20.5046 16.66C21.0302 16.66 21.5179 16.5143 21.936 16.2673C22.1006 16.7422 22.1512 17.2363 22.0626 17.7302Z" fill="white"/>
</g>
<defs>
<clipPath id="clip0_262_438">
<rect width="28" height="28" fill="white"/>
</clipPath>
</defs>
</svg>
