<svg width="32" height="32" viewBox="0 0 32 32" fill="none" xmlns="http://www.w3.org/2000/svg">
<g clip-path="url(#clip0_111_254)">
<path d="M24.5 0H7.5C3.35786 0 0 3.35786 0 7.5V24.5C0 28.6421 3.35786 32 7.5 32H24.5C28.6421 32 32 28.6421 32 24.5V7.5C32 3.35786 28.6421 0 24.5 0Z" fill="#99424F"/>
<path d="M26.6691 15.8119C26.6691 14.3063 25.6341 13.0396 24.2445 12.6777L27.3568 3.5H11.9326L15.0523 12.7067C13.7059 13.0976 12.7144 14.3425 12.7144 15.819C12.7144 16.9047 13.2571 17.8674 14.0823 18.4609C13.7566 18.9241 13.3803 19.3513 12.9531 19.7565C12.1498 20.5093 11.2595 21.0882 10.2969 21.4719C9.42825 20.8856 9.05188 19.8506 9.39213 18.9241C10.7166 18.5189 11.6793 17.2811 11.6793 15.8263C11.6793 14.0385 10.2245 12.5909 8.44388 12.5909C6.65613 12.5909 5.20138 14.0457 5.20138 15.8335C5.20138 16.7165 5.56325 17.5273 6.14225 18.1063C6.09163 18.2076 6.041 18.3089 5.99025 18.4175C5.50525 19.4164 4.95525 20.5455 4.74525 21.8121C4.3255 24.3454 5.01313 26.3792 6.67063 27.5301C7.60438 28.1742 8.63213 28.5 9.7395 28.5C11.6431 28.5 13.5756 27.5446 15.443 26.6181C16.7749 25.9595 18.15 25.2719 19.5035 24.9389C20.003 24.8159 20.5241 24.7435 21.0743 24.6639C22.1889 24.5046 23.3398 24.3381 24.3748 23.7374C25.5835 23.0354 26.4086 21.8628 26.6475 20.5165C26.8284 19.4815 26.6475 18.4392 26.1843 17.5273C26.4955 17.0278 26.6691 16.4415 26.6691 15.8119ZM25.2578 15.8119C25.2578 16.8179 24.4399 17.6357 23.4338 17.6357C22.4278 17.6357 21.6099 16.8179 21.6099 15.8119C21.6099 15.4861 21.6966 15.1749 21.8486 14.9071C21.9079 14.805 21.9757 14.7081 22.0514 14.6175C22.1238 14.5308 22.2106 14.4511 22.3046 14.3787L22.3119 14.3715C22.3698 14.328 22.435 14.2846 22.5001 14.2411C22.5001 14.2411 22.5074 14.2411 22.5074 14.2339C22.5363 14.2195 22.5653 14.1978 22.5941 14.1833C22.6014 14.1833 22.6086 14.176 22.6159 14.176C22.6449 14.1615 22.681 14.1471 22.7173 14.1326C22.7534 14.1181 22.7896 14.1036 22.8185 14.0891C22.8258 14.0891 22.833 14.0819 22.8403 14.0819C22.8693 14.0747 22.8981 14.0603 22.9271 14.053C22.9344 14.053 22.9489 14.0457 22.9561 14.0457C22.9923 14.0385 23.0213 14.0312 23.0574 14.024H23.0646L23.1733 14.0024C23.1805 14.0024 23.1949 14.0024 23.2021 13.9951C23.2311 13.9951 23.2601 13.9879 23.289 13.9879H23.3253C23.3614 13.9879 23.3976 13.9806 23.441 13.9806H23.5351C23.5641 13.9806 23.5858 13.9806 23.6148 13.9879H23.6293C23.6871 13.9951 23.745 14.0024 23.8029 14.0168C24.628 14.1905 25.2578 14.9288 25.2578 15.8119ZM13.952 4.94763H25.3374L22.7245 12.656C22.6159 12.6778 22.5074 12.714 22.3988 12.7501L19.6484 7.14075L16.8906 12.714C16.7821 12.6777 16.6663 12.656 16.5505 12.6344L13.952 4.94763ZM19.1271 15.1821C18.9896 14.5017 18.6423 13.8937 18.15 13.445L19.6484 10.4195L21.161 13.5101C20.7123 13.9589 20.3866 14.5308 20.2563 15.1821H19.1271ZM15.501 14.0385C15.5371 14.0312 15.5661 14.024 15.6023 14.0168H15.624C15.653 14.0095 15.6819 14.0095 15.7109 14.0024H15.7398C15.7688 14.0024 15.7905 13.9951 15.8194 13.9951H16.1018C16.1306 13.9951 16.1524 14.0024 16.1741 14.0024C16.1886 14.0024 16.1958 14.0024 16.2103 14.0095C16.2393 14.0167 16.261 14.0168 16.2899 14.024C16.2971 14.024 16.3044 14.024 16.3189 14.0312C16.355 14.0385 16.3913 14.0458 16.4201 14.053H16.4274C16.4564 14.0603 16.4854 14.0675 16.5143 14.0819C16.5215 14.0819 16.5288 14.0891 16.5433 14.0891C16.565 14.0964 16.5939 14.1036 16.6156 14.1181C16.6229 14.1181 16.6301 14.1254 16.6374 14.1254C16.6663 14.1399 16.6953 14.1471 16.7241 14.1615H16.7314C16.7676 14.176 16.7965 14.1905 16.8255 14.2122H16.8328C16.8618 14.2267 16.8906 14.2484 16.9196 14.2629C16.9269 14.2629 16.9269 14.2701 16.9341 14.2701C16.963 14.2846 16.9848 14.3063 17.0138 14.3208L17.0209 14.328C17.1078 14.3931 17.1874 14.4655 17.267 14.5379L17.2743 14.5451C17.3466 14.6248 17.419 14.7116 17.4769 14.8057C17.6711 15.1026 17.7742 15.4499 17.7736 15.8046C17.7736 16.8106 16.9558 17.6285 15.9498 17.6285C14.9436 17.6285 14.1258 16.8106 14.1258 15.8046C14.1185 14.9577 14.7048 14.2411 15.501 14.0385ZM8.37875 13.9879C9.38488 13.9879 10.2028 14.8057 10.2028 15.8119C10.2028 16.8179 9.38488 17.6357 8.37875 17.6357C7.37275 17.6357 6.55475 16.8179 6.55475 15.8119C6.55475 14.8057 7.37275 13.9879 8.37875 13.9879ZM25.2144 20.2631C25.0551 21.1896 24.4833 22.0002 23.6436 22.4853C22.8548 22.9412 21.8849 23.086 20.8643 23.2307C20.307 23.3104 19.7208 23.3972 19.1561 23.5347C17.6506 23.9039 16.203 24.6276 14.7989 25.3225C13.0039 26.2127 11.3101 27.0524 9.7395 27.0524C8.92163 27.0524 8.19063 26.8207 7.49575 26.3359C5.90338 25.2356 5.983 23.1729 6.17125 22.0438C6.345 20.987 6.82988 19.9954 7.29313 19.0473C7.322 18.9893 7.34375 18.9386 7.37275 18.8808C7.53487 18.9394 7.70203 18.983 7.87213 19.011C7.59713 20.5455 8.37875 22.1306 9.89875 22.9123L10.1738 23.057L10.4705 22.9485C11.7373 22.4998 12.9098 21.7686 13.9448 20.7915C14.5311 20.2415 15.0305 19.648 15.4503 19.0037C15.6168 19.0328 15.7833 19.04 15.9498 19.04C17.4553 19.04 18.7219 18.0049 19.0838 16.6152H20.2998C20.6616 18.0121 21.9283 19.04 23.4338 19.04C24.0345 19.04 24.5919 18.8735 25.0696 18.5912C25.2578 19.134 25.3156 19.6986 25.2144 20.2631Z" fill="white"/>
</g>
<defs>
<clipPath id="clip0_111_254">
<rect width="32" height="32" fill="white"/>
</clipPath>
</defs>
</svg>
