<svg width="32" height="32" viewBox="0 0 32 32" fill="none" xmlns="http://www.w3.org/2000/svg">
<g clip-path="url(#clip0_111_244)">
<path d="M18.4232 8.60028L18.3911 0H13.5768L13.6089 8.60028L16.016 11.8934L18.4232 8.60028ZM13.6089 23.3391V31.9714H18.4232V23.3391L16.016 20.0461L13.6089 23.3391Z" fill="white"/>
<path d="M18.4232 23.3392L23.4945 30.309L27.3781 27.4955L22.3069 20.5258L18.4232 19.2788V23.3392ZM13.6089 8.60039L8.50552 1.63062L4.6219 4.44412L9.69314 11.4139L13.6089 12.6608V8.60039Z" fill="#00F2E6"/>
<path d="M9.69315 11.4139L1.47642 8.76025L4.57764e-05 13.3001L8.21665 15.9858L12.1003 14.7069L9.69315 11.4139ZM19.8998 17.2327L22.3069 20.5258L30.5236 23.1793L32 18.6394L23.7834 15.9858L19.8998 17.2327Z" fill="#00B9F1"/>
<path d="M23.7834 15.9858L32 13.3001L30.5236 8.76025L22.3069 11.4139L19.8998 14.7069L23.7834 15.9858ZM8.21665 15.9858L4.57764e-05 18.6394L1.47642 23.1793L9.69315 20.5258L12.1003 17.2327L8.21665 15.9858Z" fill="#D63AFF"/>
<path d="M9.69314 20.5258L4.6219 27.4955L8.50552 30.309L13.6089 23.3392V19.2788L9.69314 20.5258ZM22.3069 11.4139L27.3781 4.44412L23.4945 1.63062L18.4232 8.60039V12.6608L22.3069 11.4139Z" fill="#FB015B"/>
</g>
<defs>
<clipPath id="clip0_111_244">
<rect width="32" height="32" fill="white"/>
</clipPath>
</defs>
</svg>
