<svg width="28" height="28" viewBox="0 0 28 28" fill="none" xmlns="http://www.w3.org/2000/svg">
<g clip-path="url(#clip0_140_358)">
<path d="M16.1203 7.52524L16.0922 0H11.8796L11.9077 7.52524L14.014 10.4067L16.1203 7.52524ZM11.9077 20.4217V27.9749H16.1203V20.4217L14.014 17.5403L11.9077 20.4217Z" fill="white"/>
<path d="M16.1204 20.4218L20.5577 26.5203L23.9559 24.0585L19.5185 17.96L16.1204 16.8689V20.4218ZM11.9078 7.52531L7.44235 1.42676L4.04419 3.88858L8.48152 9.98713L11.9078 11.0782V7.52531Z" fill="#00F2E6"/>
<path d="M8.48153 9.98697L1.29189 7.66504L6.10352e-05 11.6374L7.18959 13.9874L10.5878 12.8684L8.48153 9.98697ZM17.4123 15.0784L19.5185 17.9599L26.7082 20.2817L28 16.3093L20.8105 13.9874L17.4123 15.0784Z" fill="#00B9F1"/>
<path d="M20.8105 13.9874L28 11.6374L26.7082 7.66504L19.5185 9.98697L17.4123 12.8684L20.8105 13.9874ZM7.18959 13.9874L6.10352e-05 16.3093L1.29189 20.2817L8.48153 17.9599L10.5878 15.0784L7.18959 13.9874Z" fill="#D63AFF"/>
<path d="M8.48152 17.96L4.04419 24.0585L7.44235 26.5203L11.9078 20.4218V16.8689L8.48152 17.96ZM19.5185 9.98713L23.9559 3.88858L20.5577 1.42676L16.1204 7.52531V11.0782L19.5185 9.98713Z" fill="#FB015B"/>
</g>
<defs>
<clipPath id="clip0_140_358">
<rect width="28" height="28" fill="white"/>
</clipPath>
</defs>
</svg>
