<svg width="32" height="32" viewBox="0 0 32 32" fill="none" xmlns="http://www.w3.org/2000/svg">
<g clip-path="url(#clip0_144_302)">
<path d="M7.16133 23.4761L4.44667 25.0867C4.38094 25.1239 4.32626 25.1779 4.28822 25.2431C4.25018 25.3084 4.23013 25.3825 4.23013 25.4581C4.23013 25.5336 4.25018 25.6077 4.28822 25.673C4.32626 25.7382 4.38094 25.7922 4.44667 25.8294L14.9933 31.7387C15.3011 31.9104 15.6476 32.0005 16 32.0005C16.3524 32.0005 16.6989 31.9104 17.0067 31.7387L27.692 25.7507C28.016 25.5587 27.9627 25.1694 27.692 25.0374L24.8213 23.4867C24.5787 23.3267 24.0387 23.3801 23.848 23.5094L17.0067 27.3427C16.6989 27.5144 16.3524 27.6045 16 27.6045C15.6476 27.6045 15.3011 27.5144 14.9933 27.3427L8.092 23.4761C7.83467 23.3174 7.42667 23.3267 7.16133 23.4761ZM14.9933 0.262724C15.3011 0.0910794 15.6476 0.000976562 16 0.000976562C16.3524 0.000976562 16.6989 0.0910794 17.0067 0.262724L25.5 5.02006C25.8387 5.19206 25.8693 5.65206 25.5 5.86006L23.5667 6.94006C23.2084 7.1396 22.8049 7.24401 22.3948 7.24331C21.9847 7.24261 21.5816 7.13683 21.224 6.93606L17.0067 4.57339C16.6989 4.40175 16.3524 4.31164 16 4.31164C15.6476 4.31164 15.3011 4.40175 14.9933 4.57339L10.7707 6.93872C10.4129 7.13929 10.0098 7.24484 9.59968 7.24531C9.18957 7.24577 8.78618 7.14114 8.428 6.94139L6.428 5.82672C6.11333 5.69339 6.048 5.29206 6.428 5.06139L14.9933 0.262724ZM29.292 7.42406C29.9147 7.77339 30.2987 8.41872 30.2987 9.11739V22.8841C30.2987 23.5641 29.872 23.6921 29.4173 23.4547L26.2707 21.7574V12.5014L17.0067 17.6921C16.6989 17.8637 16.3524 17.9538 16 17.9538C15.6476 17.9538 15.3011 17.8637 14.9933 17.6921L5.728 12.5014V21.7547L2.87067 23.4534C2.52933 23.6707 1.70133 23.7387 1.70133 22.8854V9.11739C1.70133 8.41872 2.08533 7.77339 2.708 7.42406C3.71067 6.90006 4.74667 7.42406 4.74667 7.42406L16 13.7441L27.236 7.42406C27.236 7.42406 28.2347 6.82406 29.292 7.42406Z" fill="#F2F2F2"/>
</g>
<defs>
<clipPath id="clip0_144_302">
<rect width="32" height="32" fill="white"/>
</clipPath>
</defs>
</svg>
