<svg width="28" height="28" viewBox="0 0 28 28" fill="none" xmlns="http://www.w3.org/2000/svg">
<g clip-path="url(#clip0_144_302)">
<path d="M6.26618 20.5417L3.89084 21.951C3.83333 21.9836 3.78549 22.0308 3.7522 22.0879C3.71892 22.1449 3.70138 22.2098 3.70138 22.2759C3.70138 22.342 3.71892 22.4069 3.7522 22.464C3.78549 22.5211 3.83333 22.5683 3.89084 22.6008L13.1192 27.7715C13.3885 27.9217 13.6917 28.0005 14 28.0005C14.3083 28.0005 14.6116 27.9217 14.8808 27.7715L24.2305 22.532C24.514 22.364 24.4673 22.0233 24.2305 21.9078L21.7187 20.551C21.5063 20.411 21.0338 20.4577 20.867 20.5708L14.8808 23.925C14.6116 24.0752 14.3083 24.154 14 24.154C13.6917 24.154 13.3885 24.0752 13.1192 23.925L7.08051 20.5417C6.85534 20.4028 6.49834 20.411 6.26618 20.5417ZM13.1192 0.230006C13.3885 0.0798165 13.6917 0.000976562 14 0.000976562C14.3083 0.000976562 14.6116 0.0798165 14.8808 0.230006L22.3125 4.39267C22.6088 4.54317 22.6357 4.94567 22.3125 5.12767L20.6208 6.07267C20.3073 6.24728 19.9543 6.33863 19.5955 6.33802C19.2366 6.3374 18.8839 6.24484 18.571 6.06917L14.8808 4.00184C14.6116 3.85165 14.3083 3.77281 14 3.77281C13.6917 3.77281 13.3885 3.85165 13.1192 4.00184L9.42434 6.07151C9.11134 6.247 8.75858 6.33936 8.39973 6.33977C8.04088 6.34017 7.68792 6.24862 7.37451 6.07384L5.62451 5.09851C5.34918 4.98184 5.29201 4.63067 5.62451 4.42884L13.1192 0.230006ZM25.6305 6.49617C26.1753 6.80184 26.5113 7.36651 26.5113 7.97784V20.0237C26.5113 20.6187 26.138 20.7307 25.7402 20.523L22.9868 19.0378V10.9388L14.8808 15.4807C14.6116 15.6309 14.3083 15.7097 14 15.7097C13.6917 15.7097 13.3885 15.6309 13.1192 15.4807L5.01201 10.9388V19.0355L2.51184 20.5218C2.21318 20.712 1.48868 20.7715 1.48868 20.0248V7.97784C1.48868 7.36651 1.82468 6.80184 2.36951 6.49617C3.24684 6.03767 4.15334 6.49617 4.15334 6.49617L14 12.0262L23.8315 6.49617C23.8315 6.49617 24.7053 5.97117 25.6305 6.49617Z" fill="#F2F2F2"/>
</g>
<defs>
<clipPath id="clip0_144_302">
<rect width="28" height="28" fill="white"/>
</clipPath>
</defs>
</svg>
