<svg width="32" height="32" viewBox="0 0 32 32" fill="none" xmlns="http://www.w3.org/2000/svg">
<g clip-path="url(#clip0_111_199)">
<path d="M16 32C24.8366 32 32 24.8366 32 16C32 7.16344 24.8366 0 16 0C7.16344 0 0 7.16344 0 16C0 24.8366 7.16344 32 16 32Z" fill="black"/>
<path d="M26.5792 28.0035L12.2917 9.59998H9.6V22.3947H11.7535V12.3347L24.8885 29.3057C25.4803 28.9096 26.0452 28.4746 26.5792 28.0035Z" fill="url(#paint0_linear_111_199)"/>
<path d="M20.4445 9.59998H22.5777V22.4H20.4445V9.59998Z" fill="url(#paint1_linear_111_199)"/>
</g>
<defs>
<linearGradient id="paint0_linear_111_199" x1="19.3777" y1="20.7111" x2="25.6888" y2="28.5333" gradientUnits="userSpaceOnUse">
<stop stop-color="white"/>
<stop offset="1" stop-color="white" stop-opacity="0"/>
</linearGradient>
<linearGradient id="paint1_linear_111_199" x1="21.5111" y1="9.59996" x2="21.4753" y2="18.9999" gradientUnits="userSpaceOnUse">
<stop stop-color="white"/>
<stop offset="1" stop-color="white" stop-opacity="0"/>
</linearGradient>
<clipPath id="clip0_111_199">
<rect width="32" height="32" fill="white"/>
</clipPath>
</defs>
</svg>
