<svg width="28" height="28" viewBox="0 0 28 28" fill="none" xmlns="http://www.w3.org/2000/svg">
<path d="M14 26.2501C13.6695 26.2503 13.3447 26.1634 13.0585 25.9981L10.0625 24.2245C9.61535 23.9743 9.83322 23.8859 9.9811 23.8343C10.4566 23.6874 10.912 23.4816 11.3365 23.2218C11.372 23.2053 11.4111 23.1982 11.4502 23.2011C11.4892 23.2041 11.5269 23.2169 11.5596 23.2384L13.8617 24.606C13.9046 24.6287 13.9523 24.6406 14.0008 24.6406C14.0493 24.6406 14.0971 24.6287 14.14 24.606L23.1175 19.4243C23.1595 19.3991 23.1942 19.3634 23.2183 19.3208C23.2424 19.2782 23.255 19.23 23.2548 19.181V8.81577C23.2549 8.76602 23.2421 8.71711 23.2177 8.67374C23.1934 8.63036 23.1582 8.594 23.1157 8.56815L14.1382 3.39077C14.0959 3.36693 14.0481 3.35441 13.9995 3.35441C13.9509 3.35441 13.9032 3.36693 13.8608 3.39077L4.8886 8.5699C4.8458 8.59521 4.81026 8.63114 4.78543 8.67422C4.7606 8.71729 4.74731 8.76605 4.74685 8.81577V19.1766C4.74697 19.2255 4.76008 19.2735 4.78483 19.3156C4.80959 19.3577 4.8451 19.3925 4.88772 19.4164L7.34997 20.8374C8.68435 21.5041 9.5016 20.7184 9.5016 19.9291V9.69952C9.5016 9.6299 9.52925 9.56314 9.57848 9.51391C9.62771 9.46468 9.69448 9.43702 9.7641 9.43702H10.9016C10.9712 9.43702 11.038 9.46468 11.0872 9.51391C11.1364 9.56314 11.1641 9.6299 11.1641 9.69952V19.93C11.1641 21.7106 10.1946 22.73 8.50585 22.73C7.7773 22.7427 7.06018 22.5479 6.43822 22.1683L4.07835 20.8146C3.79186 20.6478 3.55415 20.4088 3.38894 20.1213C3.22373 19.8339 3.13681 19.5082 3.13685 19.1766V8.81577C3.136 8.48374 3.22255 8.15732 3.38782 7.86934C3.55308 7.58135 3.79124 7.34193 4.07835 7.17515L13.0567 1.99165C13.3459 1.83342 13.6703 1.75049 14 1.75049C14.3296 1.75049 14.654 1.83342 14.9432 1.99165L23.9207 7.17515C24.2072 7.34165 24.4449 7.58038 24.6103 7.86749C24.7757 8.15461 24.8628 8.48007 24.8631 8.8114V19.1766C24.8626 19.5082 24.7754 19.8338 24.61 20.1211C24.4447 20.4085 24.2071 20.6476 23.9207 20.8146L14.9432 25.9981C14.6564 26.1636 14.3311 26.2505 14 26.2501Z" fill="#83CD29"/>
<path d="M12.2972 15.7089C12.2972 15.6392 12.3249 15.5725 12.3741 15.5232C12.4234 15.474 12.4901 15.4464 12.5597 15.4464H13.7209C13.7829 15.4466 13.8429 15.4687 13.8901 15.5089C13.9374 15.5491 13.9689 15.6048 13.979 15.666C14.154 16.8481 14.679 17.444 17.0529 17.444C18.9437 17.444 19.7496 17.0161 19.7496 16.0125C19.7496 15.4341 19.5212 15.0045 16.5821 14.7166C14.1251 14.4734 12.6061 13.9291 12.6061 11.9656C12.6061 10.1544 14.133 9.07373 16.6924 9.07373C19.5685 9.07373 20.9921 10.0721 21.1724 12.2141C21.1751 12.2499 21.1705 12.2858 21.1588 12.3197C21.1472 12.3536 21.1287 12.3848 21.1045 12.4113C21.0803 12.4378 21.0509 12.459 21.0182 12.4737C20.9855 12.4884 20.9501 12.4962 20.9142 12.4967H19.7452C19.6866 12.4959 19.6299 12.4755 19.5842 12.4387C19.5386 12.4019 19.5065 12.3509 19.4932 12.2937C19.2141 11.0504 18.5307 10.6531 16.6932 10.6531C14.6282 10.6531 14.3885 11.3724 14.3885 11.9114C14.3885 12.5641 14.672 12.7549 17.4597 13.1232C20.2186 13.4881 21.5294 14.0044 21.5294 15.9434C21.5294 17.8999 19.8984 19.0199 17.0537 19.0199C13.1206 19.0251 12.2972 17.2217 12.2972 15.7089Z" fill="#83CD29"/>
</svg>
