<svg width="32" height="32" viewBox="0 0 32 32" fill="none" xmlns="http://www.w3.org/2000/svg">
<path d="M16 30.0001C15.6223 30.0002 15.2512 29.9009 14.924 29.7121L11.5 27.6851C10.989 27.3991 11.238 27.2981 11.407 27.2391C11.9505 27.0712 12.4708 26.836 12.956 26.5391C12.9966 26.5203 13.0413 26.5122 13.086 26.5155C13.1306 26.5188 13.1736 26.5335 13.211 26.5581L15.842 28.1211C15.891 28.147 15.9456 28.1606 16.001 28.1606C16.0564 28.1606 16.111 28.147 16.16 28.1211L26.42 22.1991C26.468 22.1703 26.5077 22.1296 26.5352 22.0809C26.5628 22.0321 26.5772 21.9771 26.577 21.9211V10.0751C26.577 10.0182 26.5624 9.96234 26.5346 9.91277C26.5067 9.8632 26.4666 9.82164 26.418 9.7921L16.158 3.8751C16.1096 3.84785 16.055 3.83354 15.9995 3.83354C15.944 3.83354 15.8894 3.84785 15.841 3.8751L5.587 9.7941C5.53809 9.82303 5.49747 9.86409 5.46909 9.91332C5.44071 9.96255 5.42552 10.0183 5.425 10.0751V21.9161C5.42514 21.9719 5.44012 22.0267 5.46841 22.0749C5.4967 22.123 5.53728 22.1628 5.586 22.1901L8.4 23.8141C9.925 24.5761 10.859 23.6781 10.859 22.7761V11.0851C10.859 11.0055 10.8906 10.9292 10.9469 10.873C11.0031 10.8167 11.0794 10.7851 11.159 10.7851H12.459C12.5386 10.7851 12.6149 10.8167 12.6711 10.873C12.7274 10.9292 12.759 11.0055 12.759 11.0851V22.7771C12.759 24.8121 11.651 25.9771 9.721 25.9771C8.88838 25.9916 8.06881 25.7689 7.358 25.3351L4.661 23.7881C4.33359 23.5974 4.06192 23.3242 3.87311 22.9957C3.6843 22.6672 3.58496 22.295 3.585 21.9161V10.0751C3.58403 9.69563 3.68295 9.32259 3.87182 8.99346C4.0607 8.66433 4.33287 8.39071 4.661 8.2001L14.922 2.2761C15.2525 2.09527 15.6232 2.00049 16 2.00049C16.3768 2.00049 16.7475 2.09527 17.078 2.2761L27.338 8.2001C27.6654 8.39039 27.9371 8.66322 28.1261 8.99135C28.3151 9.31948 28.4147 9.69144 28.415 10.0701V21.9161C28.4144 22.295 28.3147 22.6671 28.1258 22.9955C27.9369 23.3239 27.6653 23.5972 27.338 23.7881L17.078 29.7121C16.7502 29.9012 16.3784 30.0005 16 30.0001Z" fill="#83CD29"/>
<path d="M14.054 17.9531C14.054 17.8736 14.0856 17.7972 14.1419 17.741C14.1981 17.6847 14.2744 17.6531 14.354 17.6531H15.681C15.7519 17.6533 15.8204 17.6787 15.8744 17.7246C15.9284 17.7706 15.9644 17.8342 15.976 17.9041C16.176 19.2551 16.776 19.9361 19.489 19.9361C21.65 19.9361 22.571 19.4471 22.571 18.3001C22.571 17.6391 22.31 17.1481 18.951 16.8191C16.143 16.5411 14.407 15.9191 14.407 13.6751C14.407 11.6051 16.152 10.3701 19.077 10.3701C22.364 10.3701 23.991 11.5111 24.197 13.9591C24.2001 14 24.1949 14.0411 24.1815 14.0798C24.1682 14.1186 24.147 14.1542 24.1194 14.1845C24.0918 14.2147 24.0582 14.239 24.0208 14.2558C23.9834 14.2726 23.943 14.2816 23.902 14.2821H22.566C22.499 14.2812 22.4342 14.2578 22.382 14.2158C22.3298 14.1737 22.2932 14.1154 22.278 14.0501C21.959 12.6291 21.178 12.1751 19.078 12.1751C16.718 12.1751 16.444 12.9971 16.444 13.6131C16.444 14.3591 16.768 14.5771 19.954 14.9981C23.107 15.4151 24.605 16.0051 24.605 18.2211C24.605 20.4571 22.741 21.7371 19.49 21.7371C14.995 21.7431 14.054 19.6821 14.054 17.9531Z" fill="#83CD29"/>
</svg>
