<svg width="28" height="32" viewBox="0 0 28 32" fill="none" xmlns="http://www.w3.org/2000/svg">
<g clip-path="url(#clip0_111_209)">
<path d="M24.5869 25.3679L10.2325 29.6134C9.79389 29.7432 9.37358 29.3639 9.46576 28.9214L14.5938 4.36312C14.6897 3.90362 15.3245 3.83093 15.5248 4.25625L25.0196 24.4184C25.1987 24.7991 24.9944 25.2476 24.5868 25.368M27.0483 24.3662L16.0548 1.02037C15.33 -0.335316 13.615 -0.286128 12.945 0.848497L1.02176 20.1604C0.652389 20.7626 0.659701 21.5048 1.04276 22.0992L6.87108 31.1279C7.47201 31.8443 8.0277 32.1822 8.97683 31.9015L25.8946 26.8979C27.0217 26.5604 27.5648 25.4715 27.0483 24.3662Z" fill="#F2F2F2"/>
</g>
<defs>
<clipPath id="clip0_111_209">
<rect width="26.5" height="32" fill="white" transform="translate(0.75)"/>
</clipPath>
</defs>
</svg>
