<svg width="28" height="32" viewBox="0 0 28 32" fill="none" xmlns="http://www.w3.org/2000/svg">
<path d="M23.2632 22.1969L10.7031 25.9117C10.3193 26.0253 9.95156 25.6934 10.0322 25.3062L14.5192 3.81772C14.6032 3.41566 15.1586 3.35206 15.3338 3.72421L23.6418 21.3661C23.7985 21.6991 23.6197 22.0916 23.2631 22.197M25.4169 21.3204L15.7976 0.892824C15.1634 -0.293401 13.6628 -0.250362 13.0766 0.742433L2.64374 17.6403C2.32054 18.1673 2.32693 18.8167 2.66211 19.3368L7.76188 27.2368C8.2877 27.8637 8.77392 28.1594 9.60441 27.9138L24.4075 23.5356C25.3936 23.2403 25.8688 22.2875 25.4169 21.3204Z" fill="#F2F2F2"/>
</svg>
