<svg width="38" height="14" viewBox="0 0 38 14" fill="none" xmlns="http://www.w3.org/2000/svg">
<g clip-path="url(#clip0_262_450)">
<path d="M27.6647 11.4281L28.7254 8.74565H31.7882L30.3348 4.67652L32.1526 0.0793457L37.3595 13.9041H33.5196L32.6298 11.4281H27.6647Z" fill="#F2F2F2"/>
<path d="M24.3889 13.9042L29.9629 0.0793457L26.2675 0.0794174L22.4545 9.01323L19.7432 0.0794174H16.9027L13.9913 9.01323L11.9382 4.94231L10.0802 10.6665L11.9666 13.9042H15.6034L18.2342 5.89241L20.7425 13.9042H24.3889Z" fill="#5A0FC8"/>
<path d="M4.14879 9.15831H6.42494C7.11442 9.15831 7.72839 9.08136 8.26683 8.92738L8.85548 7.11389L10.5007 2.04539C10.3743 1.84536 10.2307 1.65678 10.0714 1.48184C9.22662 0.546795 7.9908 0.0793457 6.36362 0.0793457H0.640991V13.9042H4.14879V9.15831ZM7.16161 3.25983C7.49158 3.59188 7.65653 4.03631 7.65653 4.59305C7.65653 5.15401 7.51144 5.59894 7.22128 5.92776C6.90321 6.29316 6.31751 6.47582 5.46422 6.47582H4.14879V2.76183H5.47383C6.26917 2.76183 6.83171 2.92779 7.16161 3.25983Z" fill="#F2F2F2"/>
</g>
<defs>
<clipPath id="clip0_262_450">
<rect width="36.7198" height="13.8413" fill="white" transform="translate(0.640137 0.0793457)"/>
</clipPath>
</defs>
</svg>
