<svg width="42" height="16" viewBox="0 0 42 16" fill="none" xmlns="http://www.w3.org/2000/svg">
<g clip-path="url(#clip0_111_373)">
<path d="M30.8175 13.0173L32.0194 9.97803H35.4897L33.8428 5.36751L35.9025 0.158691L41.8021 15.8228H37.4514L36.4432 13.0173H30.8175Z" fill="#F2F2F2"/>
<path d="M27.1058 15.8229L33.4214 0.158691L29.2343 0.158773L24.9141 10.2812L21.8419 0.158773H18.6235L15.3248 10.2812L12.9985 5.66866L10.8933 12.1545L13.0308 15.8229H17.1514L20.1322 6.74517L22.9743 15.8229H27.1058Z" fill="#5A0FC8"/>
<path d="M4.17266 10.4456H6.75164C7.53285 10.4456 8.22851 10.3584 8.83859 10.1839L9.50556 8.12916L11.3696 2.38631C11.2265 2.15966 11.0637 1.946 10.8832 1.74778C9.92607 0.688333 8.52583 0.158691 6.68216 0.158691H0.198151V15.8229H4.17266V10.4456ZM7.58632 3.76234C7.96019 4.13856 8.14709 4.64212 8.14709 5.27293C8.14709 5.90853 7.9827 6.41266 7.65393 6.78523C7.29355 7.19924 6.62991 7.4062 5.6631 7.4062H4.17266V3.19808H5.67399C6.57514 3.19808 7.21253 3.38611 7.58632 3.76234Z" fill="#F2F2F2"/>
</g>
<defs>
<clipPath id="clip0_111_373">
<rect width="41.6053" height="15.6829" fill="white" transform="translate(0.197342 0.158691)"/>
</clipPath>
</defs>
</svg>
