<svg width="28" height="28" viewBox="0 0 28 28" fill="none" xmlns="http://www.w3.org/2000/svg">
<path d="M16.3333 6.41667C16.3333 7.19021 16.6406 7.93208 17.1876 8.47906C17.7346 9.02604 18.4765 9.33333 19.25 9.33333C20.0235 9.33333 20.7654 9.02604 21.3124 8.47906C21.8594 7.93208 22.1667 7.19021 22.1667 6.41667C22.1667 5.64312 21.8594 4.90125 21.3124 4.35427C20.7654 3.80729 20.0235 3.5 19.25 3.5C18.4765 3.5 17.7346 3.80729 17.1876 4.35427C16.6406 4.90125 16.3333 5.64312 16.3333 6.41667ZM7 3.5H12.8333V9.33333H7V3.5ZM12.8333 12.8333V24.5C11.3095 24.498 9.84688 23.8998 8.7584 22.8334C7.66992 21.7669 7.04198 20.3168 7.00891 18.7933C6.97583 17.2698 7.54024 15.7938 8.58141 14.6811C9.62257 13.5684 11.0578 12.9073 12.5802 12.8392L12.8333 12.8333Z" stroke="#F2F2F2" stroke-width="2.66667" stroke-linecap="round" stroke-linejoin="round"/>
</svg>
