<svg width="32" height="32" viewBox="0 0 32 32" fill="none" xmlns="http://www.w3.org/2000/svg">
<path d="M18.6667 7.33333C18.6667 8.21739 19.0179 9.06523 19.643 9.69036C20.2681 10.3155 21.1159 10.6667 22 10.6667C22.8841 10.6667 23.7319 10.3155 24.357 9.69036C24.9821 9.06523 25.3333 8.21739 25.3333 7.33333C25.3333 6.44928 24.9821 5.60143 24.357 4.97631C23.7319 4.35119 22.8841 4 22 4C21.1159 4 20.2681 4.35119 19.643 4.97631C19.0179 5.60143 18.6667 6.44928 18.6667 7.33333ZM8 4H14.6667V10.6667H8V4ZM14.6667 14.6667V28C12.9251 27.9978 11.2536 27.3141 10.0096 26.0953C8.76562 24.8764 8.04798 23.2192 8.01018 21.478C7.97238 19.7369 8.61742 18.0501 9.80732 16.7784C10.9972 15.5067 12.6375 14.7512 14.3773 14.6733L14.6667 14.6667Z" stroke="#F2F2F2" stroke-width="2.66667" stroke-linecap="round" stroke-linejoin="round"/>
</svg>
