<svg width="28" height="28" viewBox="0 0 28 28" fill="none" xmlns="http://www.w3.org/2000/svg">
<path d="M14 16.4938C15.3772 16.4938 16.4937 15.3774 16.4937 14.0001C16.4937 12.6228 15.3772 11.5063 14 11.5063C12.6227 11.5063 11.5062 12.6228 11.5062 14.0001C11.5062 15.3774 12.6227 16.4938 14 16.4938Z" fill="#C061FB"/>
<path d="M23.4719 9.8876C22.9906 9.7126 22.4875 9.5376 21.9625 9.38447C22.0938 8.85947 22.2031 8.33447 22.2906 7.83135C22.75 4.94385 22.2469 2.90947 20.8469 2.12197C20.4313 1.88135 19.9719 1.77197 19.4469 1.77197C17.9156 1.77197 15.9688 2.90947 14 4.8126C12.0313 2.90947 10.0844 1.77197 8.55315 1.77197C8.02815 1.77197 7.56877 1.88135 7.15315 2.12197C5.75315 2.93135 5.25002 4.96572 5.7094 7.83135C5.7969 8.33447 5.90627 8.85947 6.03752 9.38447C5.51252 9.5376 5.0094 9.69072 4.52815 9.8876C1.79377 10.9376 0.306274 12.3813 0.306274 14.0001C0.306274 15.6188 1.81565 17.0626 4.52815 18.1126C5.0094 18.2876 5.51252 18.4626 6.03752 18.6157C5.90627 19.1407 5.7969 19.6657 5.7094 20.1688C5.25002 23.0563 5.75315 25.0907 7.15315 25.8782C7.56877 26.1189 8.02815 26.2282 8.55315 26.2282C10.1063 26.2282 12.0531 25.0907 14 23.1876C15.9688 25.0907 17.9156 26.2282 19.4469 26.2282C19.9719 26.2282 20.4313 26.1189 20.8469 25.8782C22.2469 25.0689 22.75 23.0345 22.2906 20.1688C22.2031 19.6657 22.0938 19.1407 21.9625 18.6157C22.4875 18.4626 22.9906 18.3095 23.4719 18.1126C26.2063 17.0626 27.6938 15.6188 27.6938 14.0001C27.6938 12.3813 26.2063 10.9376 23.4719 9.8876ZM20.2344 3.21572C21.1313 3.74072 21.4375 5.35947 21.0656 7.65635C21 8.11572 20.8906 8.59697 20.7594 9.1001C19.6219 8.8376 18.4188 8.6626 17.15 8.55322C16.4063 7.50322 15.6406 6.5626 14.875 5.70947C16.4938 4.1126 18.1344 3.01885 19.4688 3.01885C19.7531 3.01885 20.0156 3.08447 20.2344 3.21572ZM17.7844 16.1876C17.3906 16.8876 16.9313 17.5876 16.45 18.2876C15.6406 18.3532 14.8313 18.3751 14 18.3751C13.1469 18.3751 12.3375 18.3532 11.55 18.2876C11.0688 17.5876 10.6313 16.8876 10.2375 16.1876C9.8219 15.4657 9.42815 14.722 9.07815 14.0001C9.42815 13.2782 9.8219 12.5345 10.2375 11.8126C10.6313 11.1126 11.0906 10.4126 11.5719 9.7126C12.3813 9.64697 13.1906 9.6251 14.0219 9.6251C14.875 9.6251 15.6844 9.64697 16.4719 9.7126C16.9531 10.4126 17.3906 11.1126 17.7844 11.8126C18.2 12.5345 18.5938 13.2782 18.9438 14.0001C18.5719 14.722 18.2 15.4438 17.7844 16.1876ZM19.6 15.4657C19.9281 16.2313 20.1906 16.9751 20.4313 17.7188C19.6875 17.8938 18.9 18.0251 18.0688 18.1345C18.3313 17.7188 18.6156 17.2813 18.8563 16.822C19.1188 16.3626 19.3594 15.9032 19.6 15.4657ZM14 21.3938C13.475 20.8251 12.9719 20.2126 12.4906 19.5782C12.9938 19.6001 13.4969 19.622 14 19.622C14.5031 19.622 15.0063 19.6001 15.5094 19.5782C15.0281 20.2126 14.525 20.8251 14 21.3938ZM9.93127 18.1126C9.10002 18.0032 8.31252 17.872 7.56877 17.697C7.8094 16.9751 8.0719 16.2095 8.40002 15.4438C8.64065 15.8813 8.88127 16.3407 9.14377 16.7782C9.40627 17.2595 9.66877 17.6751 9.93127 18.1126ZM8.40002 12.5345C8.0719 11.7688 7.8094 11.0251 7.56877 10.2813C8.31252 10.1063 9.10002 9.9751 9.93127 9.86572C9.66877 10.2813 9.3844 10.7188 9.14377 11.1782C8.88127 11.6376 8.64065 12.097 8.40002 12.5345ZM14 6.60635C14.525 7.1751 15.0281 7.7876 15.5094 8.42197C15.0063 8.4001 14.5031 8.37822 14 8.37822C13.4969 8.37822 12.9938 8.4001 12.4906 8.42197C12.9719 7.7876 13.475 7.1751 14 6.60635ZM18.8563 11.2001L18.0688 9.8876C18.9 9.99697 19.6875 10.1282 20.4313 10.3032C20.1906 11.0251 19.9281 11.7907 19.6 12.5563C19.3594 12.097 19.1188 11.6376 18.8563 11.2001ZM6.9344 7.65635C6.56252 5.35947 6.86877 3.74072 7.76565 3.21572C7.9844 3.08447 8.2469 3.01885 8.53127 3.01885C9.84377 3.01885 11.4844 4.09072 13.125 5.70947C12.3594 6.54072 11.5938 7.50322 10.85 8.55322C9.58127 8.6626 8.37815 8.85947 7.24065 9.1001C7.1094 8.59697 7.0219 8.11572 6.9344 7.65635ZM1.53127 14.0001C1.53127 12.972 2.77815 11.8782 4.96565 11.0688C5.40315 10.8938 5.8844 10.7407 6.36565 10.6095C6.71565 11.7032 7.15315 12.8626 7.67815 14.022C7.15315 15.1813 6.69377 16.3188 6.36565 17.4126C3.3469 16.5376 1.53127 15.2251 1.53127 14.0001ZM7.76565 24.7845C6.86877 24.2595 6.56252 22.6407 6.9344 20.3438C7.00002 19.8845 7.1094 19.4032 7.24065 18.9001C8.37815 19.1626 9.58127 19.3376 10.85 19.447C11.5938 20.497 12.3594 21.4376 13.125 22.2907C11.5063 23.8876 9.86565 24.9813 8.53127 24.9813C8.2469 24.9813 7.9844 24.9157 7.76565 24.7845ZM21.0656 20.3438C21.4375 22.6407 21.1313 24.2595 20.2344 24.7845C20.0156 24.9157 19.7531 24.9813 19.4688 24.9813C18.1563 24.9813 16.5156 23.9095 14.875 22.2907C15.6406 21.4595 16.4063 20.497 17.15 19.447C18.4188 19.3376 19.6219 19.1407 20.7594 18.9001C20.8906 19.4032 20.9781 19.8845 21.0656 20.3438ZM23.0344 16.9313C22.5969 17.1063 22.1156 17.2595 21.6344 17.3907C21.2844 16.297 20.8469 15.1376 20.3219 13.9782C20.8469 12.8188 21.3063 11.6813 21.6344 10.5876C24.6531 11.4626 26.4688 12.7751 26.4688 14.0001C26.4688 15.0282 25.2 16.122 23.0344 16.9313Z" fill="#C061FB"/>
</svg>
