<svg width="28" height="28" viewBox="0 0 28 28" fill="none" xmlns="http://www.w3.org/2000/svg">
<g clip-path="url(#clip0_147_254)">
<path d="M12.5708 20.2397H6.77365C6.72887 20.237 6.68403 20.2435 6.64186 20.2588C6.5997 20.2741 6.5611 20.2979 6.52846 20.3287C6.49581 20.3594 6.4698 20.3965 6.45202 20.4377C6.43424 20.4789 6.42507 20.5233 6.42507 20.5681C6.42507 20.613 6.43424 20.6574 6.45202 20.6985C6.4698 20.7397 6.49581 20.7768 6.52846 20.8076C6.5611 20.8383 6.5997 20.8621 6.64186 20.8774C6.68403 20.8927 6.72887 20.8992 6.77365 20.8965H12.572C12.6168 20.8992 12.6616 20.8927 12.7038 20.8774C12.7459 20.8621 12.7845 20.8383 12.8172 20.8076C12.8498 20.7768 12.8758 20.7397 12.8936 20.6985C12.9114 20.6574 12.9206 20.613 12.9206 20.5681C12.9206 20.5233 12.9114 20.4789 12.8936 20.4377C12.8758 20.3965 12.8498 20.3594 12.8172 20.3287C12.7845 20.2979 12.7459 20.2741 12.7038 20.2588C12.6616 20.2435 12.6168 20.237 12.572 20.2397M21.112 20.2397H15.3148C15.27 20.237 15.2252 20.2435 15.183 20.2588C15.1409 20.2741 15.1023 20.2979 15.0696 20.3287C15.037 20.3594 15.011 20.3965 14.9932 20.4377C14.9754 20.4789 14.9662 20.5233 14.9662 20.5681C14.9662 20.613 14.9754 20.6574 14.9932 20.6985C15.011 20.7397 15.037 20.7768 15.0696 20.8076C15.1023 20.8383 15.1409 20.8621 15.183 20.8774C15.2252 20.8927 15.27 20.8992 15.3148 20.8965H21.112C21.1957 20.8915 21.2744 20.8548 21.3319 20.7937C21.3894 20.7327 21.4214 20.652 21.4214 20.5681C21.4214 20.4843 21.3894 20.4036 21.3319 20.3425C21.2744 20.2815 21.1957 20.2447 21.112 20.2397ZM12.5557 12.6855H6.77482C6.73004 12.6829 6.68519 12.6894 6.64303 12.7047C6.60086 12.72 6.56227 12.7437 6.52962 12.7745C6.49698 12.8053 6.47096 12.8424 6.45318 12.8835C6.4354 12.9247 6.42623 12.9691 6.42623 13.014C6.42623 13.0588 6.4354 13.1032 6.45318 13.1444C6.47096 13.1856 6.49698 13.2227 6.52962 13.2534C6.56227 13.2842 6.60086 13.3079 6.64303 13.3232C6.68519 13.3385 6.73004 13.345 6.77482 13.3424H12.5545C12.5993 13.345 12.6441 13.3385 12.6863 13.3232C12.7284 13.3079 12.767 13.2842 12.7997 13.2534C12.8323 13.2227 12.8583 13.1856 12.8761 13.1444C12.8939 13.1032 12.9031 13.0588 12.9031 13.014C12.9031 12.9691 12.8939 12.9247 12.8761 12.8835C12.8583 12.8424 12.8323 12.8053 12.7997 12.7745C12.767 12.7437 12.7284 12.72 12.6863 12.7047C12.6441 12.6894 12.5993 12.6829 12.5545 12.6855M21.0945 12.6855H15.3137C15.2689 12.6829 15.224 12.6894 15.1819 12.7047C15.1397 12.72 15.1011 12.7437 15.0685 12.7745C15.0358 12.8053 15.0098 12.8424 14.992 12.8835C14.9742 12.9247 14.9651 12.9691 14.9651 13.014C14.9651 13.0588 14.9742 13.1032 14.992 13.1444C15.0098 13.1856 15.0358 13.2227 15.0685 13.2534C15.1011 13.2842 15.1397 13.3079 15.1819 13.3232C15.224 13.3385 15.2689 13.345 15.3137 13.3424H21.0945C21.1782 13.3374 21.2569 13.3006 21.3144 13.2396C21.3719 13.1785 21.4039 13.0978 21.4039 13.014C21.4039 12.9301 21.3719 12.8494 21.3144 12.7883C21.2569 12.7273 21.1782 12.6905 21.0945 12.6855ZM21.7385 1.95221H16.674C16.493 1.38574 16.1367 0.891449 15.6565 0.54072C15.1763 0.18999 14.597 0.000976562 14.0023 0.000976562C13.4076 0.000976563 12.8284 0.18999 12.3481 0.54072C11.8679 0.891449 11.5116 1.38574 11.3306 1.95221H6.26032C5.30245 1.95252 4.3839 2.33316 3.70659 3.01048C3.02927 3.68779 2.64862 4.60634 2.64832 5.56421V24.3872C2.64832 25.3455 3.02899 26.2645 3.70659 26.9421C4.38419 27.6197 5.30321 28.0004 6.26148 28.0004H21.7385C22.6966 28.0001 23.6153 27.6193 24.2926 26.9417C24.97 26.2641 25.3505 25.3453 25.3505 24.3872V5.56537C25.3502 4.60751 24.9695 3.68896 24.2922 3.01165C23.6149 2.33433 22.6963 1.95368 21.7385 1.95337M11.5826 2.61021C11.659 2.61162 11.7335 2.58644 11.7933 2.53897C11.8531 2.49151 11.8945 2.42471 11.9105 2.35004C12.0146 1.87083 12.2796 1.44169 12.6615 1.13394C13.0433 0.826192 13.5189 0.658373 14.0093 0.658373C14.4997 0.658373 14.9754 0.826192 15.3572 1.13394C15.739 1.44169 16.004 1.87083 16.1082 2.35004C16.1242 2.42491 16.1658 2.49186 16.2258 2.53935C16.2859 2.58684 16.3606 2.6119 16.4371 2.61021H18.2035V4.76037C18.2032 5.02143 18.0993 5.2717 17.9147 5.4563C17.7301 5.64089 17.4799 5.74473 17.2188 5.74504H10.7975C10.5364 5.74473 10.2862 5.64089 10.1016 5.4563C9.91697 5.2717 9.81312 5.02143 9.81282 4.76037V2.60904L11.5826 2.61021ZM24.6937 24.3884C24.6937 26.0217 23.3706 27.3447 21.7385 27.3447H6.26148C5.47762 27.3444 4.72596 27.0328 4.17179 26.4784C3.61763 25.924 3.30632 25.1722 3.30632 24.3884V5.56537C3.30632 4.78161 3.61766 4.02996 4.17186 3.47576C4.72606 2.92155 5.47772 2.61021 6.26148 2.61021H9.15482V4.76037C9.15482 5.66687 9.88982 6.40187 10.7975 6.40187H17.2025C18.109 6.40187 18.844 5.66687 18.844 4.76037V2.60904H21.7373C23.3706 2.60904 24.6937 3.93204 24.6937 5.56421V24.3884Z" fill="#EC5990"/>
</g>
<defs>
<clipPath id="clip0_147_254">
<rect width="28" height="28" fill="white"/>
</clipPath>
</defs>
</svg>
