<svg width="32" height="32" viewBox="0 0 32 32" fill="none" xmlns="http://www.w3.org/2000/svg">
<path d="M16 18.85C17.574 18.85 18.85 17.574 18.85 16C18.85 14.426 17.574 13.15 16 13.15C14.426 13.15 13.15 14.426 13.15 16C13.15 17.574 14.426 18.85 16 18.85Z" fill="#61DAFB"/>
<path d="M26.825 11.3C26.275 11.1 25.7 10.9 25.1 10.725C25.25 10.125 25.375 9.52502 25.475 8.95003C26 5.65002 25.425 3.32502 23.825 2.42502C23.35 2.15002 22.825 2.02502 22.225 2.02502C20.475 2.02502 18.25 3.32502 16 5.50002C13.75 3.32502 11.525 2.02502 9.775 2.02502C9.175 2.02502 8.65001 2.15002 8.17501 2.42502C6.57501 3.35002 6.00001 5.67502 6.52501 8.95003C6.62501 9.52502 6.75001 10.125 6.90001 10.725C6.30001 10.9 5.72501 11.075 5.17501 11.3C2.05001 12.5 0.350006 14.15 0.350006 16C0.350006 17.85 2.07501 19.5 5.17501 20.7C5.72501 20.9 6.30001 21.1 6.90001 21.275C6.75001 21.875 6.62501 22.475 6.52501 23.05C6.00001 26.35 6.57501 28.675 8.17501 29.575C8.65001 29.85 9.175 29.975 9.775 29.975C11.55 29.975 13.775 28.675 16 26.5C18.25 28.675 20.475 29.975 22.225 29.975C22.825 29.975 23.35 29.85 23.825 29.575C25.425 28.65 26 26.325 25.475 23.05C25.375 22.475 25.25 21.875 25.1 21.275C25.7 21.1 26.275 20.925 26.825 20.7C29.95 19.5 31.65 17.85 31.65 16C31.65 14.15 29.95 12.5 26.825 11.3ZM23.125 3.67502C24.15 4.27502 24.5 6.12502 24.075 8.75003C24 9.27503 23.875 9.82503 23.725 10.4C22.425 10.1 21.05 9.90002 19.6 9.77502C18.75 8.57502 17.875 7.50003 17 6.52502C18.85 4.70002 20.725 3.45002 22.25 3.45002C22.575 3.45002 22.875 3.52502 23.125 3.67502ZM20.325 18.5C19.875 19.3 19.35 20.1 18.8 20.9C17.875 20.975 16.95 21 16 21C15.025 21 14.1 20.975 13.2 20.9C12.65 20.1 12.15 19.3 11.7 18.5C11.225 17.675 10.775 16.825 10.375 16C10.775 15.175 11.225 14.325 11.7 13.5C12.15 12.7 12.675 11.9 13.225 11.1C14.15 11.025 15.075 11 16.025 11C17 11 17.925 11.025 18.825 11.1C19.375 11.9 19.875 12.7 20.325 13.5C20.8 14.325 21.25 15.175 21.65 16C21.225 16.825 20.8 17.65 20.325 18.5ZM22.4 17.675C22.775 18.55 23.075 19.4 23.35 20.25C22.5 20.45 21.6 20.6 20.65 20.725C20.95 20.25 21.275 19.75 21.55 19.225C21.85 18.7 22.125 18.175 22.4 17.675ZM16 24.45C15.4 23.8 14.825 23.1 14.275 22.375C14.85 22.4 15.425 22.425 16 22.425C16.575 22.425 17.15 22.4 17.725 22.375C17.175 23.1 16.6 23.8 16 24.45ZM11.35 20.7C10.4 20.575 9.5 20.425 8.65 20.225C8.925 19.4 9.22501 18.525 9.60001 17.65C9.87501 18.15 10.15 18.675 10.45 19.175C10.75 19.725 11.05 20.2 11.35 20.7ZM9.60001 14.325C9.22501 13.45 8.925 12.6 8.65 11.75C9.5 11.55 10.4 11.4 11.35 11.275C11.05 11.75 10.725 12.25 10.45 12.775C10.15 13.3 9.87501 13.825 9.60001 14.325ZM16 7.55002C16.6 8.20003 17.175 8.90002 17.725 9.62503C17.15 9.60003 16.575 9.57503 16 9.57503C15.425 9.57503 14.85 9.60003 14.275 9.62503C14.825 8.90002 15.4 8.20003 16 7.55002ZM21.55 12.8L20.65 11.3C21.6 11.425 22.5 11.575 23.35 11.775C23.075 12.6 22.775 13.475 22.4 14.35C22.125 13.825 21.85 13.3 21.55 12.8ZM7.92501 8.75003C7.50001 6.12502 7.85001 4.27502 8.875 3.67502C9.125 3.52502 9.425 3.45002 9.75 3.45002C11.25 3.45002 13.125 4.67502 15 6.52502C14.125 7.47503 13.25 8.57502 12.4 9.77502C10.95 9.90002 9.57501 10.125 8.27501 10.4C8.12501 9.82503 8.02501 9.27503 7.92501 8.75003ZM1.75001 16C1.75001 14.825 3.17501 13.575 5.67501 12.65C6.17501 12.45 6.72501 12.275 7.27501 12.125C7.67501 13.375 8.175 14.7 8.775 16.025C8.175 17.35 7.65001 18.65 7.27501 19.9C3.82501 18.9 1.75001 17.4 1.75001 16ZM8.875 28.325C7.85001 27.725 7.50001 25.875 7.92501 23.25C8.00001 22.725 8.12501 22.175 8.27501 21.6C9.57501 21.9 10.95 22.1 12.4 22.225C13.25 23.425 14.125 24.5 15 25.475C13.15 27.3 11.275 28.55 9.75 28.55C9.425 28.55 9.125 28.475 8.875 28.325ZM24.075 23.25C24.5 25.875 24.15 27.725 23.125 28.325C22.875 28.475 22.575 28.55 22.25 28.55C20.75 28.55 18.875 27.325 17 25.475C17.875 24.525 18.75 23.425 19.6 22.225C21.05 22.1 22.425 21.875 23.725 21.6C23.875 22.175 23.975 22.725 24.075 23.25ZM26.325 19.35C25.825 19.55 25.275 19.725 24.725 19.875C24.325 18.625 23.825 17.3 23.225 15.975C23.825 14.65 24.35 13.35 24.725 12.1C28.175 13.1 30.25 14.6 30.25 16C30.25 17.175 28.8 18.425 26.325 19.35Z" fill="#61DAFB"/>
</svg>
