<svg width="32" height="32" viewBox="0 0 32 32" fill="none" xmlns="http://www.w3.org/2000/svg">
<path d="M14.3667 23.1305H7.74134C7.69017 23.1274 7.63891 23.1349 7.59072 23.1523C7.54254 23.1698 7.49843 23.197 7.46112 23.2321C7.42381 23.2673 7.39408 23.3097 7.37376 23.3568C7.35344 23.4038 7.34296 23.4545 7.34296 23.5058C7.34296 23.5571 7.35344 23.6078 7.37376 23.6548C7.39408 23.7019 7.42381 23.7443 7.46112 23.7795C7.49843 23.8146 7.54254 23.8418 7.59072 23.8593C7.63891 23.8767 7.69017 23.8842 7.74134 23.8811H14.368C14.4192 23.8842 14.4704 23.8767 14.5186 23.8593C14.5668 23.8418 14.6109 23.8146 14.6482 23.7795C14.6855 23.7443 14.7153 23.7019 14.7356 23.6548C14.7559 23.6078 14.7664 23.5571 14.7664 23.5058C14.7664 23.4545 14.7559 23.4038 14.7356 23.3568C14.7153 23.3097 14.6855 23.2673 14.6482 23.2321C14.6109 23.197 14.5668 23.1698 14.5186 23.1523C14.4704 23.1349 14.4192 23.1274 14.368 23.1305M24.128 23.1305H17.5027C17.4515 23.1274 17.4002 23.1349 17.3521 23.1523C17.3039 23.1698 17.2598 23.197 17.2225 23.2321C17.1851 23.2673 17.1554 23.3097 17.1351 23.3568C17.1148 23.4038 17.1043 23.4545 17.1043 23.5058C17.1043 23.5571 17.1148 23.6078 17.1351 23.6548C17.1554 23.7019 17.1851 23.7443 17.2225 23.7795C17.2598 23.8146 17.3039 23.8418 17.3521 23.8593C17.4002 23.8767 17.4515 23.8842 17.5027 23.8811H24.128C24.2237 23.8754 24.3136 23.8334 24.3793 23.7636C24.445 23.6939 24.4816 23.6016 24.4816 23.5058C24.4816 23.41 24.445 23.3177 24.3793 23.248C24.3136 23.1782 24.2237 23.1362 24.128 23.1305ZM14.3493 14.4971H7.74267C7.6915 14.4941 7.64025 14.5015 7.59206 14.519C7.54387 14.5365 7.49976 14.5636 7.46245 14.5988C7.42514 14.6339 7.39541 14.6764 7.37509 14.7234C7.35477 14.7705 7.34429 14.8212 7.34429 14.8725C7.34429 14.9237 7.35477 14.9745 7.37509 15.0215C7.39541 15.0686 7.42514 15.111 7.46245 15.1461C7.49976 15.1813 7.54387 15.2084 7.59206 15.2259C7.64025 15.2434 7.6915 15.2509 7.74267 15.2478H14.348C14.3992 15.2509 14.4504 15.2434 14.4986 15.2259C14.5468 15.2084 14.5909 15.1813 14.6282 15.1461C14.6655 15.111 14.6953 15.0686 14.7156 15.0215C14.7359 14.9745 14.7464 14.9237 14.7464 14.8725C14.7464 14.8212 14.7359 14.7705 14.7156 14.7234C14.6953 14.6764 14.6655 14.6339 14.6282 14.5988C14.5909 14.5636 14.5468 14.5365 14.4986 14.519C14.4504 14.5015 14.3992 14.4941 14.348 14.4971M24.108 14.4971H17.5013C17.4502 14.4941 17.3989 14.5015 17.3507 14.519C17.3025 14.5365 17.2584 14.5636 17.2211 14.5988C17.1838 14.6339 17.1541 14.6764 17.1338 14.7234C17.1134 14.7705 17.103 14.8212 17.103 14.8725C17.103 14.9237 17.1134 14.9745 17.1338 15.0215C17.1541 15.0686 17.1838 15.111 17.2211 15.1461C17.2584 15.1813 17.3025 15.2084 17.3507 15.2259C17.3989 15.2434 17.4502 15.2509 17.5013 15.2478H24.108C24.2037 15.2421 24.2936 15.2001 24.3593 15.1303C24.425 15.0605 24.4616 14.9683 24.4616 14.8725C24.4616 14.7766 24.425 14.6844 24.3593 14.6146C24.2936 14.5449 24.2037 14.5028 24.108 14.4971ZM24.844 2.23047H19.056C18.8492 1.58308 18.442 1.01817 17.8932 0.617338C17.3443 0.216504 16.6823 0.000488281 16.0027 0.000488281C15.3231 0.000488281 14.661 0.216504 14.1122 0.617338C13.5634 1.01817 13.1561 1.58308 12.9493 2.23047H7.15467C6.05997 2.23082 5.0102 2.66585 4.23613 3.43992C3.46205 4.21399 3.02703 5.26376 3.02667 6.35847V27.8705C3.02667 28.9656 3.46173 30.0159 4.23613 30.7903C5.01053 31.5647 6.06084 31.9998 7.15601 31.9998H24.844C25.9389 31.9994 26.9889 31.5642 27.763 30.7899C28.5371 30.0155 28.972 28.9654 28.972 27.8705V6.3598C28.9717 5.26509 28.5366 4.21533 27.7626 3.44125C26.9885 2.66718 25.9387 2.23215 24.844 2.2318M13.2373 2.98247C13.3246 2.98409 13.4097 2.9553 13.478 2.90106C13.5464 2.84681 13.5938 2.77047 13.612 2.68513C13.731 2.13746 14.0339 1.64701 14.4703 1.2953C14.9066 0.943592 15.4502 0.751798 16.0107 0.751798C16.5711 0.751798 17.1147 0.943592 17.5511 1.2953C17.9874 1.64701 18.2903 2.13746 18.4093 2.68513C18.4276 2.7707 18.4752 2.84721 18.5438 2.90149C18.6124 2.95576 18.6979 2.9844 18.7853 2.98247H20.804V5.4398C20.8037 5.73815 20.685 6.02418 20.474 6.23514C20.2631 6.44611 19.977 6.56478 19.6787 6.56513H12.34C12.0417 6.56478 11.7556 6.44611 11.5447 6.23514C11.3337 6.02418 11.215 5.73815 11.2147 5.4398V2.98113L13.2373 2.98247ZM28.2213 27.8718C28.2213 29.7385 26.7093 31.2505 24.844 31.2505H7.15601C6.26016 31.2501 5.40112 30.894 4.76779 30.2604C4.13445 29.6268 3.77867 28.7676 3.77867 27.8718V6.3598C3.77867 5.46408 4.1345 4.60504 4.76787 3.97166C5.40124 3.33829 6.26028 2.98247 7.15601 2.98247H10.4627V5.4398C10.4627 6.4758 11.3027 7.3158 12.34 7.3158H19.66C20.696 7.3158 21.536 6.4758 21.536 5.4398V2.98113H24.8427C26.7093 2.98113 28.2213 4.49313 28.2213 6.35847V27.8718Z" fill="#EC5990"/>
</svg>
