<svg width="38" height="34" viewBox="0 0 38 34" fill="none" xmlns="http://www.w3.org/2000/svg">
<g clip-path="url(#clip0_261_145)">
<path d="M23.3628 21L22.6483 22.2409C22.5425 22.4245 22.3902 22.5771 22.2067 22.6831C22.0233 22.7892 21.8151 22.845 21.6032 22.845H16.1289C15.9169 22.845 15.7087 22.7892 15.5253 22.6831C15.3418 22.5771 15.1895 22.4245 15.0837 22.2409L14.369 21H23.3628ZM25.3633 17.5264L24.1034 19.7142H13.6286L12.3687 17.5264H25.3633ZM24.1497 14.1296L25.3654 16.2405H12.3666L13.5823 14.1296H24.1497ZM21.603 10.9185C21.815 10.9184 22.0232 10.9742 22.2067 11.0803C22.3902 11.1863 22.5425 11.3389 22.6483 11.5225L23.4091 12.8437H14.3229L15.0839 11.5225C15.1896 11.3389 15.3419 11.1864 15.5254 11.0803C15.7089 10.9743 15.9171 10.9184 16.129 10.9185H21.603Z" fill="#00435B"/>
<path d="M8.16184 10.3427C7.55545 7.40227 7.4252 5.14695 7.81724 3.50937C8.05037 2.53538 8.47646 1.74083 9.12463 1.16746C9.80888 0.562233 10.6739 0.265219 11.646 0.265219C13.2493 0.265219 14.9351 0.996474 16.7364 2.3855C17.4713 2.95216 18.2338 3.6351 19.0257 4.43476C19.0889 4.3537 19.1601 4.27715 19.2395 4.20628C21.4785 2.21116 23.3637 0.971299 24.9761 0.4934C25.9348 0.209047 26.8348 0.18198 27.6544 0.457892C28.5197 0.748939 29.209 1.35097 29.6955 2.19399C30.4982 3.58534 30.7098 5.41355 30.4106 7.67105C30.2887 8.5912 30.0801 9.59342 29.7855 10.6795C29.8966 10.6928 30.0081 10.7176 30.1184 10.7541C32.9592 11.6956 34.9709 12.7079 36.1888 13.865C36.9135 14.5533 37.3866 15.3196 37.5577 16.168C37.7382 17.0634 37.5621 17.9614 37.0763 18.8039C36.2751 20.1933 34.8018 21.289 32.7031 22.1569C31.8605 22.5054 30.9069 22.8211 29.8415 23.105C29.8901 23.2147 29.9279 23.3313 29.9531 23.4535C30.5595 26.3939 30.6896 28.6493 30.2977 30.2868C30.0646 31.2608 29.6383 32.0554 28.9902 32.6287C28.3061 33.234 27.4409 33.531 26.469 33.531C24.8655 33.531 23.1799 32.7997 21.3786 31.4107C20.6358 30.8379 19.8648 30.1466 19.0637 29.3358C18.9794 29.4676 18.8773 29.5872 18.7605 29.6912C16.5214 31.6866 14.6363 32.9262 13.0239 33.4042C12.0652 33.6886 11.1652 33.7157 10.3456 33.4398C9.48028 33.1487 8.79094 32.5467 8.30445 31.7037C7.50175 30.3123 7.29016 28.4841 7.58935 26.2266C7.71581 25.2733 7.93512 24.2316 8.24683 23.1C8.12258 23.0874 8.00009 23.0612 7.88156 23.0219C5.0408 22.0803 3.02909 21.0681 1.8112 19.911C1.08649 19.2227 0.613397 18.4564 0.442262 17.608C0.261813 16.7126 0.437896 15.8144 0.923653 14.972C1.72491 13.5826 3.19818 12.4869 5.29692 11.6191C6.16468 11.2601 7.15002 10.9362 8.25396 10.6457C8.21399 10.5478 8.18316 10.4463 8.16184 10.3427Z" fill="#002B3B"/>
<path d="M27.9711 23.7428C28.1067 23.7188 28.2463 23.7478 28.3611 23.824C28.4758 23.9001 28.5569 24.0174 28.5874 24.1517L28.5908 24.168L28.6209 24.3244C29.5973 29.4579 28.9095 32.0248 26.5574 32.0248C24.2562 32.0248 21.3267 29.8345 17.7689 25.454C17.7057 25.3761 17.6656 25.2821 17.6532 25.1826C17.6407 25.0831 17.6564 24.9821 17.6985 24.8911C17.7406 24.8001 17.8074 24.7227 17.8913 24.6677C17.9752 24.6127 18.0728 24.5824 18.173 24.5801H18.1896L18.377 24.5814C19.8742 24.5896 21.3296 24.5373 22.7433 24.4249C24.412 24.292 26.1547 24.0647 27.9711 23.7428ZM11.8179 19.8623L11.8269 19.8775L11.9209 20.0415C12.6743 21.3513 13.4591 22.5943 14.2755 23.7709C15.2371 25.1563 16.3183 26.5588 17.5192 27.9785C17.6083 28.0839 17.6534 28.2196 17.645 28.3573C17.6366 28.4951 17.5755 28.6243 17.4742 28.7181L17.4607 28.7302L17.3399 28.8342C13.3661 32.239 10.7833 32.9188 9.59165 30.8733C8.42499 28.8713 8.84803 25.2309 10.8605 19.9522C10.8961 19.8587 10.9572 19.777 11.0369 19.7164C11.1165 19.6558 11.2116 19.6187 11.3112 19.6094C11.4108 19.6 11.5111 19.6188 11.6007 19.6634C11.6902 19.7081 11.7654 19.777 11.8179 19.8623ZM29.9875 12.2872L30.0038 12.2926L30.1534 12.3441C35.0583 14.0503 36.9217 15.9254 35.7438 17.9693C34.5918 19.9682 31.2428 21.4237 25.6967 22.3356C25.5962 22.3521 25.4931 22.3397 25.3994 22.2997C25.3057 22.2597 25.2253 22.1939 25.1677 22.1099C25.1101 22.0259 25.0776 21.9272 25.074 21.8254C25.0705 21.7236 25.096 21.6229 25.1477 21.5351C25.9419 20.1837 26.6575 18.8394 27.294 17.5016C28.0158 15.9845 28.6932 14.3559 29.3262 12.6164C29.3722 12.4899 29.4641 12.3854 29.5835 12.3235C29.703 12.2616 29.8414 12.247 29.9712 12.2824L29.9875 12.2872ZM12.6619 11.4282C12.7226 11.4638 12.7757 11.5111 12.8181 11.5672C12.8606 11.6234 12.8915 11.6874 12.9092 11.7555C12.9269 11.8237 12.931 11.8946 12.9213 11.9643C12.9116 12.0341 12.8882 12.1012 12.8525 12.1619C12.058 13.5131 11.3426 14.8576 10.7061 16.1954C9.98427 17.7124 9.30686 19.3408 8.67384 21.0806C8.62684 21.2098 8.53201 21.316 8.40895 21.3772C8.28588 21.4385 8.14399 21.4501 8.01258 21.4098L7.99628 21.4044L7.84668 21.3527C2.94182 19.6466 1.07839 17.7714 2.25626 15.7276C3.40822 13.7286 6.75729 12.2732 12.3033 11.3614C12.427 11.341 12.5539 11.3646 12.6619 11.4282ZM28.4084 3.02447C29.5751 5.02659 29.152 8.667 27.1396 13.9457C27.104 14.0392 27.0429 14.1209 26.9632 14.1815C26.8835 14.2421 26.7885 14.2792 26.6889 14.2885C26.5892 14.2979 26.489 14.2792 26.3994 14.2345C26.3099 14.1898 26.2346 14.1209 26.1822 14.0356L26.1732 14.0204L26.0792 13.8564C25.3258 12.5467 24.541 11.3036 23.7246 10.127C22.763 8.74165 21.6817 7.3391 20.4809 5.91937C20.3917 5.81401 20.3467 5.67833 20.355 5.54058C20.3634 5.40283 20.4246 5.27361 20.5258 5.17982L20.5394 5.16774L20.6602 5.06369C24.634 1.65888 27.2167 0.979143 28.4084 3.02447ZM11.6438 1.80615C13.9451 1.80615 16.8747 3.99628 20.4323 8.37682C20.4955 8.45468 20.5356 8.54871 20.548 8.64821C20.5605 8.74772 20.5447 8.84873 20.5026 8.93975C20.4606 9.03077 20.3938 9.10816 20.3099 9.16312C20.226 9.21809 20.1284 9.24843 20.0282 9.25069H20.0116L19.8241 9.24953C18.3271 9.24138 16.8716 9.29362 15.458 9.40611C13.7891 9.53897 12.0465 9.76628 10.2301 10.0882C10.0945 10.1122 9.95491 10.0831 9.8402 10.007C9.7255 9.93083 9.64447 9.81349 9.61392 9.67926L9.61043 9.66282L9.5803 9.50652C8.60384 4.37289 9.29158 1.80615 11.6438 1.80615Z" fill="#FF4154"/>
<path d="M16.5691 10.9858H21.1641C21.4943 10.9858 21.8186 11.0729 22.1042 11.2384C22.3899 11.4038 22.6269 11.6418 22.7912 11.9281L25.0985 15.9483C25.2616 16.2325 25.3474 16.5545 25.3474 16.8822C25.3474 17.2098 25.2616 17.5318 25.0985 17.816L22.7912 21.8362C22.6269 22.1225 22.3899 22.3604 22.1042 22.5259C21.8185 22.6913 21.4942 22.7785 21.1641 22.7785H16.5691C15.897 22.7785 15.2764 22.419 14.9418 21.8362L12.6348 17.816C12.4717 17.5318 12.3859 17.2098 12.3859 16.8822C12.3859 16.5545 12.4717 16.2325 12.6348 15.9483L14.942 11.9281C15.1063 11.6417 15.3433 11.4038 15.629 11.2384C15.9147 11.0729 16.2389 10.9858 16.5691 10.9858ZM20.4639 12.1992C21.1362 12.1992 21.7573 12.5591 22.0915 13.1424L23.7004 15.9492C23.8632 16.2332 23.9489 16.5548 23.9489 16.8822C23.9489 17.2095 23.8632 17.5311 23.7004 17.8151L22.0915 20.622C21.9272 20.9085 21.6902 21.1466 21.4044 21.3122C21.1186 21.4778 20.7942 21.565 20.4639 21.565H17.2696C16.5973 21.565 15.9762 21.2052 15.6419 20.622L14.033 17.8151C13.8703 17.5311 13.7846 17.2095 13.7846 16.8822C13.7846 16.5548 13.8703 16.2332 14.033 15.9492L15.6419 13.1424C15.8062 12.8558 16.0432 12.6177 16.329 12.4521C16.6148 12.2866 16.9392 12.1994 17.2695 12.1994L20.4639 12.1992ZM19.709 13.5264H18.0244C17.6944 13.5264 17.3703 13.6134 17.0846 13.7787C16.799 13.944 16.562 14.1818 16.3976 14.4679L15.5475 15.9475C15.3841 16.2319 15.2981 16.5541 15.2981 16.8822C15.2981 17.2102 15.3841 17.5324 15.5475 17.8169L16.3976 19.2965C16.562 19.5827 16.799 19.8204 17.0846 19.9857C17.3703 20.151 17.6944 20.2381 18.0244 20.2381H19.709C20.3808 20.2381 21.0013 19.8789 21.3358 19.2965L22.186 17.8169C22.3494 17.5324 22.4354 17.2102 22.4354 16.8822C22.4354 16.5541 22.3494 16.2319 22.186 15.9475L21.3358 14.4678C21.1714 14.1816 20.9345 13.9439 20.6488 13.7786C20.3632 13.6133 20.039 13.5264 19.709 13.5264ZM18.9823 14.7965C19.6534 14.7965 20.2735 15.1551 20.6082 15.7366L20.7289 15.9462C20.8927 16.2308 20.9789 16.5535 20.9789 16.882C20.9789 17.2105 20.8927 17.5332 20.7289 17.8179L20.6082 18.0274C20.4437 18.3132 20.2068 18.5505 19.9214 18.7156C19.6359 18.8806 19.312 18.9675 18.9823 18.9675H18.7512C18.4215 18.9675 18.0976 18.8806 17.8121 18.7156C17.5267 18.5505 17.2898 18.3132 17.1253 18.0274L17.0046 17.8179C16.8408 17.5332 16.7545 17.2105 16.7545 16.882C16.7545 16.5535 16.8408 16.2308 17.0046 15.9462L17.1253 15.7366C17.2898 15.4508 17.5267 15.2135 17.8121 15.0484C18.0976 14.8834 18.4215 14.7965 18.7512 14.7965H18.9823ZM18.867 16.0479C18.7205 16.0478 18.5765 16.0863 18.4495 16.1595C18.3226 16.2327 18.2171 16.3381 18.1438 16.4649C18.0705 16.5917 18.032 16.7356 18.032 16.882C18.032 17.0284 18.0705 17.1723 18.1438 17.2991C18.2171 17.426 18.3225 17.5313 18.4494 17.6046C18.5763 17.6778 18.7203 17.7164 18.8668 17.7164C19.0133 17.7164 19.1573 17.6778 19.2842 17.6046C19.4111 17.5313 19.5165 17.426 19.5898 17.2991C19.6631 17.1723 19.7017 17.0284 19.7017 16.882C19.7017 16.7356 19.6631 16.5917 19.5898 16.4649C19.5165 16.3381 19.4112 16.2328 19.2843 16.1596C19.1574 16.0864 19.0135 16.0479 18.867 16.0479ZM12.0989 16.882H13.6007H12.0989Z" fill="#FFD94C"/>
</g>
<defs>
<clipPath id="clip0_261_145">
<rect width="37.2544" height="33.4704" fill="white" transform="translate(0.372803 0.264893)"/>
</clipPath>
</defs>
</svg>
