<svg width="38" height="34" viewBox="0 0 38 34" fill="none" xmlns="http://www.w3.org/2000/svg">
<g clip-path="url(#clip0_111_234)">
<path d="M23.22 20.869L22.5289 22.0693C22.4265 22.2469 22.2792 22.3944 22.1017 22.497C21.9243 22.5996 21.7229 22.6536 21.5179 22.6536H16.2228C16.0178 22.6536 15.8164 22.5996 15.639 22.497C15.4615 22.3944 15.3142 22.2469 15.2119 22.0693L14.5206 20.869H23.22ZM25.155 17.5091L23.9363 19.6253H13.8044L12.5857 17.5091H25.155ZM23.9811 14.2234L25.157 16.2653H12.5837L13.7596 14.2234H23.9811ZM21.5178 11.1174C21.7228 11.1174 21.9242 11.1714 22.1017 11.274C22.2792 11.3765 22.4265 11.5241 22.5289 11.7017L23.2648 12.9797H14.476L15.212 11.7017C15.3143 11.5241 15.4616 11.3766 15.6391 11.274C15.8166 11.1714 16.018 11.1174 16.2229 11.1174H21.5178Z" fill="#00435B"/>
<path d="M8.51663 10.5606C7.93008 7.71638 7.8041 5.53488 8.18331 3.95091C8.4088 3.0088 8.82095 2.24025 9.4479 1.68565C10.1098 1.10023 10.9464 0.812938 11.8867 0.812938C13.4376 0.812938 15.0682 1.52026 16.8105 2.86381C17.5213 3.41193 18.2589 4.07252 19.0249 4.846C19.086 4.7676 19.1549 4.69356 19.2317 4.62501C21.3975 2.69518 23.2209 1.49591 24.7805 1.03365C25.7078 0.758605 26.5784 0.732423 27.3712 0.999305C28.2081 1.28083 28.8749 1.86315 29.3455 2.67857C30.1219 4.02438 30.3266 5.79275 30.0372 7.97637C29.9192 8.86639 29.7175 9.83581 29.4325 10.8863C29.54 10.8993 29.6478 10.9232 29.7545 10.9585C32.5023 11.8692 34.4482 12.8484 35.6262 13.9675C36.3272 14.6333 36.7848 15.3746 36.9503 16.1952C37.1249 17.0613 36.9546 17.9299 36.4847 18.7448C35.7097 20.0888 34.2846 21.1486 32.2546 21.9881C31.4396 22.3252 30.5172 22.6305 29.4867 22.9051C29.5337 23.0112 29.5703 23.124 29.5946 23.2422C30.1812 26.0864 30.307 28.2679 29.9279 29.8519C29.7024 30.794 29.2902 31.5626 28.6632 32.1172C28.0015 32.7026 27.1647 32.9899 26.2245 32.9899C24.6735 32.9899 23.0431 32.2826 21.3008 30.939C20.5823 30.385 19.8366 29.7162 19.0617 28.932C18.9801 29.0595 18.8814 29.1752 18.7683 29.2758C16.6026 31.2059 14.7792 32.4049 13.2196 32.8673C12.2922 33.1423 11.4216 33.1685 10.6289 32.9016C9.79191 32.6201 9.12513 32.0378 8.65457 31.2224C7.87814 29.8765 7.67347 28.1082 7.96288 25.9246C8.0852 25.0024 8.29732 23.9949 8.59883 22.9003C8.47865 22.8881 8.36017 22.8628 8.24552 22.8247C5.49774 21.914 3.55187 20.9349 2.37385 19.8157C1.67287 19.1499 1.21525 18.4087 1.04972 17.588C0.875178 16.7219 1.0455 15.8532 1.51536 15.0383C2.29038 13.6945 3.71544 12.6345 5.74548 11.7952C6.58483 11.4479 7.53792 11.1346 8.60573 10.8536C8.56707 10.7589 8.53724 10.6608 8.51663 10.5606Z" fill="#002B3B"/>
<path d="M27.6775 23.522C27.8086 23.4987 27.9437 23.5268 28.0546 23.6005C28.1656 23.6741 28.244 23.7876 28.2736 23.9175L28.2768 23.9333L28.3059 24.0846C29.2504 29.05 28.5851 31.5329 26.31 31.5329C24.0841 31.5329 21.2505 29.4143 17.8092 25.1772C17.748 25.1019 17.7092 25.0109 17.6972 24.9147C17.6852 24.8184 17.7004 24.7207 17.7411 24.6327C17.7818 24.5446 17.8464 24.4698 17.9275 24.4166C18.0087 24.3634 18.1031 24.3341 18.2001 24.3319H18.2161L18.3974 24.3332C19.8456 24.341 21.2533 24.2905 22.6208 24.1817C24.2349 24.0532 25.9205 23.8333 27.6775 23.522ZM12.0529 19.7685L12.0617 19.7832L12.1526 19.9419C12.8813 21.2087 13.6404 22.4111 14.4301 23.5491C15.3602 24.8892 16.4061 26.2458 17.5676 27.6191C17.6538 27.721 17.6974 27.8522 17.6893 27.9855C17.6812 28.1187 17.6221 28.2437 17.5241 28.3344L17.511 28.3461L17.3942 28.4467C13.5505 31.7401 11.0523 32.3976 9.89958 30.4191C8.7711 28.4826 9.18029 24.9614 11.1269 19.8554C11.1613 19.765 11.2204 19.686 11.2975 19.6274C11.3745 19.5688 11.4665 19.5329 11.5628 19.5239C11.6592 19.5148 11.7562 19.5329 11.8428 19.5761C11.9294 19.6194 12.0022 19.686 12.0529 19.7685ZM29.6278 12.4413L29.6436 12.4465L29.7883 12.4964C34.5326 14.1468 36.335 15.9605 35.1957 17.9374C34.0815 19.8709 30.842 21.2788 25.4775 22.1608C25.3803 22.1768 25.2805 22.1648 25.1899 22.1261C25.0992 22.0875 25.0215 22.0238 24.9658 21.9425C24.91 21.8612 24.8786 21.7658 24.8752 21.6673C24.8718 21.5688 24.8965 21.4714 24.9464 21.3865C25.7147 20.0794 26.4068 18.779 27.0225 17.485C27.7207 16.0176 28.3759 14.4424 28.9882 12.7597C29.0327 12.6374 29.1215 12.5363 29.2371 12.4765C29.3527 12.4166 29.4865 12.4024 29.6121 12.4367L29.6278 12.4413ZM12.8693 11.6104C12.9281 11.6449 12.9794 11.6906 13.0204 11.7449C13.0615 11.7993 13.0914 11.8612 13.1086 11.9271C13.1257 11.993 13.1296 12.0616 13.1202 12.129C13.1108 12.1965 13.0882 12.2614 13.0537 12.3201C12.2852 13.6271 11.5932 14.9276 10.9775 16.2216C10.2793 17.689 9.62411 19.2641 9.0118 20.9469C8.96634 21.0719 8.87462 21.1746 8.75558 21.2338C8.63654 21.2931 8.49929 21.3043 8.37219 21.2653L8.35642 21.2601L8.21172 21.2101C3.4674 19.5598 1.66496 17.746 2.80428 15.7692C3.91853 13.8355 7.15799 12.4278 12.5225 11.5458C12.6421 11.5261 12.7649 11.5489 12.8693 11.6104ZM28.1004 3.48179C29.2289 5.41837 28.8197 8.93963 26.8731 14.0456C26.8387 14.136 26.7796 14.215 26.7025 14.2736C26.6255 14.3322 26.5336 14.3681 26.4372 14.3771C26.3408 14.3862 26.2438 14.3681 26.1572 14.3249C26.0706 14.2816 25.9978 14.215 25.9471 14.1326L25.9384 14.1178L25.8474 13.9591C25.1187 12.6923 24.3596 11.4899 23.5699 10.3519C22.6398 9.01184 21.5939 7.65519 20.4324 6.28193C20.3462 6.18002 20.3026 6.04878 20.3107 5.91554C20.3188 5.78229 20.3779 5.65731 20.4759 5.56659L20.489 5.55491L20.6058 5.45426C24.4495 2.1609 26.9478 1.5034 28.1004 3.48179ZM11.8846 2.30334C14.1106 2.30334 16.9442 4.42179 20.3854 8.65895C20.4465 8.73426 20.4853 8.8252 20.4973 8.92146C20.5094 9.01771 20.4942 9.1154 20.4534 9.20345C20.4127 9.29149 20.3481 9.36635 20.267 9.41951C20.1859 9.47268 20.0915 9.50203 19.9945 9.50422H19.9784L19.7971 9.50309C18.3491 9.49521 16.9412 9.54574 15.5739 9.65455C13.9597 9.78306 12.2741 10.0029 10.5171 10.3143C10.386 10.3375 10.2509 10.3094 10.14 10.2357C10.029 10.1621 9.95067 10.0486 9.92111 9.91875L9.91774 9.90285L9.8886 9.75167C8.9441 4.78607 9.60933 2.30334 11.8846 2.30334Z" fill="#FF4154"/>
<path d="M16.6486 11.1825H21.0932C21.4126 11.1825 21.7263 11.2667 22.0026 11.4268C22.2789 11.5868 22.5082 11.8169 22.6671 12.0939L24.8988 15.9826C25.0566 16.2575 25.1396 16.5689 25.1396 16.8858C25.1396 17.2028 25.0566 17.5142 24.8988 17.7891L22.6671 21.6777C22.5081 21.9547 22.2789 22.1848 22.0026 22.3448C21.7262 22.5049 21.4126 22.5891 21.0932 22.5891H16.6486C15.9986 22.5891 15.3982 22.2415 15.0746 21.6777L12.8431 17.7891C12.6854 17.5142 12.6024 17.2028 12.6024 16.8858C12.6024 16.5689 12.6854 16.2575 12.8431 15.9826L15.0748 12.0939C15.2337 11.8169 15.463 11.5868 15.7393 11.4268C16.0157 11.2667 16.3292 11.1825 16.6486 11.1825ZM20.4159 12.3562C21.0662 12.3562 21.667 12.7043 21.9903 13.2684L23.5466 15.9834C23.704 16.2581 23.7868 16.5692 23.7868 16.8858C23.7868 17.2024 23.704 17.5135 23.5466 17.7882L21.9903 20.5032C21.8314 20.7804 21.6021 21.0107 21.3257 21.1709C21.0492 21.331 20.7354 21.4154 20.4159 21.4153H17.3262C16.6759 21.4153 16.0751 21.0674 15.7518 20.5032L14.1956 17.7882C14.0381 17.5135 13.9553 17.2024 13.9553 16.8858C13.9553 16.5692 14.0381 16.2581 14.1956 15.9834L15.7518 13.2684C15.9107 12.9913 16.14 12.761 16.4164 12.6008C16.6928 12.4407 17.0066 12.3563 17.3261 12.3563L20.4159 12.3562ZM19.6858 13.6399H18.0563C17.7371 13.6399 17.4236 13.7241 17.1473 13.884C16.871 14.0439 16.6418 14.2738 16.4828 14.5506L15.6605 15.9817C15.5024 16.2568 15.4192 16.5685 15.4192 16.8858C15.4192 17.2031 15.5024 17.5148 15.6605 17.7899L16.4828 19.2212C16.6418 19.498 16.871 19.7279 17.1473 19.8878C17.4236 20.0477 17.7371 20.1319 18.0563 20.1319H19.6858C20.3355 20.1319 20.9357 19.7845 21.2593 19.2212L22.0817 17.7899C22.2397 17.5148 22.3229 17.2031 22.3229 16.8858C22.3229 16.5685 22.2397 16.2568 22.0817 15.9817L21.2593 14.5505C21.1003 14.2737 20.8711 14.0437 20.5948 13.8838C20.3186 13.7239 20.005 13.6399 19.6858 13.6399ZM18.9828 14.8684C19.632 14.8684 20.2318 15.2153 20.5555 15.7778L20.6722 15.9804C20.8307 16.2558 20.9141 16.568 20.9141 16.8857C20.9141 17.2034 20.8307 17.5155 20.6722 17.7909L20.5555 17.9936C20.3964 18.27 20.1673 18.4996 19.8912 18.6592C19.6151 18.8189 19.3018 18.9029 18.9828 18.9029H18.7593C18.4404 18.9029 18.1271 18.8189 17.851 18.6592C17.5749 18.4996 17.3457 18.27 17.1866 17.9936L17.0699 17.7909C16.9114 17.5155 16.828 17.2034 16.828 16.8857C16.828 16.568 16.9114 16.2558 17.0699 15.9804L17.1866 15.7778C17.3457 15.5014 17.5749 15.2718 17.851 15.1121C18.1271 14.9525 18.4404 14.8684 18.7593 14.8684H18.9828ZM18.8713 16.0788C18.7296 16.0788 18.5903 16.116 18.4675 16.1868C18.3447 16.2577 18.2427 16.3595 18.1718 16.4823C18.1009 16.6049 18.0636 16.744 18.0636 16.8857C18.0636 17.0273 18.1009 17.1665 18.1718 17.2891C18.2427 17.4118 18.3446 17.5137 18.4674 17.5846C18.5901 17.6555 18.7294 17.6928 18.8711 17.6928C19.0129 17.6928 19.1521 17.6555 19.2749 17.5846C19.3976 17.5137 19.4996 17.4118 19.5705 17.2891C19.6414 17.1665 19.6787 17.0273 19.6787 16.8857C19.6787 16.744 19.6414 16.6049 19.5705 16.4823C19.4996 16.3596 19.3977 16.2577 19.275 16.1869C19.1522 16.1161 19.013 16.0788 18.8713 16.0788ZM12.3247 16.8857H13.7774H12.3247Z" fill="#FFD94C"/>
</g>
<defs>
<clipPath id="clip0_111_234">
<rect width="36.035" height="32.3748" fill="white" transform="translate(0.982498 0.812622)"/>
</clipPath>
</defs>
</svg>
