<svg width="28" height="28" viewBox="0 0 28 28" fill="none" xmlns="http://www.w3.org/2000/svg">
<g clip-path="url(#clip0_262_505)">
<path d="M19.401 19.2741C17.4323 23.2991 13.9848 26.0072 9.42382 26.8975C8.7245 27.0688 8.00661 27.1526 7.28663 27.1469C4.66163 27.1469 2.25538 26.0531 1.08726 24.2616C-0.48118 21.875 -1.01493 16.8153 4.15632 13.0725C4.26132 13.6434 4.4757 14.4266 4.61788 14.8903C3.60274 15.6445 2.7718 16.619 2.18757 17.7406C1.22507 19.6306 1.33226 21.5184 2.47194 23.2641C3.25944 24.4409 4.50632 25.1562 6.10976 25.375C8.11249 25.6285 10.1442 25.2459 11.9176 24.2812C14.6979 22.82 16.5507 21.0744 17.7626 18.6878C17.4199 18.3337 17.2171 17.8674 17.1916 17.3753C17.1733 16.8472 17.3653 16.3334 17.7253 15.9467C18.0854 15.56 18.5842 15.3319 19.1123 15.3125H19.1866C19.7002 15.3099 20.1952 15.5049 20.5691 15.8571C20.9429 16.2092 21.1671 16.6917 21.1952 17.2045C21.2233 17.7174 21.0532 18.2214 20.72 18.6123C20.3869 19.0032 19.9162 19.2511 19.4054 19.3047L19.401 19.2741ZM25.6726 14.8553C28.3435 17.8828 28.4157 21.4462 27.3832 23.5134C26.4207 25.4012 23.8832 27.2912 20.4707 27.2912C18.8777 27.2587 17.3106 26.8819 15.8769 26.1866C16.3779 25.83 17.0888 25.2591 17.4804 24.9025C18.5859 25.3814 19.7757 25.6357 20.9804 25.6506C23.1898 25.6506 24.8632 24.6181 25.8607 22.7303C26.5016 21.4834 26.5388 20.0222 25.9329 18.5259C25.1894 16.6433 23.8663 15.046 22.1551 13.965C19.91 12.4516 17.2633 11.6447 14.5557 11.6484H13.9148C13.7653 11.9937 13.5222 12.2902 13.2129 12.5044C12.9036 12.7185 12.5405 12.8418 12.1648 12.8603H12.0969C11.5772 12.8539 11.0805 12.6452 10.7122 12.2784C10.3439 11.9117 10.1331 11.4158 10.1246 10.8961C10.116 10.3764 10.3104 9.87387 10.6664 9.4952C11.0225 9.11654 11.5121 8.89158 12.0313 8.86812H12.1035C12.4653 8.86839 12.8201 8.96836 13.1288 9.15707C13.4375 9.34577 13.6883 9.61591 13.8535 9.9378H14.4244C18.9744 9.9378 22.9688 11.6834 25.6726 14.8553ZM7.57101 19.8866C7.53355 19.5233 7.62155 19.1582 7.82038 18.8519C5.82538 15.3956 4.75788 11.0141 6.39632 6.45312C7.57101 3.0253 10.5285 0.70874 13.7354 0.70874C17.1566 0.70874 20.7201 3.70343 21.1466 9.47405C20.6129 9.29687 19.8341 9.03655 19.366 8.9403C19.2501 7.05249 17.6554 2.34937 13.8776 2.41937C12.5235 2.45655 10.5285 3.09749 9.50257 4.41437C8.23352 5.98635 7.49527 7.92005 7.39382 9.9378C7.15335 12.7045 7.80247 15.4757 9.24663 17.8478C9.32636 17.8187 9.41134 17.8067 9.49601 17.8128H9.56601C10.0951 17.8032 10.6064 18.0042 10.9873 18.3716C11.3682 18.739 11.5875 19.2426 11.5971 19.7717C11.6067 20.3008 11.4057 20.8121 11.0383 21.193C10.6709 21.5739 10.1673 21.7932 9.6382 21.8028H9.56601C9.04982 21.801 8.55426 21.6 8.1826 21.2418C7.81094 20.8836 7.59185 20.3958 7.57101 19.88V19.8866Z" fill="#764ABC"/>
</g>
<defs>
<clipPath id="clip0_262_505">
<rect width="28" height="28" fill="white"/>
</clipPath>
</defs>
</svg>
