<svg width="32" height="32" viewBox="0 0 32 32" fill="none" xmlns="http://www.w3.org/2000/svg">
<g clip-path="url(#clip0_111_460)">
<path d="M24.5 0H7.5C3.35786 0 0 3.35786 0 7.5V24.5C0 28.6421 3.35786 32 7.5 32H24.5C28.6421 32 32 28.6421 32 24.5V7.5C32 3.35786 28.6421 0 24.5 0Z" fill="#584674"/>
<path d="M17.023 6.39716C17.3387 6.5755 17.603 6.83244 17.7901 7.14303L26.9708 22.8599C27.1538 23.1712 27.2502 23.5258 27.25 23.8869C27.2511 24.1603 27.1981 24.4313 27.0939 24.6841C26.9896 24.9368 26.8364 25.1665 26.6429 25.3597C26.4493 25.5528 26.2194 25.7057 25.9664 25.8093C25.7134 25.913 25.4423 25.9655 25.1689 25.9637H23.0156C23.0426 25.3919 23.0426 24.8191 23.0156 24.2473H25.1597C25.22 24.2486 25.2796 24.2341 25.3325 24.205C25.3853 24.1759 25.4295 24.1334 25.4606 24.0817C25.4917 24.03 25.5086 23.971 25.5096 23.9107C25.5106 23.8504 25.4956 23.7909 25.4661 23.7383C25.2995 23.5582 16.3981 8.02591 16.1594 7.89528C16.0804 7.8491 15.9865 7.83597 15.8979 7.85875C15.8093 7.88153 15.7334 7.93838 15.6865 8.01691L13.5828 11.6207C15.9607 13.1527 17.8949 15.2821 19.1921 17.7958C20.4893 20.3096 21.1041 23.1198 20.975 25.9457H15.4296C15.5576 24.0803 15.197 22.2138 14.3833 20.5304C13.5697 18.8469 12.3311 17.4047 10.7899 16.3462L9.74925 18.148C10.9705 19.0274 11.944 20.2074 12.5754 21.5735C13.2067 22.9396 13.4746 24.4456 13.353 25.9457H6.80775C6.45091 25.9436 6.10049 25.8505 5.78963 25.6753C5.55367 25.5421 5.34653 25.3633 5.18026 25.1494C5.01399 24.9355 4.89189 24.6906 4.82106 24.4291C4.75023 24.1675 4.73208 23.8945 4.76767 23.6259C4.80326 23.3573 4.89188 23.0985 5.02838 22.8644L6.33925 20.612C6.89131 20.8036 7.40409 21.0935 7.85275 21.4679L6.52838 23.7203C6.50204 23.7706 6.48866 23.8268 6.48945 23.8836C6.49024 23.9405 6.50517 23.9962 6.53289 24.0458C6.56062 24.0954 6.60026 24.1374 6.64825 24.1678C6.69623 24.1983 6.75105 24.2163 6.80775 24.2203H11.5871C11.4092 23.0312 10.9352 21.9059 10.2087 20.9479C9.48215 19.99 8.52642 19.23 7.42938 18.738L10.1728 13.9947C12.1242 14.9466 13.7932 16.3916 15.0147 18.1867C16.2361 19.9817 16.9677 22.0647 17.137 24.2293H19.2181C19.0485 21.704 18.2213 19.267 16.8186 17.1603C15.4159 15.0536 13.4866 13.3504 11.2222 12.2198L14.1864 7.14303C14.469 6.67386 14.9235 6.33344 15.4532 6.19416C15.983 6.05487 16.5461 6.1277 17.023 6.39716Z" fill="white"/>
</g>
<defs>
<clipPath id="clip0_111_460">
<rect width="32" height="32" fill="white"/>
</clipPath>
</defs>
</svg>
