<svg width="28" height="28" viewBox="0 0 28 28" fill="none" xmlns="http://www.w3.org/2000/svg">
<g clip-path="url(#clip0_262_491)">
<path d="M21.4375 0H6.5625C2.93813 0 0 2.93813 0 6.5625V21.4375C0 25.0619 2.93813 28 6.5625 28H21.4375C25.0619 28 28 25.0619 28 21.4375V6.5625C28 2.93813 25.0619 0 21.4375 0Z" fill="#584674"/>
<path d="M14.8951 5.59751C15.1714 5.75357 15.4026 5.97839 15.5663 6.25015L23.5994 20.0024C23.7596 20.2748 23.8439 20.5851 23.8437 20.901C23.8447 21.1403 23.7983 21.3774 23.7071 21.5985C23.6159 21.8197 23.4818 22.0207 23.3125 22.1897C23.1432 22.3587 22.942 22.4925 22.7206 22.5832C22.4992 22.6739 22.262 22.7198 22.0227 22.7182H20.1387C20.1623 22.2179 20.1623 21.7167 20.1387 21.2164H22.0148C22.0675 21.2176 22.1197 21.2048 22.1659 21.1793C22.2121 21.1539 22.2508 21.1167 22.278 21.0715C22.3052 21.0263 22.32 20.9746 22.3209 20.9219C22.3217 20.8691 22.3086 20.8171 22.2828 20.771C22.137 20.6134 14.3483 7.02267 14.1394 6.90837C14.0704 6.86797 13.9881 6.85648 13.9106 6.87641C13.8331 6.89634 13.7667 6.94608 13.7257 7.01479L11.8849 10.1681C13.9656 11.5086 15.658 13.3718 16.7931 15.5714C17.9281 17.7709 18.4661 20.2299 18.3531 22.7025H13.5009C13.6129 21.0703 13.2973 19.4371 12.5854 17.9641C11.8734 16.4911 10.7897 15.2292 9.44112 14.3029L8.53057 15.8795C9.5992 16.649 10.451 17.6814 11.0034 18.8768C11.5559 20.0721 11.7903 21.3899 11.6839 22.7025H5.95676C5.64452 22.7006 5.33791 22.6192 5.0659 22.4659C4.85944 22.3493 4.6782 22.1929 4.53271 22.0057C4.38722 21.8185 4.28038 21.6043 4.2184 21.3754C4.15643 21.1466 4.14055 20.9077 4.17169 20.6727C4.20283 20.4377 4.28037 20.2112 4.39981 20.0064L5.54682 18.0355C6.02987 18.2031 6.47856 18.4568 6.87114 18.7844L5.71231 20.7552C5.68926 20.7993 5.67756 20.8484 5.67825 20.8982C5.67894 20.9479 5.692 20.9967 5.71626 21.0401C5.74052 21.0835 5.77521 21.1202 5.8172 21.1468C5.85918 21.1735 5.90715 21.1893 5.95676 21.1927H10.1387C9.98305 20.1523 9.56829 19.1677 8.93258 18.3295C8.29686 17.4912 7.46059 16.8263 6.50068 16.3958L8.90114 12.2453C10.6086 13.0783 12.069 14.3427 13.1378 15.9133C14.2066 17.484 14.8467 19.3066 14.9949 21.2006H16.8158C16.6674 18.991 15.9436 16.8587 14.7163 15.0153C13.4889 13.1719 11.8008 11.6816 9.81945 10.6923L12.4131 6.25015C12.6604 5.83963 13.0581 5.54176 13.5216 5.41989C13.9851 5.29801 14.4778 5.36173 14.8951 5.59751Z" fill="white"/>
</g>
<defs>
<clipPath id="clip0_262_491">
<rect width="28" height="28" fill="white"/>
</clipPath>
</defs>
</svg>
