<svg width="28" height="28" viewBox="0 0 28 28" fill="none" xmlns="http://www.w3.org/2000/svg">
<g clip-path="url(#clip0_136_226)">
<path d="M25.9221 13.7482L13.7479 25.9224C13.5381 26.1543 13.4255 26.458 13.4333 26.7707C13.4412 27.0834 13.5689 27.3811 13.79 27.6023C14.0112 27.8234 14.3089 27.9512 14.6216 27.959C14.9343 27.9668 15.238 27.8542 15.4699 27.6444L27.6441 15.4702C27.8539 15.2382 27.9666 14.9345 27.9587 14.6218C27.9509 14.3091 27.8232 14.0114 27.602 13.7903C27.3809 13.5691 27.0832 13.4414 26.7705 13.4336C26.4578 13.4257 26.1541 13.5384 25.9221 13.7482ZM23.4873 0.356024L0.35578 23.4875C0.145963 23.7195 0.0333223 24.0232 0.0411541 24.3359C0.0489859 24.6486 0.176691 24.9463 0.397858 25.1674C0.619024 25.3886 0.916733 25.5163 1.22941 25.5242C1.54209 25.532 1.84582 25.4193 2.07778 25.2095L25.2093 2.07802C25.4191 1.84606 25.5317 1.54233 25.5239 1.22966C25.5161 0.916977 25.3884 0.619268 25.1672 0.398102C24.946 0.176935 24.6483 0.0492301 24.3357 0.0413983C24.023 0.0335665 23.7192 0.146207 23.4873 0.356024Z" fill="#F2F2F2"/>
</g>
<defs>
<clipPath id="clip0_136_226">
<rect width="28" height="28" fill="white"/>
</clipPath>
</defs>
</svg>
