<svg width="32" height="32" viewBox="0 0 32 32" fill="none" xmlns="http://www.w3.org/2000/svg">
<g clip-path="url(#clip0_136_226)">
<path d="M29.6253 15.7122L15.712 29.6256C15.4722 29.8907 15.3435 30.2378 15.3524 30.5951C15.3614 30.9525 15.5073 31.2927 15.7601 31.5455C16.0129 31.7982 16.3531 31.9442 16.7104 31.9531C17.0678 31.9621 17.4149 31.8333 17.68 31.5936L31.5933 17.6802C31.8331 17.4151 31.9619 17.068 31.9529 16.7107C31.944 16.3533 31.798 16.0131 31.5452 15.7603C31.2925 15.5075 30.9522 15.3616 30.5949 15.3526C30.2376 15.3437 29.8904 15.4724 29.6253 15.7122ZM26.8427 0.406884L0.406667 26.8429C0.166876 27.108 0.0381443 27.4551 0.0470949 27.8125C0.0560455 28.1698 0.201994 28.51 0.454756 28.7628C0.707518 29.0156 1.04776 29.1615 1.4051 29.1705C1.76245 29.1794 2.10957 29.0507 2.37467 28.8109L28.8107 2.37488C29.0505 2.10979 29.1792 1.76267 29.1702 1.40532C29.1613 1.04797 29.0153 0.707735 28.7626 0.454973C28.5098 0.202212 28.1696 0.056263 27.8122 0.0473123C27.4549 0.0383617 27.1078 0.167094 26.8427 0.406884Z" fill="#F2F2F2"/>
</g>
<defs>
<clipPath id="clip0_136_226">
<rect width="32" height="32" fill="white"/>
</clipPath>
</defs>
</svg>
