<svg width="32" height="32" viewBox="0 0 32 32" fill="none" xmlns="http://www.w3.org/2000/svg">
<g clip-path="url(#clip0_111_259)">
<path d="M29.422 24.5605C27.6787 24.5127 26.3477 24.6757 25.209 25.1552C24.8857 25.292 24.3702 25.295 24.3175 25.7002C24.4952 25.8867 24.5225 26.165 24.6642 26.3945C24.9357 26.833 25.3947 27.4227 25.804 27.7325C26.2512 28.0695 26.7122 28.4307 27.1917 28.7227C28.0452 29.2432 28.9975 29.5402 29.8177 30.0607C30.3022 30.3682 30.7825 30.755 31.2552 31.1017C31.4887 31.2727 31.646 31.5392 31.9485 31.6467V31.598C31.7892 31.395 31.7482 31.1155 31.6017 30.9037L30.9572 30.2592C30.3272 29.4232 29.5275 28.689 28.678 28.0795C28.0002 27.5922 26.4827 26.935 26.2005 26.147L26.1507 26.0972C26.6312 26.0425 27.1937 25.8687 27.638 25.7495C28.383 25.5502 29.0492 25.602 29.8177 25.4027L30.8587 25.106V24.9077C30.47 24.5092 30.1927 23.981 29.769 23.6197C28.6587 22.6745 27.4477 21.731 26.2007 20.944C25.5092 20.5075 24.6547 20.2232 23.9215 19.8532C23.6745 19.7292 23.2417 19.6637 23.0787 19.4567C22.694 18.9665 22.484 18.3445 22.1872 17.7722C21.5652 16.574 20.9547 15.2665 20.403 14.0057C20.027 13.1465 19.782 12.2987 19.3132 11.5282C17.0632 7.82896 14.6415 5.59571 10.8895 3.40121C10.0907 2.93446 9.12972 2.74996 8.11397 2.50871L6.47822 2.40996C6.14522 2.27121 5.79947 1.86396 5.48697 1.66571C4.24422 0.87996 1.05572 -0.82804 0.134719 1.41796C-0.446281 2.83496 1.00397 4.21771 1.52247 4.93646C1.88672 5.43946 2.35247 6.00471 2.61222 6.57121C2.78422 6.94421 2.81347 7.31721 2.95997 7.71096C3.31947 8.68171 3.63372 9.73821 4.09972 10.6347C4.33497 11.0887 4.59472 11.5665 4.89272 11.9727C5.07447 12.2217 5.38772 12.3322 5.43772 12.716C5.13097 13.1447 5.11347 13.8097 4.94172 14.3517C4.16722 16.7942 4.46022 19.8292 5.58622 21.636C5.93197 22.1917 6.74647 23.381 7.86547 22.925C8.84497 22.5255 8.62622 21.2902 8.90647 20.1995C8.96997 19.9525 8.93097 19.7707 9.05497 19.6047V19.6545L9.94747 21.4377C10.6077 22.5012 11.7785 23.6125 12.7717 24.3625C13.2865 24.7512 13.6917 25.423 14.3577 25.6505V25.6007H14.308C14.179 25.3995 13.977 25.3165 13.813 25.1555C13.4252 24.7747 12.9937 24.302 12.6732 23.8665C11.77 22.641 10.972 21.299 10.2455 19.9027C9.89772 19.2357 9.59597 18.5005 9.30297 17.8217C9.18972 17.56 9.19172 17.1635 8.95622 17.0287C8.63597 17.5257 8.16322 17.9282 7.91522 18.515C7.51972 19.4535 7.46797 20.599 7.32147 21.7855C7.23447 21.8167 7.27272 21.7952 7.22197 21.8352C6.53147 21.6682 6.28947 20.9582 6.03247 20.348C5.38397 18.807 5.26297 16.3255 5.83422 14.5502C5.98172 14.0912 6.64972 12.646 6.37922 12.2212C6.25022 11.7985 5.82447 11.5532 5.58622 11.23C5.29122 10.8305 4.99747 10.3042 4.79322 9.84221C4.26197 8.64096 4.01497 7.29146 3.45522 6.07671C3.18772 5.49571 2.73647 4.90771 2.36547 4.39221C1.95422 3.81996 1.49447 3.39796 1.17597 2.70671C1.06272 2.46071 0.909469 2.06696 1.07647 1.81521C1.13022 1.64421 1.20547 1.57296 1.37422 1.51746C1.66122 1.29571 2.46222 1.59171 2.76097 1.71571C3.55597 2.04571 4.21897 2.36021 4.89272 2.80646C5.21497 3.02021 5.54222 3.43446 5.93272 3.54971H6.37897C7.07622 3.70996 7.85747 3.59846 8.50972 3.79671C9.66197 4.14721 10.6942 4.69221 11.6317 5.28396C14.4872 7.08771 16.8232 9.65396 18.4207 12.7175C18.6775 13.2107 18.789 13.6805 19.0155 14.2037C19.4715 15.2585 20.0467 16.3435 20.5007 17.3757C20.9547 18.404 21.3962 19.4432 22.0377 20.2995C22.3747 20.7497 23.6755 20.991 24.2672 21.241C24.6822 21.4157 25.362 21.5985 25.7545 21.8357C26.5045 22.288 27.231 22.827 27.9352 23.322C28.2857 23.57 29.3677 24.114 29.4215 24.5612L29.422 24.5605ZM7.27072 5.68046C6.90747 5.67371 6.65072 5.71946 6.37922 5.77921V5.82896H6.42797C6.60172 6.18446 6.90747 6.41396 7.12222 6.72046L7.61722 7.76146L7.66697 7.71271C7.97372 7.49596 8.11422 7.15021 8.11222 6.62196C7.98922 6.49196 7.97172 6.33096 7.86422 6.17571C7.72372 5.96971 7.44922 5.85346 7.27047 5.68071L7.27072 5.68046Z" fill="#00618A"/>
</g>
<defs>
<clipPath id="clip0_111_259">
<rect width="32" height="32" fill="white"/>
</clipPath>
</defs>
</svg>
