<svg width="32" height="32" viewBox="0 0 32 32" fill="none" xmlns="http://www.w3.org/2000/svg">
<g clip-path="url(#clip0_140_369)">
<mask id="mask0_140_369" style="mask-type:luminance" maskUnits="userSpaceOnUse" x="0" y="0" width="32" height="32">
<path d="M24.5 0H7.5C3.35786 0 0 3.35786 0 7.5V24.5C0 28.6421 3.35786 32 7.5 32H24.5C28.6421 32 32 28.6421 32 24.5V7.5C32 3.35786 28.6421 0 24.5 0Z" fill="white"/>
</mask>
<g mask="url(#mask0_140_369)">
<path d="M7.5 0C3.35787 0 0 3.35787 0 7.5V24.5C0 28.6421 3.35787 32 7.5 32H21.0575C20.8351 31.3446 20.661 30.3068 20.563 29.1221C20.4786 28.1031 20.4506 26.9757 20.4974 25.8884C20.4848 25.7276 20.4771 25.6231 20.4771 25.6231C20.4771 25.6231 20.2429 24.0469 19.9058 22.752C19.7565 22.1772 19.5866 21.6575 19.4083 21.3563C19.3164 21.2009 19.4183 20.5624 19.6746 19.6168C19.8246 19.8756 20.4575 20.9832 20.5846 21.3403C20.7278 21.7437 20.7577 21.8594 20.7577 21.8594C20.7577 21.8594 20.4106 20.0754 19.8411 19.0344C19.9799 18.5705 20.1275 18.1093 20.2839 17.6511C20.4811 17.997 20.9295 18.7913 21.0915 19.1676C21.1065 19.2025 21.12 19.2353 21.1299 19.2623C21.1529 19.3275 21.1722 19.3829 21.1896 19.4336C21.281 19.6984 21.3032 19.7826 21.3032 19.7826C21.3032 19.7826 21.2694 19.6094 21.2064 19.3421C21.1798 19.2292 21.1466 19.0965 21.1098 18.9551C20.9663 18.404 20.7483 17.6825 20.4691 17.1171C21.1856 13.3929 23.4917 8.51625 25.9762 5.88363C26.1904 5.65688 26.4055 5.44475 26.621 5.2535C28.0734 3.966 29.545 3.531 30.7604 4.61375C31.6396 5.39713 31.9994 6.47937 32 7.725V7.5C32 3.35787 28.6421 0 24.5 0H7.5Z" fill="#D9D9D9"/>
<path d="M7.5 0C3.35787 0 0 3.35787 0 7.5V24.5C0 28.6421 3.35787 32 7.5 32H21.0575C20.8351 31.3446 20.661 30.3068 20.563 29.1221C20.4786 28.1031 20.4506 26.9757 20.4974 25.8884C20.4848 25.7276 20.4771 25.6231 20.4771 25.6231C20.4771 25.6231 20.2429 24.0469 19.9058 22.752C19.7565 22.1772 19.5866 21.6575 19.4083 21.3563C19.3164 21.2009 19.4183 20.5624 19.6746 19.6168C19.8246 19.8756 20.4575 20.9832 20.5846 21.3403C20.7278 21.7437 20.7577 21.8594 20.7577 21.8594C20.7577 21.8594 20.4106 20.0754 19.8411 19.0344C19.9799 18.5705 20.1275 18.1093 20.2839 17.6511C20.4811 17.997 20.9295 18.7913 21.0915 19.1676C21.1065 19.2025 21.12 19.2353 21.1299 19.2623C21.1529 19.3275 21.1722 19.3829 21.1896 19.4336C21.281 19.6984 21.3032 19.7826 21.3032 19.7826C21.3032 19.7826 21.2694 19.6094 21.2064 19.3421C21.1798 19.2292 21.1466 19.0965 21.1098 18.9551C20.9663 18.404 20.7483 17.6825 20.4691 17.1171C21.1856 13.3929 23.4917 8.51625 25.9762 5.88363C26.1904 5.65688 26.4055 5.44475 26.621 5.2535C28.0734 3.966 29.545 3.531 30.7604 4.61375C31.6396 5.39713 31.9994 6.47937 32 7.725V7.5C32 3.35787 28.6421 0 24.5 0H7.5Z" fill="url(#paint0_linear_140_369)"/>
<path d="M30.7604 4.61376C29.545 3.53101 28.0734 3.96589 26.621 5.25351C26.4055 5.44476 26.1904 5.65689 25.9762 5.88352C23.4917 8.51639 21.1856 13.3929 20.4691 17.1171C20.7483 17.6825 20.9663 18.404 21.1098 18.9551C21.1466 19.0965 21.1798 19.2293 21.2064 19.3421C21.2694 19.6094 21.3032 19.7826 21.3032 19.7826C21.3032 19.7826 21.281 19.6984 21.1896 19.4336C21.1722 19.3829 21.1529 19.3275 21.1299 19.2623C21.1179 19.2304 21.1051 19.1988 21.0915 19.1676C20.9295 18.7913 20.4811 17.997 20.2839 17.6511C20.1275 18.1094 19.9799 18.5705 19.8411 19.0344C20.4106 20.0754 20.7577 21.8594 20.7577 21.8594C20.7577 21.8594 20.7278 21.7438 20.5846 21.3403C20.4575 20.9833 19.8246 19.8756 19.6746 19.6168C19.4183 20.5624 19.3164 21.2009 19.4083 21.3563C19.5866 21.6575 19.7565 22.1773 19.9058 22.752C20.2429 24.0469 20.4771 25.6231 20.4771 25.6231C20.4771 25.6231 20.4848 25.7276 20.4974 25.8884C20.4506 26.9758 20.4786 28.1031 20.563 29.1221C20.6746 30.471 20.8849 31.6299 21.1529 32.25L21.3347 32.1509C20.9412 30.9291 20.7814 29.3279 20.8514 27.4811C20.9573 24.6585 21.6076 21.2545 22.8091 17.7066C24.8391 12.3508 27.6556 8.05364 30.2334 6.00139C27.8839 8.12089 24.704 14.9813 23.7521 17.5218C22.6864 20.3666 21.931 23.0364 21.4759 25.5941C22.2613 23.1963 24.8006 22.1655 24.8006 22.1655C24.8006 22.1655 26.0461 20.6313 27.5016 18.4393C26.6297 18.6379 25.1981 18.9779 24.7185 19.1791C24.0112 19.4755 23.8206 19.5766 23.8206 19.5766C23.8206 19.5766 26.1119 18.1829 28.0776 17.5519C30.7811 13.2988 33.7264 7.25664 30.7604 4.61376ZM3.565 6.12502C3.18213 6.12502 2.87075 6.23689 2.63212 6.46039C2.39337 6.68414 2.27238 6.97751 2.27238 7.33689C2.27238 7.52314 2.30237 7.69289 2.36162 7.84851C2.42087 8.00439 2.51313 8.14889 2.637 8.27939C2.761 8.41001 3.00912 8.58751 3.379 8.81314C3.83275 9.08639 4.12962 9.30814 4.27212 9.48139C4.41475 9.65451 4.4855 9.83589 4.4855 10.0249C4.4855 10.2781 4.40112 10.4801 4.2275 10.6321C4.05362 10.784 3.82112 10.8596 3.53275 10.8596C3.22862 10.8596 2.96375 10.754 2.73625 10.5439C2.50875 10.3336 2.394 10.0554 2.39138 9.70664H2.25V10.9725H2.39138C2.43463 10.8526 2.49437 10.7913 2.57262 10.7913C2.61012 10.7913 2.69825 10.8169 2.83562 10.8648C3.1695 10.982 3.44375 11.0385 3.65937 11.0385C4.03075 11.0385 4.34787 10.9103 4.61212 10.6493C4.87587 10.3885 5.00913 10.074 5.00913 9.70676C5.00913 9.42201 4.92112 9.16864 4.74862 8.94789C4.576 8.72676 4.24038 8.46964 3.73863 8.17414C3.30713 7.91839 3.02687 7.71002 2.89762 7.54752C2.76812 7.38527 2.70163 7.20589 2.70163 7.00889C2.70163 6.79589 2.78087 6.62489 2.93725 6.49727C3.09375 6.36952 3.29862 6.30627 3.55512 6.30627C3.84375 6.30627 4.08425 6.39076 4.27462 6.56089C4.46475 6.73127 4.57475 6.96739 4.60712 7.27089H4.74862V6.17414H4.617C4.601 6.23002 4.58612 6.26577 4.57237 6.28177C4.55912 6.29777 4.5335 6.30627 4.4955 6.30627C4.44975 6.30627 4.36813 6.28727 4.25238 6.25002C4.00425 6.16752 3.7755 6.12502 3.565 6.12502ZM8.1875 6.12514C7.72087 6.12514 7.29738 6.23364 6.91463 6.45076C6.53137 6.66751 6.228 6.96827 6.004 7.35164C5.78025 7.73489 5.669 8.14201 5.669 8.57577C5.669 9.15851 5.86237 9.67776 6.25212 10.1328C6.64212 10.5875 7.10938 10.8709 7.6515 10.9799C7.7755 11.0436 7.95275 11.2081 8.185 11.4744C8.44663 11.7749 8.668 11.9916 8.85 12.1206C9.02827 12.2474 9.22604 12.3441 9.4355 12.4071C9.64313 12.4695 9.86763 12.5001 10.1105 12.5001C10.4044 12.5001 10.6676 12.4498 10.8994 12.3459L10.8474 12.2186C10.7094 12.2668 10.5642 12.2908 10.4181 12.2896C10.2129 12.2896 10.0056 12.2229 9.79775 12.0889C9.59025 11.9545 9.33075 11.6983 9.02112 11.3201C8.87562 11.1389 8.77525 11.0246 8.7185 10.9799C9.31163 10.8655 9.7995 10.5819 10.1799 10.1279C10.5603 9.67414 10.7505 9.15614 10.7505 8.57577C10.7505 7.88652 10.502 7.30739 10.0086 6.83514C9.515 6.36251 8.90775 6.12514 8.1875 6.12514ZM11.0731 6.12502L11.0806 6.27439C11.3911 6.27439 11.5651 6.36464 11.6041 6.54614C11.6185 6.61114 11.6252 6.73089 11.6264 6.90364L11.6239 10.2061C11.6214 10.4528 11.5857 10.6103 11.5173 10.6786C11.4486 10.7465 11.3328 10.7889 11.1649 10.8059L11.1574 10.9553H14.254L14.3334 10.2061H14.192C14.1516 10.4101 14.059 10.5564 13.9116 10.6394C13.7638 10.7231 13.5025 10.7644 13.125 10.7644H12.8322C12.4926 10.7644 12.2961 10.6431 12.2443 10.3994C12.2338 10.3479 12.2288 10.2954 12.2292 10.2428L12.2417 6.90352C12.2417 6.65727 12.2732 6.49226 12.3385 6.41139C12.4045 6.33102 12.5235 6.28589 12.6958 6.27439L12.6884 6.12502H11.0731ZM8.23713 6.30627C8.76338 6.30627 9.193 6.51064 9.52487 6.92314C9.85662 7.33564 10.0211 7.90114 10.0211 8.61727C10.0211 9.29577 9.85425 9.83902 9.51987 10.2478C9.1855 10.6563 8.7405 10.8598 8.18738 10.8598C7.65613 10.8598 7.22538 10.6499 6.89488 10.2281C6.5645 9.80639 6.40112 9.25876 6.40112 8.58539C6.40112 7.89351 6.5665 7.33951 6.89975 6.92551C7.23288 6.51201 7.67888 6.30627 8.23713 6.30627ZM15.3581 7.01601C15.2826 7.01601 15.225 7.04114 15.182 7.09189C15.1379 7.14239 15.1244 7.20364 15.1397 7.27801C15.1546 7.35001 15.1959 7.41326 15.2614 7.46651C15.3265 7.51964 15.3968 7.54726 15.4722 7.54726C15.5452 7.54726 15.601 7.51964 15.641 7.46651C15.681 7.41326 15.6931 7.35014 15.6783 7.27801C15.6628 7.20364 15.623 7.14239 15.5616 7.09189C15.4995 7.04114 15.4311 7.01601 15.3581 7.01601ZM17.4001 7.52276C17.2718 8.00989 16.9936 8.27351 16.5665 8.31601L16.5714 8.45551H17.0701L17.0602 10.1055C17.061 10.3878 17.0697 10.5755 17.09 10.6711C17.1391 10.8999 17.2906 11.0163 17.544 11.0163C17.9108 11.0163 18.2955 10.7959 18.6978 10.3553L18.5763 10.2525C18.2857 10.5425 18.0289 10.6883 17.8046 10.6883C17.6667 10.6883 17.5813 10.61 17.549 10.4558C17.5398 10.4123 17.5357 10.3679 17.5366 10.3235L17.5416 8.45551H18.3032L18.2959 8.23276H17.544V7.52276H17.4001ZM20.3452 8.14464C19.9192 8.14464 19.5726 8.34864 19.3032 8.75426C19.0351 9.16051 18.9521 9.61052 19.0576 10.1055C19.1196 10.3955 19.2431 10.6205 19.4322 10.7789C19.621 10.9373 19.8605 11.0164 20.1467 11.0164C20.4134 11.0164 20.7846 10.9496 20.9408 10.8155C21.0974 10.6815 21.2418 10.4643 21.375 10.1668L21.2682 10.0566C21.0557 10.4425 20.6266 10.6369 20.3031 10.6369C19.8582 10.6369 19.5859 10.396 19.4844 9.91714C19.4707 9.85248 19.4607 9.78708 19.4545 9.72126C19.9837 9.63851 20.3848 9.49214 20.6555 9.28052C20.9259 9.06889 21.1975 8.84439 21.1467 8.60726C21.1165 8.46639 21.0424 8.35564 20.9284 8.27189C20.8129 8.18814 20.5129 8.14464 20.3452 8.14464ZM15.6881 8.16176L14.7701 8.36989V8.53139L15.0876 8.49227C15.2415 8.49227 15.332 8.56101 15.3606 8.69789C15.3703 8.74376 15.3763 8.80801 15.378 8.88889L15.368 10.37C15.3655 10.575 15.3424 10.6941 15.2961 10.7299C15.2494 10.7658 15.1261 10.7836 14.9264 10.7836L14.9214 10.9233H16.3779L16.3754 10.7838C16.173 10.7838 16.0419 10.768 15.9834 10.7373C15.9259 10.7066 15.8864 10.651 15.8693 10.5659C15.856 10.5044 15.8503 10.3986 15.8494 10.2525L15.8544 8.16176H15.6881ZM20.1121 8.43601C20.2008 8.43601 20.2864 8.46976 20.3726 8.53626C20.4576 8.60264 20.5095 8.67652 20.5264 8.75664C20.6095 9.15039 20.2556 9.42264 19.4595 9.57439C19.4367 9.28726 19.4872 9.02652 19.6159 8.79089C19.7435 8.55552 19.9097 8.43601 20.1121 8.43601Z" fill="#003B57"/>
</g>
</g>
<defs>
<linearGradient id="paint0_linear_140_369" x1="18.4517" y1="0.654875" x2="18.4517" y2="30.2204" gradientUnits="userSpaceOnUse">
<stop stop-color="#97D9F6"/>
<stop offset="0.92" stop-color="#0F80CC"/>
<stop offset="1" stop-color="#0F80CC"/>
</linearGradient>
<clipPath id="clip0_140_369">
<rect width="32" height="32" fill="white"/>
</clipPath>
</defs>
</svg>
