<svg width="28" height="28" viewBox="0 0 28 28" fill="none" xmlns="http://www.w3.org/2000/svg">
<g clip-path="url(#clip0_140_369)">
<mask id="mask0_140_369" style="mask-type:luminance" maskUnits="userSpaceOnUse" x="0" y="0" width="28" height="28">
<path d="M21.4375 0H6.5625C2.93813 0 0 2.93813 0 6.5625V21.4375C0 25.0619 2.93813 28 6.5625 28H21.4375C25.0619 28 28 25.0619 28 21.4375V6.5625C28 2.93813 25.0619 0 21.4375 0Z" fill="white"/>
</mask>
<g mask="url(#mask0_140_369)">
<path d="M6.5625 0C2.93814 0 0 2.93814 0 6.5625V21.4375C0 25.0619 2.93814 28 6.5625 28H18.4253C18.2307 27.4265 18.0784 26.5184 17.9926 25.4819C17.9188 24.5902 17.8943 23.6038 17.9352 22.6523C17.9242 22.5117 17.9175 22.4202 17.9175 22.4202C17.9175 22.4202 17.7125 21.041 17.4175 19.908C17.2869 19.4051 17.1383 18.9503 16.9822 18.6867C16.9018 18.5508 16.991 17.9921 17.2153 17.1647C17.3465 17.3912 17.9003 18.3603 18.0115 18.6727C18.1368 19.0258 18.163 19.127 18.163 19.127C18.163 19.127 17.8593 17.566 17.361 16.6551C17.4824 16.2492 17.6115 15.8457 17.7484 15.4447C17.921 15.7474 18.3133 16.4423 18.4551 16.7717C18.4682 16.8022 18.48 16.8308 18.4886 16.8545C18.5088 16.9116 18.5257 16.96 18.5409 17.0044C18.6209 17.2361 18.6403 17.3098 18.6403 17.3098C18.6403 17.3098 18.6107 17.1582 18.5556 16.9244C18.5323 16.8256 18.5033 16.7094 18.471 16.5857C18.3455 16.1035 18.1547 15.4722 17.9105 14.9775C18.5374 11.7188 20.5553 7.45172 22.7292 5.14817C22.9166 4.94977 23.1048 4.76416 23.2934 4.59681C24.5642 3.47025 25.8519 3.08963 26.9153 4.03703C27.6847 4.72248 27.9995 5.66945 28 6.75937V6.5625C28 2.93814 25.0619 0 21.4375 0H6.5625Z" fill="#D9D9D9"/>
<path d="M6.5625 0C2.93814 0 0 2.93814 0 6.5625V21.4375C0 25.0619 2.93814 28 6.5625 28H18.4253C18.2307 27.4265 18.0784 26.5184 17.9926 25.4819C17.9188 24.5902 17.8943 23.6038 17.9352 22.6523C17.9242 22.5117 17.9175 22.4202 17.9175 22.4202C17.9175 22.4202 17.7125 21.041 17.4175 19.908C17.2869 19.4051 17.1383 18.9503 16.9822 18.6867C16.9018 18.5508 16.991 17.9921 17.2153 17.1647C17.3465 17.3912 17.9003 18.3603 18.0115 18.6727C18.1368 19.0258 18.163 19.127 18.163 19.127C18.163 19.127 17.8593 17.566 17.361 16.6551C17.4824 16.2492 17.6115 15.8457 17.7484 15.4447C17.921 15.7474 18.3133 16.4423 18.4551 16.7717C18.4682 16.8022 18.48 16.8308 18.4886 16.8545C18.5088 16.9116 18.5257 16.96 18.5409 17.0044C18.6209 17.2361 18.6403 17.3098 18.6403 17.3098C18.6403 17.3098 18.6107 17.1582 18.5556 16.9244C18.5323 16.8256 18.5033 16.7094 18.471 16.5857C18.3455 16.1035 18.1547 15.4722 17.9105 14.9775C18.5374 11.7188 20.5553 7.45172 22.7292 5.14817C22.9166 4.94977 23.1048 4.76416 23.2934 4.59681C24.5642 3.47025 25.8519 3.08963 26.9153 4.03703C27.6847 4.72248 27.9995 5.66945 28 6.75937V6.5625C28 2.93814 25.0619 0 21.4375 0H6.5625Z" fill="url(#paint0_linear_140_369)"/>
<path d="M26.9153 4.03704C25.8519 3.08964 24.5642 3.47015 23.2934 4.59683C23.1048 4.76417 22.9166 4.94978 22.7292 5.14808C20.5553 7.45184 18.5374 11.7188 17.9105 14.9775C18.1547 15.4722 18.3455 16.1035 18.471 16.5857C18.5033 16.7095 18.5323 16.8256 18.5556 16.9244C18.6107 17.1582 18.6403 17.3098 18.6403 17.3098C18.6403 17.3098 18.6209 17.2361 18.5409 17.0044C18.5257 16.96 18.5088 16.9116 18.4886 16.8545C18.4782 16.8266 18.467 16.799 18.4551 16.7717C18.3133 16.4424 17.921 15.7474 17.7484 15.4447C17.6115 15.8457 17.4824 16.2492 17.361 16.6551C17.8593 17.566 18.163 19.127 18.163 19.127C18.163 19.127 18.1368 19.0258 18.0115 18.6727C17.9003 18.3604 17.3465 17.3912 17.2153 17.1647C16.991 17.9921 16.9018 18.5508 16.9822 18.6867C17.1383 18.9503 17.2869 19.4051 17.4175 19.908C17.7125 21.041 17.9175 22.4202 17.9175 22.4202C17.9175 22.4202 17.9242 22.5117 17.9352 22.6523C17.8943 23.6038 17.9188 24.5902 17.9926 25.4819C18.0903 26.6621 18.2743 27.6762 18.5088 28.2188L18.6679 28.132C18.3236 27.063 18.1837 25.6619 18.245 24.046C18.3376 21.5762 18.9067 18.5977 19.958 15.4933C21.7342 10.8069 24.1987 7.04694 26.4542 5.25122C24.3984 7.10578 21.616 13.1086 20.7831 15.3315C19.8506 17.8208 19.1896 20.1568 18.7914 22.3949C19.4786 20.2967 21.7005 19.3948 21.7005 19.3948C21.7005 19.3948 22.7904 18.0524 24.0639 16.1344C23.301 16.3082 22.0484 16.6057 21.6287 16.7817C21.0098 17.0411 20.843 17.1296 20.843 17.1296C20.843 17.1296 22.8479 15.91 24.5679 15.3579C26.9335 11.6364 29.5106 6.34956 26.9153 4.03704ZM3.11938 5.35939C2.78436 5.35939 2.51191 5.45728 2.30311 5.65284C2.0942 5.84862 1.98833 6.10533 1.98833 6.41978C1.98833 6.58275 2.01458 6.73128 2.06642 6.86745C2.11827 7.00384 2.19898 7.13028 2.30738 7.24447C2.41588 7.35876 2.63298 7.51408 2.95662 7.7115C3.35366 7.95059 3.61342 8.14462 3.73811 8.29622C3.86291 8.4477 3.92481 8.6064 3.92481 8.77178C3.92481 8.99337 3.85098 9.17012 3.69906 9.30312C3.54692 9.43601 3.34348 9.50218 3.09116 9.50218C2.82505 9.50218 2.59328 9.40976 2.39422 9.2259C2.19516 9.04193 2.09475 8.79847 2.09245 8.49331H1.96875V9.60095H2.09245C2.1303 9.49606 2.18258 9.44236 2.25105 9.44236C2.28386 9.44236 2.36097 9.46478 2.48117 9.50667C2.77331 9.60926 3.01328 9.6587 3.20195 9.6587C3.52691 9.6587 3.80439 9.54648 4.03561 9.31811C4.26639 9.08995 4.38298 8.81476 4.38298 8.49342C4.38298 8.24426 4.30598 8.02256 4.15505 7.8294C4.004 7.63592 3.71033 7.41093 3.2713 7.15237C2.89373 6.92859 2.64852 6.74626 2.53542 6.60408C2.42211 6.46211 2.36392 6.30515 2.36392 6.13278C2.36392 5.9464 2.43327 5.79678 2.57009 5.68511C2.70703 5.57333 2.8863 5.51798 3.11073 5.51798C3.36328 5.51798 3.57372 5.59192 3.7403 5.74078C3.90666 5.88986 4.00291 6.09647 4.03123 6.36203H4.15505V5.40237H4.03988C4.02588 5.45126 4.01286 5.48254 4.00083 5.49654C3.98923 5.51054 3.96681 5.51798 3.93356 5.51798C3.89353 5.51798 3.82211 5.50136 3.72083 5.46876C3.50372 5.39658 3.30356 5.35939 3.11938 5.35939ZM7.16406 5.3595C6.75577 5.3595 6.3852 5.45443 6.0503 5.64442C5.71495 5.83408 5.4495 6.09723 5.2535 6.43268C5.05772 6.76803 4.96038 7.12426 4.96038 7.50379C4.96038 8.0137 5.12958 8.46804 5.47061 8.86617C5.81186 9.26408 6.2207 9.51203 6.69506 9.6074C6.80356 9.66318 6.95866 9.80712 7.16188 10.0401C7.3908 10.303 7.5845 10.4927 7.74375 10.6056C7.89974 10.7165 8.07279 10.8011 8.25606 10.8562C8.43773 10.9108 8.63417 10.9376 8.84669 10.9376C9.10383 10.9376 9.33417 10.8935 9.53695 10.8027L9.49145 10.6913C9.37075 10.7334 9.24369 10.7544 9.11586 10.7534C8.93627 10.7534 8.75492 10.695 8.57303 10.5778C8.39147 10.4602 8.16441 10.236 7.89348 9.90512C7.76617 9.74653 7.67834 9.64656 7.62869 9.6074C8.14767 9.50733 8.57456 9.25915 8.90739 8.8619C9.24022 8.46487 9.40669 8.01162 9.40669 7.50379C9.40669 6.9007 9.18925 6.39397 8.75755 5.98075C8.32563 5.5672 7.79428 5.3595 7.16406 5.3595ZM9.68898 5.35939L9.69555 5.49009C9.96723 5.49009 10.1195 5.56906 10.1536 5.72787C10.1662 5.78475 10.1721 5.88953 10.1731 6.04069L10.1709 8.93037C10.1687 9.14617 10.1375 9.28398 10.0776 9.34381C10.0175 9.4032 9.91616 9.44028 9.76927 9.45515L9.7627 9.58586H12.4722L12.5417 8.93037H12.418C12.3827 9.10887 12.3016 9.23684 12.1727 9.30947C12.0433 9.38275 11.8147 9.41884 11.4844 9.41884H11.2282C10.931 9.41884 10.7591 9.31275 10.7137 9.09947C10.7046 9.05437 10.7002 9.00844 10.7006 8.96242L10.7115 6.04058C10.7115 5.82511 10.7391 5.68073 10.7962 5.60997C10.8539 5.53964 10.9581 5.50015 11.1088 5.49009L11.1023 5.35939H9.68898ZM7.20748 5.51798C7.66795 5.51798 8.04387 5.69681 8.33427 6.05775C8.62455 6.41868 8.76848 6.9135 8.76848 7.54011C8.76848 8.13379 8.62247 8.60914 8.32989 8.96679C8.03731 9.32423 7.64794 9.50229 7.16395 9.50229C6.69911 9.50229 6.3222 9.31865 6.03302 8.94962C5.74394 8.58059 5.60098 8.10142 5.60098 7.51222C5.60098 6.90683 5.74569 6.42208 6.03728 6.05983C6.32877 5.69801 6.71902 5.51798 7.20748 5.51798ZM13.4384 6.13901C13.3723 6.13901 13.3219 6.161 13.2843 6.2054C13.2456 6.24959 13.2338 6.30318 13.2473 6.36826C13.2603 6.43126 13.2964 6.48661 13.3537 6.5332C13.4107 6.57968 13.4722 6.60386 13.5382 6.60386C13.6021 6.60386 13.6509 6.57968 13.6859 6.5332C13.7209 6.48661 13.7315 6.43137 13.7185 6.36826C13.7049 6.30318 13.6701 6.24959 13.6164 6.2054C13.5621 6.161 13.5022 6.13901 13.4384 6.13901ZM15.2251 6.58242C15.1128 7.00865 14.8694 7.23933 14.4957 7.27651L14.5 7.39858H14.9364L14.9277 8.84233C14.9284 9.08929 14.936 9.25358 14.9538 9.33725C14.9967 9.5374 15.1293 9.63923 15.351 9.63923C15.6719 9.63923 16.0086 9.4464 16.3605 9.06086L16.2542 8.97095C16 9.2247 15.7753 9.35223 15.579 9.35223C15.4584 9.35223 15.3836 9.28376 15.3554 9.14879C15.3474 9.11076 15.3437 9.07193 15.3445 9.03308L15.3489 7.39858H16.0153L16.0089 7.20367H15.351V6.58242H15.2251ZM17.8021 7.12656C17.4293 7.12656 17.126 7.30506 16.8903 7.65998C16.6557 8.01545 16.5831 8.4092 16.6754 8.84233C16.7297 9.09608 16.8377 9.29295 17.0032 9.43153C17.1684 9.57011 17.3779 9.63934 17.6284 9.63934C17.8617 9.63934 18.1865 9.58094 18.3232 9.46358C18.4602 9.34633 18.5865 9.15623 18.7031 8.89592L18.6097 8.79956C18.4238 9.1372 18.0483 9.30728 17.7652 9.30728C17.376 9.30728 17.1376 9.09651 17.0488 8.6775C17.0368 8.62092 17.0281 8.56369 17.0227 8.50611C17.4858 8.4337 17.8367 8.30562 18.0736 8.12045C18.3101 7.93528 18.5478 7.73884 18.5034 7.53136C18.4769 7.40809 18.4121 7.31119 18.3123 7.2379C18.2113 7.16462 17.9488 7.12656 17.8021 7.12656ZM13.7271 7.14154L12.9239 7.32365V7.46497L13.2017 7.43073C13.3363 7.43073 13.4155 7.49089 13.4405 7.61065C13.449 7.65079 13.4542 7.70701 13.4558 7.77778L13.447 9.07376C13.4448 9.25314 13.4246 9.35737 13.3841 9.38865C13.3432 9.42004 13.2354 9.43568 13.0606 9.43568L13.0562 9.55786H14.3306L14.3285 9.43579C14.1514 9.43579 14.0366 9.42201 13.9855 9.39511C13.9351 9.36831 13.9006 9.31964 13.8856 9.24515C13.874 9.19134 13.869 9.09881 13.8682 8.97095L13.8726 7.14154H13.7271ZM17.5981 7.38151C17.6757 7.38151 17.7506 7.41104 17.826 7.46923C17.9004 7.52731 17.9458 7.59195 17.9606 7.66206C18.0333 8.00659 17.7237 8.24481 17.0271 8.37759C17.0072 8.12636 17.0513 7.8982 17.1639 7.69203C17.2756 7.48608 17.421 7.38151 17.5981 7.38151Z" fill="#003B57"/>
</g>
</g>
<defs>
<linearGradient id="paint0_linear_140_369" x1="16.1453" y1="0.573016" x2="16.1453" y2="26.4428" gradientUnits="userSpaceOnUse">
<stop stop-color="#97D9F6"/>
<stop offset="0.92" stop-color="#0F80CC"/>
<stop offset="1" stop-color="#0F80CC"/>
</linearGradient>
<clipPath id="clip0_140_369">
<rect width="28" height="28" fill="white"/>
</clipPath>
</defs>
</svg>
