<svg width="26" height="32" viewBox="0 0 26 32" fill="none" xmlns="http://www.w3.org/2000/svg">
<g clip-path="url(#clip0_147_241)">
<path d="M1.15016 29.4243L0.161071 3.06696C0.128269 2.19634 0.795654 1.45854 1.66507 1.40437L24.084 0.00318789C24.969 -0.0521851 25.7312 0.620417 25.7865 1.50538C25.7886 1.53869 25.7897 1.57209 25.7897 1.60549V30.3266C25.7897 31.2133 25.0709 31.9321 24.1842 31.9321C24.1602 31.9321 24.1361 31.9316 24.1122 31.9305L2.68255 30.968C1.84794 30.9305 1.18156 30.2592 1.15016 29.4243" fill="#FF4785"/>
<mask id="mask0_147_241" style="mask-type:luminance" maskUnits="userSpaceOnUse" x="0" y="0" width="26" height="32">
<path d="M1.15016 29.4243L0.161071 3.06696C0.128269 2.19634 0.795654 1.45854 1.66507 1.40437L24.084 0.00318789C24.969 -0.0521851 25.7312 0.620417 25.7865 1.50538C25.7886 1.53869 25.7897 1.57209 25.7897 1.60549V30.3266C25.7897 31.2133 25.0709 31.9321 24.1842 31.9321C24.1602 31.9321 24.1361 31.9316 24.1122 31.9305L2.68255 30.968C1.84794 30.9305 1.18156 30.2592 1.15016 29.4243" fill="white"/>
</mask>
<g mask="url(#mask0_147_241)">
<path d="M19.0855 3.92497L19.2387 0.241856L22.3175 0L22.4502 3.79817C22.4518 3.84384 22.4403 3.88903 22.4171 3.9284C22.3939 3.96777 22.3599 3.99967 22.3192 4.02035C22.2784 4.04102 22.2326 4.0496 22.1871 4.04507C22.1416 4.04054 22.0984 4.02309 22.0625 3.99478L20.8753 3.05936L19.4696 4.12569C19.4334 4.15319 19.3902 4.16982 19.3449 4.17364C19.2996 4.17746 19.2542 4.1683 19.2139 4.14725C19.1736 4.1262 19.1401 4.09412 19.1174 4.05476C19.0947 4.01539 19.0836 3.97038 19.0855 3.92497ZM15.1481 12.0356C15.1481 12.6603 19.3555 12.3609 19.9202 11.9222C19.9202 7.66866 17.6379 5.43348 13.4586 5.43348C9.27929 5.43348 6.93768 7.70337 6.93768 11.1082C6.93768 17.0384 14.9407 17.152 14.9407 20.3866C14.9407 21.2946 14.496 21.8337 13.5178 21.8337C12.2434 21.8337 11.7394 21.1827 11.7987 18.9696C11.7987 18.4895 6.93768 18.3398 6.78941 18.9696C6.41203 24.3329 9.75348 25.8799 13.5771 25.8799C17.2822 25.8799 20.187 23.905 20.187 20.3299C20.187 13.9741 12.0655 14.1443 12.0655 10.9948C12.0655 9.71797 13.014 9.54774 13.5772 9.54774C14.17 9.54774 15.237 9.65226 15.1481 12.0356Z" fill="white"/>
</g>
</g>
<defs>
<clipPath id="clip0_147_241">
<rect width="25.6889" height="32" fill="white" transform="translate(0.155579)"/>
</clipPath>
</defs>
</svg>
