<svg width="28" height="34" viewBox="0 0 28 34" fill="none" xmlns="http://www.w3.org/2000/svg">
<g clip-path="url(#clip0_111_269)">
<path d="M1.40956 31.2633L0.358653 3.25865C0.323801 2.33361 1.0329 1.54969 1.95665 1.49214L25.7768 0.00338714C26.7171 -0.0554467 27.5269 0.659193 27.5857 1.59947C27.5879 1.63485 27.589 1.67035 27.589 1.70584V32.2221C27.589 33.1642 26.8254 33.9278 25.8833 33.9278C25.8577 33.9278 25.8321 33.9273 25.8067 33.9261L3.03773 32.9035C2.15095 32.8637 1.44292 32.1504 1.40956 31.2633Z" fill="#FF4785"/>
<mask id="mask0_111_269" style="mask-type:luminance" maskUnits="userSpaceOnUse" x="0" y="0" width="28" height="34">
<path d="M1.40956 31.2633L0.358653 3.25865C0.323801 2.33361 1.0329 1.54969 1.95665 1.49214L25.7768 0.00338714C26.7171 -0.0554467 27.5269 0.659193 27.5857 1.59947C27.5879 1.63485 27.589 1.67035 27.589 1.70584V32.2221C27.589 33.1642 26.8254 33.9278 25.8833 33.9278C25.8577 33.9278 25.8321 33.9273 25.8067 33.9261L3.03773 32.9035C2.15095 32.8637 1.44292 32.1504 1.40956 31.2633Z" fill="white"/>
</mask>
<g mask="url(#mask0_111_269)">
<path d="M20.4659 4.17028L20.6286 0.256972L23.8999 0L24.0408 4.03555C24.0425 4.08408 24.0304 4.13209 24.0057 4.17392C23.981 4.21575 23.9449 4.24965 23.9016 4.27162C23.8583 4.29359 23.8096 4.3027 23.7613 4.29789C23.713 4.29307 23.6671 4.27453 23.629 4.24446L22.3675 3.25057L20.874 4.38355C20.8355 4.41276 20.7896 4.43043 20.7414 4.43449C20.6933 4.43855 20.645 4.42882 20.6022 4.40646C20.5594 4.38409 20.5239 4.35 20.4997 4.30818C20.4756 4.26636 20.4639 4.21853 20.4659 4.17028ZM16.2824 12.7878C16.2824 13.4515 20.7527 13.1335 21.3528 12.6673C21.3528 8.14796 18.9278 5.77307 14.4872 5.77307C10.0468 5.77307 7.55878 8.18483 7.55878 11.8025C7.55878 18.1033 16.062 18.224 16.062 21.6608C16.062 22.6256 15.5895 23.1983 14.5502 23.1983C13.1961 23.1983 12.6606 22.5066 12.7236 20.1552C12.7236 19.6451 7.55878 19.486 7.40125 20.1552C7.00029 25.8537 10.5506 27.4974 14.6132 27.4974C18.5498 27.4974 21.6362 25.3991 21.6362 21.6006C21.6362 14.8474 13.0071 15.0283 13.0071 11.6819C13.0071 10.3253 14.0148 10.1445 14.6133 10.1445C15.2431 10.1445 16.3768 10.2555 16.2824 12.7878Z" fill="white"/>
</g>
</g>
<defs>
<clipPath id="clip0_111_269">
<rect width="27.2944" height="34" fill="white" transform="translate(0.352783)"/>
</clipPath>
</defs>
</svg>
