<svg width="42" height="26" viewBox="0 0 42 26" fill="none" xmlns="http://www.w3.org/2000/svg">
<path d="M21.0001 2.54102C16.3517 2.54102 13.4463 4.86527 12.2843 9.51365C14.0274 7.18939 16.0611 6.31781 18.3853 6.89891C19.7113 7.23038 20.6592 8.19252 21.7084 9.25735C23.4175 10.9922 25.3954 13 29.7159 13C34.3642 13 37.2696 10.6757 38.4316 6.02733C36.6885 8.35159 34.6548 9.22317 32.3306 8.64207C31.0046 8.3106 30.0567 7.34845 29.0076 6.28363C27.2984 4.54878 25.3205 2.54102 21.0001 2.54102ZM12.2843 13C7.6359 13 4.73054 15.3242 3.56848 19.9726C5.31164 17.6483 7.34528 16.7768 9.66953 17.3579C10.9956 17.6893 11.9434 18.6515 12.9926 19.7163C14.7017 21.4511 16.6796 23.4589 21.0001 23.4589C25.6484 23.4589 28.5538 21.1347 29.7159 16.4863C27.9727 18.8105 25.9391 19.6821 23.6148 19.101C22.2888 18.7695 21.3409 17.8074 20.2918 16.7426C18.5827 15.0077 16.6047 13 12.2843 13Z" fill="url(#paint0_linear_261_137)"/>
<defs>
<linearGradient id="paint0_linear_261_137" x1="-93.2814" y1="671.914" x2="2917.72" y2="2408.01" gradientUnits="userSpaceOnUse">
<stop stop-color="#2298BD"/>
<stop offset="1" stop-color="#0ED7B5"/>
</linearGradient>
</defs>
</svg>
