<svg width="46" height="28" viewBox="0 0 46 28" fill="none" xmlns="http://www.w3.org/2000/svg">
<path d="M23 2.60583C17.936 2.60583 14.7708 5.13791 13.5049 10.2019C15.4039 7.66983 17.6194 6.72032 20.1515 7.35338C21.596 7.71449 22.6286 8.76266 23.7716 9.92269C25.6335 11.8127 27.7883 13.9999 32.4951 13.9999C37.5591 13.9999 40.7242 11.4679 41.9902 6.40387C40.0911 8.93594 37.8757 9.88545 35.3436 9.2524C33.899 8.89129 32.8664 7.84312 31.7234 6.68309C29.8615 4.79312 27.7067 2.60583 23 2.60583ZM13.5049 13.9999C8.44089 13.9999 5.27576 16.532 4.0098 21.596C5.90881 19.0639 8.12429 18.1144 10.6564 18.7475C12.1009 19.1086 13.1335 20.1568 14.2765 21.3168C16.1384 23.2068 18.2932 25.3941 23 25.3941C28.064 25.3941 31.2291 22.862 32.4951 17.798C30.5961 20.3301 28.3806 21.2796 25.8485 20.6465C24.4039 20.2854 23.3713 19.2372 22.2284 18.0772C20.3664 16.1872 18.2116 13.9999 13.5049 13.9999Z" fill="url(#paint0_linear_111_239)"/>
<defs>
<linearGradient id="paint0_linear_111_239" x1="-101.5" y1="731.829" x2="3178.72" y2="2623.15" gradientUnits="userSpaceOnUse">
<stop stop-color="#2298BD"/>
<stop offset="1" stop-color="#0ED7B5"/>
</linearGradient>
</defs>
</svg>
