<svg width="32" height="32" viewBox="0 0 32 32" fill="none" xmlns="http://www.w3.org/2000/svg">
<g clip-path="url(#clip0_111_204)">
<path d="M24.5 0H7.5C3.35786 0 0 3.35786 0 7.5V24.5C0 28.6421 3.35786 32 7.5 32H24.5C28.6421 32 32 28.6421 32 24.5V7.5C32 3.35786 28.6421 0 24.5 0Z" fill="#007ACC"/>
<path d="M7.07638 16.1062L7.06625 17.4167H11.2313V29.2515H14.1775V17.4167H18.3425V16.1315C18.3425 15.4204 18.3274 14.8262 18.307 14.8109C18.2918 14.7907 15.7571 14.7804 12.6841 14.7855L7.09175 14.8008L7.07638 16.1062ZM25.8209 14.7635C26.6335 14.9668 27.2533 15.3274 27.8221 15.9165C28.1168 16.2315 28.5535 16.8055 28.5891 16.9427C28.5993 16.9833 27.2075 17.9179 26.3644 18.441C26.3339 18.4614 26.2119 18.3293 26.0748 18.1262C25.6634 17.5268 25.2316 17.2677 24.5713 17.222C23.6011 17.1559 22.9764 17.6639 22.9815 18.5122C22.9815 18.761 23.017 18.9083 23.1186 19.1115C23.3319 19.5534 23.7281 19.8175 24.9726 20.3559C27.2634 21.3414 28.2436 21.9915 28.8533 22.9159C29.5339 23.947 29.6863 25.5928 29.224 26.8169C28.7161 28.1477 27.4564 29.0518 25.6836 29.3515C25.1351 29.448 23.8348 29.4328 23.2456 29.3262C21.9605 29.0975 20.7415 28.4627 19.9898 27.6297C19.6951 27.3045 19.1211 26.4563 19.1568 26.3953C19.1719 26.375 19.304 26.2938 19.4513 26.2074C19.5935 26.1262 20.132 25.8163 20.6399 25.5217L21.5593 24.9883L21.7523 25.2728C22.0215 25.6842 22.6106 26.248 22.9663 26.4359C23.9871 26.9744 25.3891 26.8982 26.0799 26.2785C26.3745 26.0093 26.4964 25.7299 26.4964 25.3185C26.4964 24.9477 26.4506 24.7852 26.2576 24.5058C26.0088 24.1503 25.5009 23.8505 24.0583 23.2258C22.4075 22.5147 21.6964 22.0728 21.0463 21.3718C20.6704 20.9655 20.3148 20.3153 20.1675 19.7718C20.0456 19.3198 20.0151 18.187 20.1116 17.7299C20.4519 16.135 21.6558 15.0227 23.3929 14.6924C23.9568 14.5858 25.2671 14.6264 25.8209 14.7635Z" fill="white"/>
</g>
<defs>
<clipPath id="clip0_111_204">
<rect width="32" height="32" fill="white"/>
</clipPath>
</defs>
</svg>
