<svg width="28" height="28" viewBox="0 0 28 28" fill="none" xmlns="http://www.w3.org/2000/svg">
<g clip-path="url(#clip0_261_109)">
<path d="M21.4375 0H6.5625C2.93813 0 0 2.93813 0 6.5625V21.4375C0 25.0619 2.93813 28 6.5625 28H21.4375C25.0619 28 28 25.0619 28 21.4375V6.5625C28 2.93813 25.0619 0 21.4375 0Z" fill="#007ACC"/>
<path d="M6.19184 14.0928L6.18298 15.2395H9.82736V25.595H12.4053V15.2395H16.0497V14.115C16.0497 13.4927 16.0365 12.9728 16.0186 12.9594C16.0053 12.9417 13.7875 12.9327 11.0986 12.9372L6.2053 12.9506L6.19184 14.0928ZM22.5933 12.918C23.3043 13.0958 23.8466 13.4114 24.3444 13.9268C24.6022 14.2025 24.9843 14.7047 25.0155 14.8247C25.0244 14.8603 23.8066 15.678 23.0688 16.1358C23.0422 16.1536 22.9354 16.038 22.8154 15.8603C22.4555 15.3358 22.0777 15.1091 21.4999 15.0692C20.651 15.0113 20.1043 15.4558 20.1088 16.198C20.1088 16.4158 20.1399 16.5446 20.2288 16.7225C20.4154 17.1091 20.7621 17.3402 21.8511 17.8113C23.8555 18.6736 24.7132 19.2425 25.2466 20.0513C25.8422 20.9535 25.9755 22.3936 25.571 23.4647C25.1266 24.6291 24.0243 25.4202 22.4732 25.6825C21.9932 25.7669 20.8554 25.7536 20.3399 25.6603C19.2155 25.4602 18.1488 24.9047 17.491 24.1758C17.2332 23.8913 16.731 23.1491 16.7622 23.0958C16.7754 23.078 16.891 23.0069 17.0199 22.9314C17.1443 22.8603 17.6155 22.5891 18.0599 22.3313L18.8644 21.8646L19.0332 22.1136C19.2688 22.4735 19.7843 22.9669 20.0955 23.1313C20.9887 23.6025 22.2155 23.5358 22.8199 22.9936C23.0777 22.758 23.1843 22.5135 23.1843 22.1536C23.1843 21.8291 23.1443 21.6869 22.9754 21.4424C22.7577 21.1314 22.3133 20.8691 21.051 20.3224C19.6066 19.7002 18.9843 19.3136 18.4155 18.7002C18.0866 18.3447 17.7754 17.7758 17.6466 17.3002C17.5399 16.9047 17.5132 15.9135 17.5977 15.5135C17.8954 14.118 18.9488 13.1447 20.4688 12.8557C20.9622 12.7624 22.1087 12.798 22.5933 12.918Z" fill="white"/>
</g>
<defs>
<clipPath id="clip0_261_109">
<rect width="28" height="28" fill="white"/>
</clipPath>
</defs>
</svg>
