<svg width="28" height="28" viewBox="0 0 28 28" fill="none" xmlns="http://www.w3.org/2000/svg">
<path d="M26.1485 5.37776L14.6493 25.9403C14.5953 26.037 14.5165 26.1176 14.4211 26.1738C14.3257 26.2301 14.2171 26.26 14.1063 26.2604C13.9955 26.2609 13.8866 26.2319 13.7908 26.1764C13.6949 26.1209 13.6155 26.0409 13.5608 25.9446L1.83401 5.37951C1.77505 5.27633 1.74675 5.15847 1.75242 5.03976C1.75809 4.92105 1.7975 4.80642 1.86603 4.70933C1.93456 4.61223 2.02936 4.5367 2.13931 4.49159C2.24925 4.44647 2.36979 4.43366 2.48676 4.45464L13.9983 6.51264C14.0715 6.52582 14.1464 6.52582 14.2196 6.51264L25.4905 4.45814C25.607 4.43685 25.7272 4.44912 25.837 4.49353C25.9468 4.53793 26.0418 4.61264 26.1107 4.70894C26.1797 4.80525 26.2199 4.91917 26.2266 5.03743C26.2333 5.1557 26.2062 5.2743 26.1485 5.37776Z" fill="url(#paint0_linear_262_408)"/>
<path d="M19.481 1.75607L10.9725 3.42295C10.9043 3.43625 10.8426 3.47185 10.797 3.52413C10.7513 3.57642 10.7244 3.64241 10.7205 3.7117L10.1972 12.5527C10.1943 12.6012 10.2028 12.6497 10.2219 12.6944C10.2411 12.739 10.2704 12.7786 10.3075 12.8099C10.3446 12.8413 10.3885 12.8635 10.4358 12.8749C10.483 12.8863 10.5323 12.8865 10.5796 12.8756L12.9482 12.3287C12.9992 12.3169 13.0524 12.3181 13.1028 12.3323C13.1533 12.3464 13.1993 12.373 13.2368 12.4096C13.2743 12.4462 13.3019 12.4916 13.3172 12.5417C13.3326 12.5918 13.335 12.6449 13.3245 12.6962L12.621 16.1428C12.6101 16.1959 12.6132 16.2509 12.63 16.3023C12.6468 16.3538 12.6767 16.4001 12.7168 16.4365C12.7569 16.473 12.8057 16.4984 12.8585 16.5102C12.9114 16.5221 12.9664 16.52 13.0182 16.5042L14.4812 16.0597C14.5331 16.0438 14.5882 16.0417 14.6411 16.0536C14.6941 16.0655 14.743 16.091 14.7831 16.1276C14.8232 16.1641 14.8531 16.2105 14.8698 16.2621C14.8865 16.3137 14.8895 16.3688 14.8785 16.4219L13.7593 21.8356C13.6893 22.1742 14.14 22.3588 14.3281 22.0692L14.4532 21.8749L21.3876 8.03682C21.4136 7.98468 21.4245 7.9263 21.4191 7.86827C21.4137 7.81025 21.3922 7.75489 21.3569 7.70847C21.3217 7.66205 21.2742 7.6264 21.2198 7.60557C21.1653 7.58473 21.1062 7.57954 21.049 7.59057L18.6103 8.06045C18.5578 8.07049 18.5036 8.0669 18.4529 8.05002C18.4022 8.03314 18.3567 8.00353 18.3207 7.96402C18.2847 7.92452 18.2595 7.87643 18.2474 7.82438C18.2353 7.77232 18.2367 7.71803 18.2516 7.6667L19.8423 2.14895C19.8573 2.09745 19.8588 2.04296 19.8466 1.99072C19.8344 1.93848 19.809 1.89026 19.7728 1.8507C19.7366 1.81114 19.6908 1.78157 19.6398 1.76485C19.5889 1.74812 19.5345 1.7448 19.4818 1.7552" fill="url(#paint1_linear_262_408)"/>
<defs>
<linearGradient id="paint0_linear_262_408" x1="1.54747" y1="3.71952" x2="15.8582" y2="23.1547" gradientUnits="userSpaceOnUse">
<stop stop-color="#41D1FF"/>
<stop offset="1" stop-color="#BD34FE"/>
</linearGradient>
<linearGradient id="paint1_linear_262_408" x1="13.3367" y1="2.20826" x2="15.9254" y2="19.9668" gradientUnits="userSpaceOnUse">
<stop stop-color="#FFEA83"/>
<stop offset="0.083" stop-color="#FFDD35"/>
<stop offset="1" stop-color="#FFA800"/>
</linearGradient>
</defs>
</svg>
