<svg width="32" height="32" viewBox="0 0 32 32" fill="none" xmlns="http://www.w3.org/2000/svg">
<path d="M29.884 6.14605L16.742 29.646C16.6803 29.7566 16.5903 29.8487 16.4813 29.913C16.3722 29.9773 16.248 30.0115 16.1215 30.012C15.9949 30.0125 15.8704 29.9793 15.7609 29.9159C15.6513 29.8525 15.5606 29.7611 15.498 29.651L2.096 6.14805C2.02862 6.03012 1.99627 5.89542 2.00275 5.75976C2.00923 5.62409 2.05428 5.49309 2.13259 5.38213C2.21091 5.27116 2.31925 5.18483 2.4449 5.13328C2.57056 5.08172 2.70831 5.06707 2.842 5.09105L15.998 7.44305C16.0817 7.45811 16.1673 7.45811 16.251 7.44305L29.132 5.09505C29.2652 5.07072 29.4025 5.08474 29.528 5.13549C29.6535 5.18624 29.762 5.27163 29.8408 5.38169C29.9196 5.49174 29.9656 5.62194 29.9732 5.7571C29.9808 5.89226 29.9499 6.02781 29.884 6.14605Z" fill="url(#paint0_linear_111_264)"/>
<path d="M22.264 2.00704L12.54 3.91204C12.4622 3.92724 12.3916 3.96793 12.3394 4.02769C12.2873 4.08744 12.2565 4.16286 12.252 4.24204L11.654 14.346C11.6507 14.4015 11.6604 14.4569 11.6823 14.5079C11.7041 14.559 11.7376 14.6042 11.78 14.64C11.8225 14.6759 11.8727 14.7013 11.9266 14.7143C11.9806 14.7273 12.0369 14.7276 12.091 14.715L14.798 14.09C14.8563 14.0766 14.9171 14.078 14.9747 14.0941C15.0324 14.1103 15.085 14.1407 15.1278 14.1825C15.1706 14.2243 15.2023 14.2762 15.2198 14.3335C15.2373 14.3907 15.2401 14.4514 15.228 14.51L14.424 18.449C14.4116 18.5097 14.4152 18.5725 14.4344 18.6313C14.4536 18.6902 14.4877 18.743 14.5335 18.7847C14.5793 18.8263 14.6351 18.8554 14.6955 18.8689C14.7559 18.8825 14.8188 18.8801 14.878 18.862L16.55 18.354C16.6093 18.3359 16.6723 18.3335 16.7328 18.3471C16.7933 18.3607 16.8492 18.3898 16.895 18.4316C16.9408 18.4734 16.975 18.5264 16.9941 18.5854C17.0132 18.6444 17.0166 18.7073 17.004 18.768L15.725 24.955C15.645 25.342 16.16 25.553 16.375 25.222L16.518 25L24.443 9.18504C24.4727 9.12545 24.4852 9.05873 24.479 8.99242C24.4729 8.9261 24.4482 8.86284 24.408 8.80978C24.3677 8.75673 24.3134 8.71599 24.2512 8.69218C24.189 8.66837 24.1214 8.66243 24.056 8.67504L21.269 9.21204C21.209 9.22353 21.1471 9.21942 21.0891 9.20013C21.0312 9.18083 20.9791 9.14699 20.938 9.10184C20.8969 9.05669 20.868 9.00174 20.8542 8.94225C20.8403 8.88276 20.842 8.82071 20.859 8.76204L22.677 2.45604C22.6941 2.39719 22.6958 2.33491 22.6819 2.27521C22.668 2.21551 22.6389 2.1604 22.5975 2.11519C22.5561 2.06998 22.5038 2.03619 22.4456 2.01707C22.3873 1.99796 22.3251 1.99416 22.265 2.00604" fill="url(#paint1_linear_111_264)"/>
<defs>
<linearGradient id="paint0_linear_111_264" x1="1.76852" y1="4.25091" x2="18.1237" y2="26.4625" gradientUnits="userSpaceOnUse">
<stop stop-color="#41D1FF"/>
<stop offset="1" stop-color="#BD34FE"/>
</linearGradient>
<linearGradient id="paint1_linear_111_264" x1="15.242" y1="2.52383" x2="18.2005" y2="22.8193" gradientUnits="userSpaceOnUse">
<stop stop-color="#FFEA83"/>
<stop offset="0.083" stop-color="#FFDD35"/>
<stop offset="1" stop-color="#FFA800"/>
</linearGradient>
</defs>
</svg>
