<svg width="225" height="62" viewBox="0 0 225 62" fill="none" xmlns="http://www.w3.org/2000/svg">
<mask id="path-1-inside-1_160_305" fill="white">
<path fill-rule="evenodd" clip-rule="evenodd" d="M217.829 0.829285H224.171V7.17074H217.829V0.829285ZM7.17068 0.829295H0.829234V7.17075H7.17068V0.829295ZM7.17067 54.8293H0.829224V61.1707H7.17067V54.8293ZM224.171 54.8293H217.829V61.1707H224.171V54.8293Z"/>
</mask>
<path d="M224.171 0.829285H227.341V-2.34144H224.171V0.829285ZM217.829 0.829285V-2.34144H214.658V0.829285H217.829ZM224.171 7.17074V10.3415H227.341V7.17074H224.171ZM217.829 7.17074H214.658V10.3415H217.829V7.17074ZM0.829234 0.829295V-2.34143H-2.34149V0.829295H0.829234ZM7.17068 0.829295H10.3414V-2.34143H7.17068V0.829295ZM0.829234 7.17075H-2.34149V10.3415H0.829234V7.17075ZM7.17068 7.17075V10.3415H10.3414V7.17075H7.17068ZM0.829224 54.8293V51.6586H-2.3415V54.8293H0.829224ZM7.17067 54.8293H10.3414V51.6586H7.17067V54.8293ZM0.829224 61.1707H-2.3415V64.3415H0.829224V61.1707ZM7.17067 61.1707V64.3415H10.3414V61.1707H7.17067ZM217.829 54.8293V51.6586H214.658V54.8293H217.829ZM224.171 54.8293H227.341V51.6586H224.171V54.8293ZM217.829 61.1707H214.658V64.3415H217.829V61.1707ZM224.171 61.1707V64.3415H227.341V61.1707H224.171ZM224.171 -2.34144H217.829V4.00001H224.171V-2.34144ZM227.341 7.17074V0.829285H221V7.17074H227.341ZM217.829 10.3415H224.171V4.00001H217.829V10.3415ZM214.658 0.829285V7.17074H221V0.829285H214.658ZM0.829234 4.00002H7.17068V-2.34143H0.829234V4.00002ZM3.99996 7.17075V0.829295H-2.34149V7.17075H3.99996ZM7.17068 4.00002H0.829234V10.3415H7.17068V4.00002ZM3.99996 0.829295V7.17075H10.3414V0.829295H3.99996ZM0.829224 58H7.17067V51.6586H0.829224V58ZM3.99995 61.1707V54.8293H-2.3415V61.1707H3.99995ZM7.17067 58H0.829224V64.3415H7.17067V58ZM3.99995 54.8293V61.1707H10.3414V54.8293H3.99995ZM217.829 58H224.171V51.6586H217.829V58ZM221 61.1707V54.8293H214.658V61.1707H221ZM224.171 58H217.829V64.3415H224.171V58ZM221 54.8293V61.1707H227.341V54.8293H221Z" fill="white" mask="url(#path-1-inside-1_160_305)"/>
<path fill-rule="evenodd" clip-rule="evenodd" d="M223.378 1.62197H218.622V6.37805H223.378V1.62197ZM218.622 0.829285H217.829V1.62197V3.20733H7.17068V1.62198V0.829295H6.378H1.62191H0.829234V1.62198V6.37806V7.17075H1.62191H3.20727V54.8293H1.6219H0.829224V55.622V60.3781V61.1707H1.6219H6.37799H7.17067V60.3781V58.7927H217.829V60.3781V61.1707H218.622H223.378H224.171V60.3781V55.622V54.8293H223.378H221.793V7.17074H223.378H224.171V6.37805V1.62197V0.829285H223.378H218.622ZM221 54.8293V7.17074H218.622H217.829V6.37805V4.00001H7.17068V6.37806V7.17075H6.378H3.99995V54.8293H6.37799H7.17067V55.622V58H217.829V55.622V54.8293H218.622H221ZM6.378 1.62198H1.62191V6.37806H6.378V1.62198ZM1.6219 60.3781V55.622H6.37799V60.3781H1.6219ZM218.622 60.3781V55.622H223.378V60.3781H218.622Z" fill="#7200CF"/>
</svg>
