<svg width="50" height="39" viewBox="0 0 50 39" fill="none" xmlns="http://www.w3.org/2000/svg">
<g filter="url(#filter0_d_160_323)">
<rect width="26" height="15.75" transform="translate(15.5 18)" fill="#7200CF"/>
<path d="M22.0352 28.875H19.769V21.875H22.1069C22.7928 21.875 23.3818 22.0151 23.874 22.2954C24.3662 22.5734 24.7433 22.9733 25.0054 23.4951C25.2697 24.0146 25.4019 24.6379 25.4019 25.3647C25.4019 26.0939 25.2686 26.7205 25.002 27.2446C24.7376 27.7687 24.3548 28.172 23.8535 28.4546C23.3522 28.7349 22.7461 28.875 22.0352 28.875ZM20.8252 27.9521H21.9771C22.5103 27.9521 22.9535 27.8519 23.3066 27.6514C23.6598 27.4486 23.9242 27.1558 24.0996 26.7729C24.2751 26.3879 24.3628 25.9185 24.3628 25.3647C24.3628 24.8156 24.2751 24.3496 24.0996 23.9668C23.9264 23.584 23.6678 23.2935 23.3237 23.0952C22.9797 22.897 22.5524 22.7979 22.042 22.7979H20.8252V27.9521ZM28.9921 28.981C28.4749 28.981 28.0294 28.8704 27.6557 28.6494C27.2843 28.4261 26.9972 28.1128 26.7944 27.7095C26.5938 27.3039 26.4936 26.8288 26.4936 26.2842C26.4936 25.7464 26.5938 25.2725 26.7944 24.8623C26.9972 24.4521 27.2797 24.132 27.642 23.9019C28.0066 23.6717 28.4327 23.5566 28.9203 23.5566C29.2166 23.5566 29.5037 23.6056 29.7817 23.7036C30.0597 23.8016 30.3092 23.9554 30.5302 24.165C30.7512 24.3747 30.9256 24.647 31.0532 24.9819C31.1808 25.3146 31.2446 25.7191 31.2446 26.1953V26.5576H27.0712V25.792H30.2431C30.2431 25.5231 30.1884 25.285 30.079 25.0776C29.9697 24.868 29.8159 24.7028 29.6176 24.582C29.4216 24.4613 29.1915 24.4009 28.9272 24.4009C28.6401 24.4009 28.3894 24.4715 28.1752 24.6128C27.9633 24.7518 27.7993 24.9341 27.683 25.1597C27.5691 25.383 27.5121 25.6257 27.5121 25.8877V26.4858C27.5121 26.8368 27.5737 27.1353 27.6967 27.3813C27.822 27.6274 27.9964 27.8154 28.2197 27.9453C28.443 28.0729 28.7039 28.1367 29.0024 28.1367C29.1961 28.1367 29.3727 28.1094 29.5322 28.0547C29.6917 27.9977 29.8295 27.9134 29.9457 27.8018C30.0619 27.6901 30.1508 27.5522 30.2123 27.3882L31.1796 27.5625C31.1021 27.8473 30.9632 28.0968 30.7626 28.311C30.5644 28.5229 30.3149 28.6882 30.0141 28.8066C29.7156 28.9229 29.3749 28.981 28.9921 28.981ZM36.8155 23.625L34.9117 28.875H33.818L31.9108 23.625H33.0079L34.3375 27.665H34.3922L35.7184 23.625H36.8155Z" fill="white"/>
</g>
<g filter="url(#filter1_d_160_323)">
<path d="M7.1875 15.375L5 4L14.625 9.6875L9.8125 11L7.1875 15.375Z" fill="#7200CF"/>
<path d="M6.75787 15.4576L6.97396 16.5813L7.56265 15.6001L10.0972 11.3758L14.7401 10.1096L15.7385 9.8373L14.8476 9.31084L5.22257 3.62334L4.38711 3.12967L4.57037 4.08262L6.75787 15.4576Z" stroke="white" stroke-width="0.875" stroke-linecap="square"/>
</g>
<defs>
<filter id="filter0_d_160_323" x="12" y="15.375" width="33" height="22.75" filterUnits="userSpaceOnUse" color-interpolation-filters="sRGB">
<feFlood flood-opacity="0" result="BackgroundImageFix"/>
<feColorMatrix in="SourceAlpha" type="matrix" values="0 0 0 0 0 0 0 0 0 0 0 0 0 0 0 0 0 0 127 0" result="hardAlpha"/>
<feOffset dy="0.875"/>
<feGaussianBlur stdDeviation="1.75"/>
<feColorMatrix type="matrix" values="0 0 0 0 0 0 0 0 0 0 0 0 0 0 0 0 0 0 0.16 0"/>
<feBlend mode="normal" in2="BackgroundImageFix" result="effect1_dropShadow_160_323"/>
<feBlend mode="normal" in="SourceGraphic" in2="effect1_dropShadow_160_323" result="shape"/>
</filter>
<filter id="filter1_d_160_323" x="0.774231" y="0.259338" width="19.0778" height="21.5282" filterUnits="userSpaceOnUse" color-interpolation-filters="sRGB">
<feFlood flood-opacity="0" result="BackgroundImageFix"/>
<feColorMatrix in="SourceAlpha" type="matrix" values="0 0 0 0 0 0 0 0 0 0 0 0 0 0 0 0 0 0 127 0" result="hardAlpha"/>
<feOffset dy="1"/>
<feGaussianBlur stdDeviation="1.5"/>
<feColorMatrix type="matrix" values="0 0 0 0 0 0 0 0 0 0 0 0 0 0 0 0 0 0 0.35 0"/>
<feBlend mode="normal" in2="BackgroundImageFix" result="effect1_dropShadow_160_323"/>
<feBlend mode="normal" in="SourceGraphic" in2="effect1_dropShadow_160_323" result="shape"/>
</filter>
</defs>
</svg>
