<svg width="295" height="81" viewBox="0 0 295 81" fill="none" xmlns="http://www.w3.org/2000/svg">
<mask id="path-1-inside-1_218_85" fill="white">
<path fill-rule="evenodd" clip-rule="evenodd" d="M285.831 0.831116H294.169V9.16895H285.831V0.831116ZM9.16897 0.831135H0.831135V9.16897H9.16897V0.831135ZM9.16895 71.8311H0.831116V80.1689H9.16895V71.8311ZM294.169 71.8311H285.831V80.1689H294.169V71.8311Z"/>
</mask>
<path d="M294.169 0.831116H298.338V-3.3378H294.169V0.831116ZM285.831 0.831116V-3.3378H281.662V0.831116H285.831ZM294.169 9.16895V13.3379H298.338V9.16895H294.169ZM285.831 9.16895H281.662V13.3379H285.831V9.16895ZM0.831135 0.831135V-3.33778H-3.33778V0.831135H0.831135ZM9.16897 0.831135H13.3379V-3.33778H9.16897V0.831135ZM0.831135 9.16897H-3.33778V13.3379H0.831135V9.16897ZM9.16897 9.16897V13.3379H13.3379V9.16897H9.16897ZM0.831116 71.8311V67.6622H-3.3378V71.8311H0.831116ZM9.16895 71.8311H13.3379V67.6622H9.16895V71.8311ZM0.831116 80.1689H-3.3378V84.3379H0.831116V80.1689ZM9.16895 80.1689V84.3379H13.3379V80.1689H9.16895ZM285.831 71.8311V67.6622H281.662V71.8311H285.831ZM294.169 71.8311H298.338V67.6622H294.169V71.8311ZM285.831 80.1689H281.662V84.3379H285.831V80.1689ZM294.169 80.1689V84.3379H298.338V80.1689H294.169ZM294.169 -3.3378H285.831V5.00003H294.169V-3.3378ZM298.338 9.16895V0.831116H290V9.16895H298.338ZM285.831 13.3379H294.169V5.00003H285.831V13.3379ZM281.662 0.831116V9.16895H290V0.831116H281.662ZM0.831135 5.00005H9.16897V-3.33778H0.831135V5.00005ZM5.00005 9.16897V0.831135H-3.33778V9.16897H5.00005ZM9.16897 5.00005H0.831135V13.3379H9.16897V5.00005ZM5.00005 0.831135V9.16897H13.3379V0.831135H5.00005ZM0.831116 76H9.16895V67.6622H0.831116V76ZM5.00003 80.1689V71.8311H-3.3378V80.1689H5.00003ZM9.16895 76H0.831116V84.3379H9.16895V76ZM5.00003 71.8311V80.1689H13.3379V71.8311H5.00003ZM285.831 76H294.169V67.6622H285.831V76ZM290 80.1689V71.8311H281.662V80.1689H290ZM294.169 76H285.831V84.3379H294.169V76ZM290 71.8311V80.1689H298.338V71.8311H290Z" fill="white" mask="url(#path-1-inside-1_218_85)"/>
<path fill-rule="evenodd" clip-rule="evenodd" d="M293.127 1.87334H286.873V8.12672H293.127V1.87334ZM286.873 0.831116H285.831V1.87334L285.831 3.95781H9.16897V5.00004H285.831L285.831 8.12672V9.16895H286.873H293.127H294.169V8.12672V1.87334V0.831116H293.127H286.873ZM8.12674 1.87336H1.87336V8.12674H8.12674V1.87336ZM1.87336 0.831135H0.831135V1.87336V8.12674V9.16897H1.87336H8.12674H9.16897V8.12674V1.87336V0.831135H8.12674H1.87336ZM290 71.8311V9.16897H291.042V71.8311L293.127 71.8311H294.169V72.8733V79.1267V80.1689H293.127H286.873H285.831V79.1267L285.831 77.0423H9.16897V76H285.831L285.831 72.8733V71.8311H286.873L290 71.8311ZM3.95781 71.8311V9.16897H5.00004V71.8311L8.12672 71.8311H9.16895V72.8733V79.1267V80.1689H8.12672H1.87334H0.831116V79.1267V72.8733V71.8311H1.87334L3.95781 71.8311ZM1.87334 79.1267V72.8733H8.12672V79.1267H1.87334ZM286.873 72.8733H293.127V79.1267H286.873V72.8733Z" fill="#7200CF"/>
</svg>
